<svg style="background:white" xmlns="http://www.w3.org/2000/svg" xmlns:xlink="http://www.w3.org/1999/xlink" xmlns:s="https://github.com/nturley/netlistsvg" width="504" height="341">
  <style>svg {
    stroke:#000;
    fill:none;
  }
  text {
    fill:#000;
    stroke:none;
    font-size:10px;
    font-weight: bold;
    font-family: "Courier New", monospace;
  }
  .nodelabel {
    text-anchor: middle;
  }
  .inputPortLabel {
    text-anchor: end;
  }
  .splitjoinBody {
    fill:#000;
  }</style>
  <g s:type="generic" transform="translate(155,228.5)" s:width="30" s:height="40" id="cell_uut0">
    <text x="15" y="-4" class="nodelabel cell_uut0" s:attribute="ref">decoder_224</text>
    <rect width="30" height="40" s:generic="body" class="cell_uut0"/>
    <g transform="translate(0,10)" s:x="0" s:y="10" s:pid="in0" id="port_uut0~en">
      <text x="-3" y="-4" class="inputPortLabel cell_uut0">en</text>
    </g>
    <g transform="translate(0,30)" s:x="0" s:y="10" s:pid="in0" id="port_uut0~in">
      <text x="-3" y="-4" class="inputPortLabel cell_uut0">in</text>
    </g>
    <g transform="translate(30,10)" s:x="30" s:y="10" s:pid="out0" id="port_uut0~code">
      <text x="5" y="-4" style="fill:#000; stroke:none" class="cell_uut0">code</text>
    </g>
  </g>
  <g s:type="generic" transform="translate(311,22)" s:width="30" s:height="40" id="cell_uut1">
    <text x="15" y="-4" class="nodelabel cell_uut1" s:attribute="ref">decoder_224</text>
    <rect width="30" height="40" s:generic="body" class="cell_uut1"/>
    <g transform="translate(0,10)" s:x="0" s:y="10" s:pid="in0" id="port_uut1~en">
      <text x="-3" y="-4" class="inputPortLabel cell_uut1">en</text>
    </g>
    <g transform="translate(0,30)" s:x="0" s:y="10" s:pid="in0" id="port_uut1~in">
      <text x="-3" y="-4" class="inputPortLabel cell_uut1">in</text>
    </g>
    <g transform="translate(30,10)" s:x="30" s:y="10" s:pid="out0" id="port_uut1~code">
      <text x="5" y="-4" style="fill:#000; stroke:none" class="cell_uut1">code</text>
    </g>
  </g>
  <g s:type="generic" transform="translate(311,110)" s:width="30" s:height="40" id="cell_uut2">
    <text x="15" y="-4" class="nodelabel cell_uut2" s:attribute="ref">decoder_224</text>
    <rect width="30" height="40" s:generic="body" class="cell_uut2"/>
    <g transform="translate(0,10)" s:x="0" s:y="10" s:pid="in0" id="port_uut2~en">
      <text x="-3" y="-4" class="inputPortLabel cell_uut2">en</text>
    </g>
    <g transform="translate(0,30)" s:x="0" s:y="10" s:pid="in0" id="port_uut2~in">
      <text x="-3" y="-4" class="inputPortLabel cell_uut2">in</text>
    </g>
    <g transform="translate(30,10)" s:x="30" s:y="10" s:pid="out0" id="port_uut2~code">
      <text x="5" y="-4" style="fill:#000; stroke:none" class="cell_uut2">code</text>
    </g>
  </g>
  <g s:type="generic" transform="translate(311,198)" s:width="30" s:height="40" id="cell_uut3">
    <text x="15" y="-4" class="nodelabel cell_uut3" s:attribute="ref">decoder_224</text>
    <rect width="30" height="40" s:generic="body" class="cell_uut3"/>
    <g transform="translate(0,10)" s:x="0" s:y="10" s:pid="in0" id="port_uut3~en">
      <text x="-3" y="-4" class="inputPortLabel cell_uut3">en</text>
    </g>
    <g transform="translate(0,30)" s:x="0" s:y="10" s:pid="in0" id="port_uut3~in">
      <text x="-3" y="-4" class="inputPortLabel cell_uut3">in</text>
    </g>
    <g transform="translate(30,10)" s:x="30" s:y="10" s:pid="out0" id="port_uut3~code">
      <text x="5" y="-4" style="fill:#000; stroke:none" class="cell_uut3">code</text>
    </g>
  </g>
  <g s:type="generic" transform="translate(311,286)" s:width="30" s:height="40" id="cell_uut4">
    <text x="15" y="-4" class="nodelabel cell_uut4" s:attribute="ref">decoder_224</text>
    <rect width="30" height="40" s:generic="body" class="cell_uut4"/>
    <g transform="translate(0,10)" s:x="0" s:y="10" s:pid="in0" id="port_uut4~en">
      <text x="-3" y="-4" class="inputPortLabel cell_uut4">en</text>
    </g>
    <g transform="translate(0,30)" s:x="0" s:y="10" s:pid="in0" id="port_uut4~in">
      <text x="-3" y="-4" class="inputPortLabel cell_uut4">in</text>
    </g>
    <g transform="translate(30,10)" s:x="30" s:y="10" s:pid="out0" id="port_uut4~code">
      <text x="5" y="-4" style="fill:#000; stroke:none" class="cell_uut4">code</text>
    </g>
  </g>
  <g s:type="inputExt" transform="translate(12,296.5)" s:width="30" s:height="20" id="cell_in">
    <text x="15" y="-4" class="nodelabel cell_in" s:attribute="ref">in</text>
    <s:alias val="$_inputExt_"/>
    <path d="M0,0 L0,20 L15,20 L30,10 L15,0 Z" class="cell_in"/>
    <g s:x="28" s:y="10" s:pid="Y"/>
  </g>
  <g s:type="outputExt" transform="translate(462,100.5)" s:width="30" s:height="20" id="cell_code">
    <text x="15" y="-4" class="nodelabel cell_code" s:attribute="ref">code</text>
    <s:alias val="$_outputExt_"/>
    <path d="M30,0 L30,20 L15,20 L0,10 L15,0 Z" class="cell_code"/>
    <g s:x="0" s:y="10" s:pid="A"/>
  </g>
  <g s:type="constant" transform="translate(77,229)" s:width="30" s:height="20" id="cell_1">
    <text x="15" y="-4" class="nodelabel cell_1" s:attribute="ref">1</text>
    <s:alias val="$_constant_"/>
    <rect width="30" height="20" class="cell_1"/>
    <g s:x="30" s:y="10" s:pid="Y"/>
  </g>
  <g s:type="join" transform="translate(421,90)" s:width="4" s:height="40" id="cell_$join$,6,7,8,9,10,11,12,13,14,15,16,17,18,19,20,21,">
    <rect width="5" height="80" class="splitjoinBody" s:generic="body"/>
    <s:alias val="$_join_"/>
    <g s:x="5" s:y="20" s:pid="out"/>
    <g transform="translate(0,10)" s:x="0" s:y="10" s:pid="in0">
      <text x="-3" y="-4" class="inputPortLabel">0:3</text>
    </g>
    <g transform="translate(0,30)" s:x="0" s:y="10" s:pid="in0">
      <text x="-3" y="-4" class="inputPortLabel">4:7</text>
    </g>
    <g transform="translate(0,50)" s:x="0" s:y="10" s:pid="in0">
      <text x="-3" y="-4" class="inputPortLabel">8:11</text>
    </g>
    <g transform="translate(0,70)" s:x="0" s:y="10" s:pid="in0">
      <text x="-3" y="-4" class="inputPortLabel">12:15</text>
    </g>
  </g>
  <g s:type="split" transform="translate(83,286)" s:width="5" s:height="40" id="cell_$split$,2,3,4,5,">
    <rect width="5" height="40" class="splitjoinBody" s:generic="body"/>
    <s:alias val="$_split_"/>
    <g s:x="0" s:y="20" s:pid="in"/>
    <g transform="translate(4,10)" s:x="4" s:y="10" s:pid="out0">
      <text x="5" y="-4">2:3</text>
    </g>
    <g transform="translate(4,30)" s:x="4" s:y="10" s:pid="out0">
      <text x="5" y="-4">0:1</text>
    </g>
  </g>
  <g s:type="split" transform="translate(246,158)" s:width="5" s:height="40" id="cell_$split$,22,23,24,25,">
    <rect width="5" height="80" class="splitjoinBody" s:generic="body"/>
    <s:alias val="$_split_"/>
    <g s:x="0" s:y="20" s:pid="in"/>
    <g transform="translate(4,10)" s:x="4" s:y="10" s:pid="out0">
      <text x="5" y="-4">0</text>
    </g>
    <g transform="translate(4,30)" s:x="4" s:y="10" s:pid="out0">
      <text x="5" y="-4">1</text>
    </g>
    <g transform="translate(4,50)" s:x="4" s:y="10" s:pid="out0">
      <text x="5" y="-4">2</text>
    </g>
    <g transform="translate(4,70)" s:x="4" s:y="10" s:pid="out0">
      <text x="5" y="-4">3</text>
    </g>
  </g>
  <line x1="107" x2="155" y1="239" y2="239" class="net_26"/>
  <line x1="88" x2="117" y1="296.5" y2="296.5" class="net_4,5"/>
  <line x1="117" x2="117" y1="296.5" y2="259" class="net_4,5"/>
  <line x1="117" x2="155" y1="259" y2="259" class="net_4,5"/>
  <line x1="251" x2="268" y1="168.5" y2="168.5" class="net_22"/>
  <line x1="268" x2="268" y1="168.5" y2="32.5" class="net_22"/>
  <line x1="268" x2="311" y1="32.5" y2="32.5" class="net_22"/>
  <line x1="88" x2="221" y1="316.5" y2="316.5" class="net_2,3"/>
  <line x1="221" x2="221" y1="316.5" y2="52.5" class="net_2,3"/>
  <circle cx="221" cy="316.5" r="2" style="fill:#000" class="net_2,3"/>
  <line x1="221" x2="311" y1="52.5" y2="52.5" class="net_2,3"/>
  <line x1="88" x2="288" y1="316.5" y2="316.5" class="net_2,3"/>
  <line x1="288" x2="288" y1="316.5" y2="140.5" class="net_2,3"/>
  <circle cx="288" cy="316.5" r="2" style="fill:#000" class="net_2,3"/>
  <line x1="288" x2="311" y1="140.5" y2="140.5" class="net_2,3"/>
  <line x1="88" x2="288" y1="316.5" y2="316.5" class="net_2,3"/>
  <line x1="288" x2="288" y1="316.5" y2="228.5" class="net_2,3"/>
  <circle cx="288" cy="228.5" r="2" style="fill:#000" class="net_2,3"/>
  <line x1="288" x2="311" y1="228.5" y2="228.5" class="net_2,3"/>
  <line x1="88" x2="311" y1="316.5" y2="316.5" class="net_2,3"/>
  <line x1="251" x2="278" y1="188.5" y2="188.5" class="net_23"/>
  <line x1="278" x2="278" y1="188.5" y2="120.5" class="net_23"/>
  <line x1="278" x2="311" y1="120.5" y2="120.5" class="net_23"/>
  <line x1="251" x2="311" y1="208.5" y2="208.5" class="net_24"/>
  <line x1="251" x2="268" y1="228.5" y2="228.5" class="net_25"/>
  <line x1="268" x2="268" y1="228.5" y2="296.5" class="net_25"/>
  <line x1="268" x2="311" y1="296.5" y2="296.5" class="net_25"/>
  <line x1="427" x2="462" y1="110.5" y2="110.5" class="net_6,7,8,9,10,11,12,13,14,15,16,17,18,19,20,21"/>
  <line x1="342" x2="377" y1="32.5" y2="32.5" class="net_6,7,8,9"/>
  <line x1="377" x2="377" y1="32.5" y2="100.5" class="net_6,7,8,9"/>
  <line x1="377" x2="421" y1="100.5" y2="100.5" class="net_6,7,8,9"/>
  <line x1="342" x2="421" y1="120.5" y2="120.5" class="net_10,11,12,13"/>
  <line x1="342" x2="377" y1="208.5" y2="208.5" class="net_14,15,16,17"/>
  <line x1="377" x2="377" y1="208.5" y2="140.5" class="net_14,15,16,17"/>
  <line x1="377" x2="421" y1="140.5" y2="140.5" class="net_14,15,16,17"/>
  <line x1="342" x2="421.5" y1="296.5" y2="296.5" class="net_18,19,20,21"/>
  <line x1="421.5" x2="421.5" y1="296.5" y2="161" class="net_18,19,20,21"/>
  <line x1="40" x2="83" y1="306.5" y2="306.5" class="net_2,3,4,5"/>
  <line x1="186" x2="231" y1="239" y2="239" class="net_22,23,24,25"/>
  <line x1="231" x2="231" y1="239" y2="178.5" class="net_22,23,24,25"/>
  <line x1="231" x2="246" y1="178.5" y2="178.5" class="net_22,23,24,25"/>
</svg>
