<svg style="background:white" xmlns="http://www.w3.org/2000/svg" xmlns:xlink="http://www.w3.org/1999/xlink" xmlns:s="https://github.com/nturley/netlistsvg" width="414" height="240">
  <style>svg {
    stroke:#000;
    fill:none;
  }
  text {
    fill:#000;
    stroke:none;
    font-size:10px;
    font-weight: bold;
    font-family: "Courier New", monospace;
  }
  .nodelabel {
    text-anchor: middle;
  }
  .inputPortLabel {
    text-anchor: end;
  }
  .splitjoinBody {
    fill:#000;
  }</style>
  <g s:type="and" transform="translate(259,199.5)" s:width="30" s:height="25" id="cell_$and$rtl/decoder_224.v:6$2">
    <s:alias val="$and"/>
    <s:alias val="$logic_and"/>
    <s:alias val="$_AND_"/>
    <path d="M0,0 L0,25 L15,25 A15 12.5 0 0 0 15,0 Z" class="cell_$and$rtl/decoder_224.v:6$2"/>
    <g s:x="0" s:y="5" s:pid="A"/>
    <g s:x="0" s:y="20" s:pid="B"/>
    <g s:x="30" s:y="12.5" s:pid="Y"/>
  </g>
  <g s:type="and" transform="translate(189,192)" s:width="30" s:height="25" id="cell_$and$rtl/decoder_224.v:7$3">
    <s:alias val="$and"/>
    <s:alias val="$logic_and"/>
    <s:alias val="$_AND_"/>
    <path d="M0,0 L0,25 L15,25 A15 12.5 0 0 0 15,0 Z" class="cell_$and$rtl/decoder_224.v:7$3"/>
    <g s:x="0" s:y="5" s:pid="A"/>
    <g s:x="0" s:y="20" s:pid="B"/>
    <g s:x="30" s:y="12.5" s:pid="Y"/>
  </g>
  <g s:type="and" transform="translate(259,139.5)" s:width="30" s:height="25" id="cell_$and$rtl/decoder_224.v:7$5">
    <s:alias val="$and"/>
    <s:alias val="$logic_and"/>
    <s:alias val="$_AND_"/>
    <path d="M0,0 L0,25 L15,25 A15 12.5 0 0 0 15,0 Z" class="cell_$and$rtl/decoder_224.v:7$5"/>
    <g s:x="0" s:y="5" s:pid="A"/>
    <g s:x="0" s:y="20" s:pid="B"/>
    <g s:x="30" s:y="12.5" s:pid="Y"/>
  </g>
  <g s:type="and" transform="translate(189,12)" s:width="30" s:height="25" id="cell_$and$rtl/decoder_224.v:8$7">
    <s:alias val="$and"/>
    <s:alias val="$logic_and"/>
    <s:alias val="$_AND_"/>
    <path d="M0,0 L0,25 L15,25 A15 12.5 0 0 0 15,0 Z" class="cell_$and$rtl/decoder_224.v:8$7"/>
    <g s:x="0" s:y="5" s:pid="A"/>
    <g s:x="0" s:y="20" s:pid="B"/>
    <g s:x="30" s:y="12.5" s:pid="Y"/>
  </g>
  <g s:type="and" transform="translate(259,79.5)" s:width="30" s:height="25" id="cell_$and$rtl/decoder_224.v:8$8">
    <s:alias val="$and"/>
    <s:alias val="$logic_and"/>
    <s:alias val="$_AND_"/>
    <path d="M0,0 L0,25 L15,25 A15 12.5 0 0 0 15,0 Z" class="cell_$and$rtl/decoder_224.v:8$8"/>
    <g s:x="0" s:y="5" s:pid="A"/>
    <g s:x="0" s:y="20" s:pid="B"/>
    <g s:x="30" s:y="12.5" s:pid="Y"/>
  </g>
  <g s:type="and" transform="translate(259,19.5)" s:width="30" s:height="25" id="cell_$and$rtl/decoder_224.v:9$12">
    <s:alias val="$and"/>
    <s:alias val="$logic_and"/>
    <s:alias val="$_AND_"/>
    <path d="M0,0 L0,25 L15,25 A15 12.5 0 0 0 15,0 Z" class="cell_$and$rtl/decoder_224.v:9$12"/>
    <g s:x="0" s:y="5" s:pid="A"/>
    <g s:x="0" s:y="20" s:pid="B"/>
    <g s:x="30" s:y="12.5" s:pid="Y"/>
  </g>
  <g s:type="not" transform="translate(189,149.5)" s:width="30" s:height="20" id="cell_$not$rtl/decoder_224.v:9$11">
    <s:alias val="$_NOT_"/>
    <s:alias val="$not"/>
    <s:alias val="$logic_not"/>
    <path d="M0,0 L0,20 L20,10 Z" class="cell_$not$rtl/decoder_224.v:9$11"/>
    <circle cx="23" cy="10" r="3" class="cell_$not$rtl/decoder_224.v:9$11"/>
    <g s:x="0" s:y="10" s:pid="A"/>
    <g s:x="25" s:y="10" s:pid="Y"/>
  </g>
  <g s:type="not" transform="translate(124,22)" s:width="30" s:height="20" id="cell_$not$rtl/decoder_224.v:9$9">
    <s:alias val="$_NOT_"/>
    <s:alias val="$not"/>
    <s:alias val="$logic_not"/>
    <path d="M0,0 L0,20 L20,10 Z" class="cell_$not$rtl/decoder_224.v:9$9"/>
    <circle cx="23" cy="10" r="3" class="cell_$not$rtl/decoder_224.v:9$9"/>
    <g s:x="0" s:y="10" s:pid="A"/>
    <g s:x="25" s:y="10" s:pid="Y"/>
  </g>
  <g s:type="inputExt" transform="translate(124,87)" s:width="30" s:height="20" id="cell_en">
    <text x="15" y="-4" class="nodelabel cell_en" s:attribute="ref">en</text>
    <s:alias val="$_inputExt_"/>
    <path d="M0,0 L0,20 L15,20 L30,10 L15,0 Z" class="cell_en"/>
    <g s:x="28" s:y="10" s:pid="Y"/>
  </g>
  <g s:type="inputExt" transform="translate(12,159.5)" s:width="30" s:height="20" id="cell_in">
    <text x="15" y="-4" class="nodelabel cell_in" s:attribute="ref">in</text>
    <s:alias val="$_inputExt_"/>
    <path d="M0,0 L0,20 L15,20 L30,10 L15,0 Z" class="cell_in"/>
    <g s:x="28" s:y="10" s:pid="Y"/>
  </g>
  <g s:type="outputExt" transform="translate(372,32)" s:width="30" s:height="20" id="cell_code">
    <text x="15" y="-4" class="nodelabel cell_code" s:attribute="ref">code</text>
    <s:alias val="$_outputExt_"/>
    <path d="M30,0 L30,20 L15,20 L0,10 L15,0 Z" class="cell_code"/>
    <g s:x="0" s:y="10" s:pid="A"/>
  </g>
  <g s:type="join" transform="translate(331,21.5)" s:width="4" s:height="40" id="cell_$join$,5,6,7,8,">
    <rect width="5" height="80" class="splitjoinBody" s:generic="body"/>
    <s:alias val="$_join_"/>
    <g s:x="5" s:y="20" s:pid="out"/>
    <g transform="translate(0,10)" s:x="0" s:y="10" s:pid="in0">
      <text x="-3" y="-4" class="inputPortLabel">0</text>
    </g>
    <g transform="translate(0,30)" s:x="0" s:y="10" s:pid="in0">
      <text x="-3" y="-4" class="inputPortLabel">1</text>
    </g>
    <g transform="translate(0,50)" s:x="0" s:y="10" s:pid="in0">
      <text x="-3" y="-4" class="inputPortLabel">2</text>
    </g>
    <g transform="translate(0,70)" s:x="0" s:y="10" s:pid="in0">
      <text x="-3" y="-4" class="inputPortLabel">3</text>
    </g>
  </g>
  <g s:type="split" transform="translate(77,149)" s:width="5" s:height="40" id="cell_$split$,3,4,">
    <rect width="5" height="40" class="splitjoinBody" s:generic="body"/>
    <s:alias val="$_split_"/>
    <g s:x="0" s:y="20" s:pid="in"/>
    <g transform="translate(4,10)" s:x="4" s:y="10" s:pid="out0">
      <text x="5" y="-4">0</text>
    </g>
    <g transform="translate(4,30)" s:x="4" s:y="10" s:pid="out0">
      <text x="5" y="-4">1</text>
    </g>
  </g>
  <line x1="219" x2="259" y1="204.5" y2="204.5" class="net_9"/>
  <line x1="219" x2="249" y1="204.5" y2="204.5" class="net_9"/>
  <line x1="249" x2="249" y1="204.5" y2="144.5" class="net_9"/>
  <circle cx="249" cy="204.5" r="2" style="fill:#000" class="net_9"/>
  <line x1="249" x2="259" y1="144.5" y2="144.5" class="net_9"/>
  <line x1="82" x2="109" y1="159.5" y2="159.5" class="net_3"/>
  <line x1="109" x2="109" y1="159.5" y2="227" class="net_3"/>
  <line x1="109" x2="229" y1="227" y2="227" class="net_3"/>
  <line x1="229" x2="229" y1="227" y2="219.5" class="net_3"/>
  <circle cx="109" cy="159.5" r="2" style="fill:#000" class="net_3"/>
  <line x1="229" x2="259" y1="219.5" y2="219.5" class="net_3"/>
  <line x1="82" x2="174" y1="159.5" y2="159.5" class="net_3"/>
  <line x1="174" x2="174" y1="159.5" y2="179.5" class="net_3"/>
  <line x1="174" x2="239" y1="179.5" y2="179.5" class="net_3"/>
  <line x1="239" x2="239" y1="179.5" y2="99.5" class="net_3"/>
  <circle cx="174" cy="159.5" r="2" style="fill:#000" class="net_3"/>
  <line x1="239" x2="259" y1="99.5" y2="99.5" class="net_3"/>
  <line x1="82" x2="189" y1="159.5" y2="159.5" class="net_3"/>
  <line x1="152" x2="164" y1="97" y2="97" class="net_2"/>
  <line x1="164" x2="164" y1="97" y2="197" class="net_2"/>
  <circle cx="164" cy="97" r="2" style="fill:#000" class="net_2"/>
  <line x1="164" x2="189" y1="197" y2="197" class="net_2"/>
  <line x1="152" x2="164" y1="97" y2="97" class="net_2"/>
  <line x1="164" x2="164" y1="97" y2="17" class="net_2"/>
  <line x1="164" x2="189" y1="17" y2="17" class="net_2"/>
  <line x1="82" x2="99" y1="179.5" y2="179.5" class="net_4"/>
  <line x1="99" x2="99" y1="179.5" y2="212" class="net_4"/>
  <circle cx="99" cy="179.5" r="2" style="fill:#000" class="net_4"/>
  <line x1="99" x2="189" y1="212" y2="212" class="net_4"/>
  <line x1="82" x2="99" y1="179.5" y2="179.5" class="net_4"/>
  <line x1="99" x2="99" y1="179.5" y2="32" class="net_4"/>
  <line x1="99" x2="124" y1="32" y2="32" class="net_4"/>
  <line x1="214" x2="259" y1="159.5" y2="159.5" class="net_10"/>
  <line x1="214" x2="229" y1="159.5" y2="159.5" class="net_10"/>
  <line x1="229" x2="229" y1="159.5" y2="39.5" class="net_10"/>
  <circle cx="229" cy="159.5" r="2" style="fill:#000" class="net_10"/>
  <line x1="229" x2="259" y1="39.5" y2="39.5" class="net_10"/>
  <line x1="149" x2="189" y1="32" y2="32" class="net_11"/>
  <line x1="219" x2="239" y1="24.5" y2="24.5" class="net_12"/>
  <line x1="239" x2="239" y1="24.5" y2="84.5" class="net_12"/>
  <circle cx="239" cy="24.5" r="2" style="fill:#000" class="net_12"/>
  <line x1="239" x2="259" y1="84.5" y2="84.5" class="net_12"/>
  <line x1="219" x2="259" y1="24.5" y2="24.5" class="net_12"/>
  <line x1="337" x2="372" y1="42" y2="42" class="net_5,6,7,8"/>
  <line x1="289" x2="331" y1="32" y2="32" class="net_5"/>
  <line x1="289" x2="299" y1="92" y2="92" class="net_6"/>
  <line x1="299" x2="299" y1="92" y2="52" class="net_6"/>
  <line x1="299" x2="331" y1="52" y2="52" class="net_6"/>
  <line x1="289" x2="309" y1="152" y2="152" class="net_7"/>
  <line x1="309" x2="309" y1="152" y2="72" class="net_7"/>
  <line x1="309" x2="331" y1="72" y2="72" class="net_7"/>
  <line x1="289" x2="331.5" y1="212" y2="212" class="net_8"/>
  <line x1="331.5" x2="331.5" y1="212" y2="92.5" class="net_8"/>
  <line x1="40" x2="77" y1="169.5" y2="169.5" class="net_3,4"/>
</svg>
