<svg style="background:white" xmlns="http://www.w3.org/2000/svg" xmlns:xlink="http://www.w3.org/1999/xlink" xmlns:s="https://github.com/nturley/netlistsvg" width="395" height="165">
  <style>svg {
    stroke:#000;
    fill:none;
  }
  text {
    fill:#000;
    stroke:none;
    font-size:10px;
    font-weight: bold;
    font-family: "Courier New", monospace;
  }
  .nodelabel {
    text-anchor: middle;
  }
  .inputPortLabel {
    text-anchor: end;
  }
  .splitjoinBody {
    fill:#000;
  }</style>
  <g s:type="not" transform="translate(124,22.5)" s:width="30" s:height="20" id="cell_$not$rtl/decoder_328.v:7$13">
    <s:alias val="$_NOT_"/>
    <s:alias val="$not"/>
    <s:alias val="$logic_not"/>
    <path d="M0,0 L0,20 L20,10 Z" class="cell_$not$rtl/decoder_328.v:7$13"/>
    <circle cx="23" cy="10" r="3" class="cell_$not$rtl/decoder_328.v:7$13"/>
    <g s:x="0" s:y="10" s:pid="A"/>
    <g s:x="25" s:y="10" s:pid="Y"/>
  </g>
  <g s:type="generic" transform="translate(202,110)" s:width="30" s:height="40" id="cell_uut0">
    <text x="15" y="-4" class="nodelabel cell_uut0" s:attribute="ref">decoder_224</text>
    <rect width="30" height="40" s:generic="body" class="cell_uut0"/>
    <g transform="translate(0,10)" s:x="0" s:y="10" s:pid="in0" id="port_uut0~en">
      <text x="-3" y="-4" class="inputPortLabel cell_uut0">en</text>
    </g>
    <g transform="translate(0,30)" s:x="0" s:y="10" s:pid="in0" id="port_uut0~in">
      <text x="-3" y="-4" class="inputPortLabel cell_uut0">in</text>
    </g>
    <g transform="translate(30,10)" s:x="30" s:y="10" s:pid="out0" id="port_uut0~code">
      <text x="5" y="-4" style="fill:#000; stroke:none" class="cell_uut0">code</text>
    </g>
  </g>
  <g s:type="generic" transform="translate(202,22)" s:width="30" s:height="40" id="cell_uut1">
    <text x="15" y="-4" class="nodelabel cell_uut1" s:attribute="ref">decoder_224</text>
    <rect width="30" height="40" s:generic="body" class="cell_uut1"/>
    <g transform="translate(0,10)" s:x="0" s:y="10" s:pid="in0" id="port_uut1~en">
      <text x="-3" y="-4" class="inputPortLabel cell_uut1">en</text>
    </g>
    <g transform="translate(0,30)" s:x="0" s:y="10" s:pid="in0" id="port_uut1~in">
      <text x="-3" y="-4" class="inputPortLabel cell_uut1">in</text>
    </g>
    <g transform="translate(30,10)" s:x="30" s:y="10" s:pid="out0" id="port_uut1~code">
      <text x="5" y="-4" style="fill:#000; stroke:none" class="cell_uut1">code</text>
    </g>
  </g>
  <g s:type="inputExt" transform="translate(12,32.5)" s:width="30" s:height="20" id="cell_in">
    <text x="15" y="-4" class="nodelabel cell_in" s:attribute="ref">in</text>
    <s:alias val="$_inputExt_"/>
    <path d="M0,0 L0,20 L15,20 L30,10 L15,0 Z" class="cell_in"/>
    <g s:x="28" s:y="10" s:pid="Y"/>
  </g>
  <g s:type="outputExt" transform="translate(353,32.5)" s:width="30" s:height="20" id="cell_code">
    <text x="15" y="-4" class="nodelabel cell_code" s:attribute="ref">code</text>
    <s:alias val="$_outputExt_"/>
    <path d="M30,0 L30,20 L15,20 L0,10 L15,0 Z" class="cell_code"/>
    <g s:x="0" s:y="10" s:pid="A"/>
  </g>
  <g s:type="join" transform="translate(312,22)" s:width="4" s:height="40" id="cell_$join$,5,6,7,8,9,10,11,12,">
    <rect width="5" height="40" class="splitjoinBody" s:generic="body"/>
    <s:alias val="$_join_"/>
    <g s:x="5" s:y="20" s:pid="out"/>
    <g transform="translate(0,10)" s:x="0" s:y="10" s:pid="in0">
      <text x="-3" y="-4" class="inputPortLabel">0:3</text>
    </g>
    <g transform="translate(0,30)" s:x="0" s:y="10" s:pid="in0">
      <text x="-3" y="-4" class="inputPortLabel">4:7</text>
    </g>
  </g>
  <g s:type="split" transform="translate(77,22)" s:width="5" s:height="40" id="cell_$split$,2,3,4,">
    <rect width="5" height="40" class="splitjoinBody" s:generic="body"/>
    <s:alias val="$_split_"/>
    <g s:x="0" s:y="20" s:pid="in"/>
    <g transform="translate(4,10)" s:x="4" s:y="10" s:pid="out0">
      <text x="5" y="-4">2</text>
    </g>
    <g transform="translate(4,30)" s:x="4" s:y="10" s:pid="out0">
      <text x="5" y="-4">0:1</text>
    </g>
  </g>
  <line x1="82" x2="124" y1="32.5" y2="32.5" class="net_4"/>
  <line x1="82" x2="109" y1="32.5" y2="32.5" class="net_4"/>
  <line x1="109" x2="109" y1="32.5" y2="120.5" class="net_4"/>
  <circle cx="109" cy="32.5" r="2" style="fill:#000" class="net_4"/>
  <line x1="109" x2="202" y1="120.5" y2="120.5" class="net_4"/>
  <line x1="82" x2="99" y1="52.5" y2="52.5" class="net_2,3"/>
  <line x1="99" x2="99" y1="52.5" y2="131.5" class="net_2,3"/>
  <line x1="99" x2="164" y1="131.5" y2="131.5" class="net_2,3"/>
  <line x1="164" x2="164" y1="131.5" y2="140.5" class="net_2,3"/>
  <circle cx="99" cy="52.5" r="2" style="fill:#000" class="net_2,3"/>
  <line x1="164" x2="202" y1="140.5" y2="140.5" class="net_2,3"/>
  <line x1="82" x2="202" y1="52.5" y2="52.5" class="net_2,3"/>
  <line x1="149" x2="202" y1="32.5" y2="32.5" class="net_13"/>
  <line x1="318" x2="353" y1="42.5" y2="42.5" class="net_5,6,7,8,9,10,11,12"/>
  <line x1="233" x2="312" y1="32.5" y2="32.5" class="net_5,6,7,8"/>
  <line x1="233" x2="268" y1="120.5" y2="120.5" class="net_9,10,11,12"/>
  <line x1="268" x2="268" y1="120.5" y2="52.5" class="net_9,10,11,12"/>
  <line x1="268" x2="312" y1="52.5" y2="52.5" class="net_9,10,11,12"/>
  <line x1="40" x2="77" y1="42.5" y2="42.5" class="net_2,3,4"/>
</svg>
