<svg style="background:white" xmlns="http://www.w3.org/2000/svg" xmlns:xlink="http://www.w3.org/1999/xlink" xmlns:s="https://github.com/nturley/netlistsvg" width="429" height="180">
  <style>svg {
    stroke:#000;
    fill:none;
  }
  text {
    fill:#000;
    stroke:none;
    font-size:10px;
    font-weight: bold;
    font-family: "Courier New", monospace;
  }
  .nodelabel {
    text-anchor: middle;
  }
  .inputPortLabel {
    text-anchor: end;
  }
  .splitjoinBody {
    fill:#000;
  }</style>
  <g s:type="and" transform="translate(257,70.5)" s:width="30" s:height="25" id="cell_$and$rtl/greater_than_2bit.v:5$2">
    <s:alias val="$and"/>
    <s:alias val="$logic_and"/>
    <s:alias val="$_AND_"/>
    <path d="M0,0 L0,25 L15,25 A15 12.5 0 0 0 15,0 Z" class="cell_$and$rtl/greater_than_2bit.v:5$2"/>
    <g s:x="0" s:y="5" s:pid="A"/>
    <g s:x="0" s:y="20" s:pid="B"/>
    <g s:x="30" s:y="12.5" s:pid="Y"/>
  </g>
  <g s:type="and" transform="translate(192,135.5)" s:width="30" s:height="25" id="cell_$and$rtl/greater_than_2bit.v:5$4">
    <s:alias val="$and"/>
    <s:alias val="$logic_and"/>
    <s:alias val="$_AND_"/>
    <path d="M0,0 L0,25 L15,25 A15 12.5 0 0 0 15,0 Z" class="cell_$and$rtl/greater_than_2bit.v:5$4"/>
    <g s:x="0" s:y="5" s:pid="A"/>
    <g s:x="0" s:y="20" s:pid="B"/>
    <g s:x="30" s:y="12.5" s:pid="Y"/>
  </g>
  <g s:type="and" transform="translate(257,143)" s:width="30" s:height="25" id="cell_$and$rtl/greater_than_2bit.v:5$7">
    <s:alias val="$and"/>
    <s:alias val="$logic_and"/>
    <s:alias val="$_AND_"/>
    <path d="M0,0 L0,25 L15,25 A15 12.5 0 0 0 15,0 Z" class="cell_$and$rtl/greater_than_2bit.v:5$7"/>
    <g s:x="0" s:y="5" s:pid="A"/>
    <g s:x="0" s:y="20" s:pid="B"/>
    <g s:x="30" s:y="12.5" s:pid="Y"/>
  </g>
  <g s:type="not" transform="translate(192,80.5)" s:width="30" s:height="20" id="cell_$not$rtl/greater_than_2bit.v:5$1">
    <s:alias val="$_NOT_"/>
    <s:alias val="$not"/>
    <s:alias val="$logic_not"/>
    <path d="M0,0 L0,20 L20,10 Z" class="cell_$not$rtl/greater_than_2bit.v:5$1"/>
    <circle cx="23" cy="10" r="3" class="cell_$not$rtl/greater_than_2bit.v:5$1"/>
    <g s:x="0" s:y="10" s:pid="A"/>
    <g s:x="25" s:y="10" s:pid="Y"/>
  </g>
  <g s:type="not" transform="translate(125.5,145.5)" s:width="30" s:height="20" id="cell_$not$rtl/greater_than_2bit.v:5$3">
    <s:alias val="$_NOT_"/>
    <s:alias val="$not"/>
    <s:alias val="$logic_not"/>
    <path d="M0,0 L0,20 L20,10 Z" class="cell_$not$rtl/greater_than_2bit.v:5$3"/>
    <circle cx="23" cy="10" r="3" class="cell_$not$rtl/greater_than_2bit.v:5$3"/>
    <g s:x="0" s:y="10" s:pid="A"/>
    <g s:x="25" s:y="10" s:pid="Y"/>
  </g>
  <g s:type="not" transform="translate(192,25.5)" s:width="30" s:height="20" id="cell_$not$rtl/greater_than_2bit.v:5$6">
    <s:alias val="$_NOT_"/>
    <s:alias val="$not"/>
    <s:alias val="$logic_not"/>
    <path d="M0,0 L0,20 L20,10 Z" class="cell_$not$rtl/greater_than_2bit.v:5$6"/>
    <circle cx="23" cy="10" r="3" class="cell_$not$rtl/greater_than_2bit.v:5$6"/>
    <g s:x="0" s:y="10" s:pid="A"/>
    <g s:x="25" s:y="10" s:pid="Y"/>
  </g>
  <g s:type="or" transform="translate(322,135.5)" s:width="30" s:height="25" id="cell_$or$rtl/greater_than_2bit.v:5$8">
    <s:alias val="$or"/>
    <s:alias val="$logic_or"/>
    <s:alias val="$_OR_"/>
    <path d="M0,25 L0,25 L15,25 A15 12.5 0 0 0 15,0 L0,0" class="cell_$or$rtl/greater_than_2bit.v:5$8"/>
    <path d="M0,0 A30 25 0 0 1 0,25" class="cell_$or$rtl/greater_than_2bit.v:5$8"/>
    <g s:x="3" s:y="5" s:pid="A"/>
    <g s:x="3" s:y="20" s:pid="B"/>
    <g s:x="30" s:y="12.5" s:pid="Y"/>
  </g>
  <g s:type="reduce_xor" transform="translate(124,23)" s:width="33" s:height="25" id="cell_$xor$rtl/greater_than_2bit.v:5$5">
    <s:alias val="$xor"/>
    <s:alias val="$reduce_xor"/>
    <s:alias val="$_XOR_"/>
    <path d="M3,0 A30 25 0 0 1 3,25 A30 25 0 0 0 33,12.5 A30 25 0 0 0 3,0" class="cell_$xor$rtl/greater_than_2bit.v:5$5"/>
    <path d="M0,0 A30 25 0 0 1 0,25" class="cell_$xor$rtl/greater_than_2bit.v:5$5"/>
    <g s:x="3" s:y="5" s:pid="A"/>
    <g s:x="3" s:y="20" s:pid="B"/>
    <g s:x="33" s:y="12.5" s:pid="Y"/>
  </g>
  <g s:type="inputExt" transform="translate(12,58.5)" s:width="30" s:height="20" id="cell_a">
    <text x="15" y="-4" class="nodelabel cell_a" s:attribute="ref">a</text>
    <s:alias val="$_inputExt_"/>
    <path d="M0,0 L0,20 L15,20 L30,10 L15,0 Z" class="cell_a"/>
    <g s:x="28" s:y="10" s:pid="Y"/>
  </g>
  <g s:type="inputExt" transform="translate(12,135.5)" s:width="30" s:height="20" id="cell_b">
    <text x="15" y="-4" class="nodelabel cell_b" s:attribute="ref">b</text>
    <s:alias val="$_inputExt_"/>
    <path d="M0,0 L0,20 L15,20 L30,10 L15,0 Z" class="cell_b"/>
    <g s:x="28" s:y="10" s:pid="Y"/>
  </g>
  <g s:type="outputExt" transform="translate(387,138)" s:width="30" s:height="20" id="cell_agb">
    <text x="15" y="-4" class="nodelabel cell_agb" s:attribute="ref">agb</text>
    <s:alias val="$_outputExt_"/>
    <path d="M30,0 L30,20 L15,20 L0,10 L15,0 Z" class="cell_agb"/>
    <g s:x="0" s:y="10" s:pid="A"/>
  </g>
  <g s:type="split" transform="translate(77,48)" s:width="5" s:height="40" id="cell_$split$,2,3,">
    <rect width="5" height="40" class="splitjoinBody" s:generic="body"/>
    <s:alias val="$_split_"/>
    <g s:x="0" s:y="20" s:pid="in"/>
    <g transform="translate(4,10)" s:x="4" s:y="10" s:pid="out0">
      <text x="5" y="-4">1</text>
    </g>
    <g transform="translate(4,30)" s:x="4" s:y="10" s:pid="out0">
      <text x="5" y="-4">0</text>
    </g>
  </g>
  <g s:type="split" transform="translate(77,125)" s:width="5" s:height="40" id="cell_$split$,4,5,">
    <rect width="5" height="40" class="splitjoinBody" s:generic="body"/>
    <s:alias val="$_split_"/>
    <g s:x="0" s:y="20" s:pid="in"/>
    <g transform="translate(4,10)" s:x="4" s:y="10" s:pid="out0">
      <text x="5" y="-4">1</text>
    </g>
    <g transform="translate(4,30)" s:x="4" s:y="10" s:pid="out0">
      <text x="5" y="-4">0</text>
    </g>
  </g>
  <line x1="82" x2="99" y1="58.5" y2="58.5" class="net_3"/>
  <line x1="99" x2="99" y1="58.5" y2="12" class="net_3"/>
  <line x1="99" x2="242" y1="12" y2="12" class="net_3"/>
  <line x1="242" x2="242" y1="12" y2="75.5" class="net_3"/>
  <line x1="242" x2="257" y1="75.5" y2="75.5" class="net_3"/>
  <line x1="82" x2="99" y1="58.5" y2="58.5" class="net_3"/>
  <line x1="99" x2="99" y1="58.5" y2="28" class="net_3"/>
  <circle cx="99" cy="28" r="2" style="fill:#000" class="net_3"/>
  <line x1="99" x2="127" y1="28" y2="28" class="net_3"/>
  <line x1="217" x2="257" y1="90.5" y2="90.5" class="net_7"/>
  <line x1="82" x2="167" y1="78.5" y2="78.5" class="net_2"/>
  <line x1="167" x2="167" y1="78.5" y2="140.5" class="net_2"/>
  <line x1="167" x2="192" y1="140.5" y2="140.5" class="net_2"/>
  <line x1="150.5" x2="192" y1="155.5" y2="155.5" class="net_9"/>
  <line x1="222" x2="257" y1="148" y2="148" class="net_10"/>
  <line x1="217" x2="232" y1="35.5" y2="35.5" class="net_11"/>
  <line x1="232" x2="232" y1="35.5" y2="163" class="net_11"/>
  <line x1="232" x2="257" y1="163" y2="163" class="net_11"/>
  <line x1="82" x2="109" y1="135.5" y2="135.5" class="net_5"/>
  <line x1="109" x2="109" y1="135.5" y2="90.5" class="net_5"/>
  <circle cx="109" cy="90.5" r="2" style="fill:#000" class="net_5"/>
  <line x1="109" x2="192" y1="90.5" y2="90.5" class="net_5"/>
  <line x1="82" x2="109" y1="135.5" y2="135.5" class="net_5"/>
  <line x1="109" x2="109" y1="135.5" y2="43" class="net_5"/>
  <line x1="109" x2="127" y1="43" y2="43" class="net_5"/>
  <line x1="82" x2="125.5" y1="155.5" y2="155.5" class="net_4"/>
  <line x1="157" x2="192" y1="35.5" y2="35.5" class="net_13"/>
  <line x1="287" x2="297" y1="83" y2="83" class="net_8"/>
  <line x1="297" x2="297" y1="83" y2="140.5" class="net_8"/>
  <line x1="297" x2="325" y1="140.5" y2="140.5" class="net_8"/>
  <line x1="287" x2="325" y1="155.5" y2="155.5" class="net_12"/>
  <line x1="352" x2="387" y1="148" y2="148" class="net_6"/>
  <line x1="40" x2="77" y1="68.5" y2="68.5" class="net_2,3"/>
  <line x1="40" x2="77" y1="145.5" y2="145.5" class="net_4,5"/>
</svg>
