<svg style="background:white" xmlns="http://www.w3.org/2000/svg" xmlns:xlink="http://www.w3.org/1999/xlink" xmlns:s="https://github.com/nturley/netlistsvg" width="474" height="216.5">
  <style>svg {
    stroke:#000;
    fill:none;
  }
  text {
    fill:#000;
    stroke:none;
    font-size:10px;
    font-weight: bold;
    font-family: "Courier New", monospace;
  }
  .nodelabel {
    text-anchor: middle;
  }
  .inputPortLabel {
    text-anchor: end;
  }
  .splitjoinBody {
    fill:#000;
  }</style>
  <g s:type="and" transform="translate(250.33333333333334,152)" s:width="30" s:height="25" id="cell_$and$rtl/greater_than.v:12$2">
    <s:alias val="$and"/>
    <s:alias val="$logic_and"/>
    <s:alias val="$_AND_"/>
    <path d="M0,0 L0,25 L15,25 A15 12.5 0 0 0 15,0 Z" class="cell_$and$rtl/greater_than.v:12$2"/>
    <g s:x="0" s:y="5" s:pid="A"/>
    <g s:x="0" s:y="20" s:pid="B"/>
    <g s:x="30" s:y="12.5" s:pid="Y"/>
  </g>
  <g s:type="or" transform="translate(331,144.5)" s:width="30" s:height="25" id="cell_$or$rtl/greater_than.v:12$3">
    <s:alias val="$or"/>
    <s:alias val="$logic_or"/>
    <s:alias val="$_OR_"/>
    <path d="M0,25 L0,25 L15,25 A15 12.5 0 0 0 15,0 L0,0" class="cell_$or$rtl/greater_than.v:12$3"/>
    <path d="M0,0 A30 25 0 0 1 0,25" class="cell_$or$rtl/greater_than.v:12$3"/>
    <g s:x="3" s:y="5" s:pid="A"/>
    <g s:x="3" s:y="20" s:pid="B"/>
    <g s:x="30" s:y="12.5" s:pid="Y"/>
  </g>
  <g s:type="generic" transform="translate(246,22)" s:width="30" s:height="40" id="cell_uut0">
    <text x="15" y="-4" class="nodelabel cell_uut0" s:attribute="ref">greater_than_2bit</text>
    <rect width="30" height="40" s:generic="body" class="cell_uut0"/>
    <g transform="translate(0,10)" s:x="0" s:y="10" s:pid="in0" id="port_uut0~a">
      <text x="-3" y="-4" class="inputPortLabel cell_uut0">a</text>
    </g>
    <g transform="translate(0,30)" s:x="0" s:y="10" s:pid="in0" id="port_uut0~b">
      <text x="-3" y="-4" class="inputPortLabel cell_uut0">b</text>
    </g>
    <g transform="translate(30,10)" s:x="30" s:y="10" s:pid="out0" id="port_uut0~agb">
      <text x="5" y="-4" style="fill:#000; stroke:none" class="cell_uut0">agb</text>
    </g>
  </g>
  <g s:type="generic" transform="translate(148,73.5)" s:width="30" s:height="40" id="cell_uut1">
    <text x="15" y="-4" class="nodelabel cell_uut1" s:attribute="ref">equality_2bit</text>
    <rect width="30" height="40" s:generic="body" class="cell_uut1"/>
    <g transform="translate(0,10)" s:x="0" s:y="10" s:pid="in0" id="port_uut1~a">
      <text x="-3" y="-4" class="inputPortLabel cell_uut1">a</text>
    </g>
    <g transform="translate(0,30)" s:x="0" s:y="10" s:pid="in0" id="port_uut1~b">
      <text x="-3" y="-4" class="inputPortLabel cell_uut1">b</text>
    </g>
    <g transform="translate(30,10)" s:x="30" s:y="10" s:pid="out0" id="port_uut1~aeqb">
      <text x="5" y="-4" style="fill:#000; stroke:none" class="cell_uut1">aeqb</text>
    </g>
  </g>
  <g s:type="generic" transform="translate(154,161.5)" s:width="30" s:height="40" id="cell_uut2">
    <text x="15" y="-4" class="nodelabel cell_uut2" s:attribute="ref">greater_than_2bit</text>
    <rect width="30" height="40" s:generic="body" class="cell_uut2"/>
    <g transform="translate(0,10)" s:x="0" s:y="10" s:pid="in0" id="port_uut2~a">
      <text x="-3" y="-4" class="inputPortLabel cell_uut2">a</text>
    </g>
    <g transform="translate(0,30)" s:x="0" s:y="10" s:pid="in0" id="port_uut2~b">
      <text x="-3" y="-4" class="inputPortLabel cell_uut2">b</text>
    </g>
    <g transform="translate(30,10)" s:x="30" s:y="10" s:pid="out0" id="port_uut2~agb">
      <text x="5" y="-4" style="fill:#000; stroke:none" class="cell_uut2">agb</text>
    </g>
  </g>
  <g s:type="inputExt" transform="translate(12,84)" s:width="30" s:height="20" id="cell_a">
    <text x="15" y="-4" class="nodelabel cell_a" s:attribute="ref">a</text>
    <s:alias val="$_inputExt_"/>
    <path d="M0,0 L0,20 L15,20 L30,10 L15,0 Z" class="cell_a"/>
    <g s:x="28" s:y="10" s:pid="Y"/>
  </g>
  <g s:type="inputExt" transform="translate(12,172)" s:width="30" s:height="20" id="cell_b">
    <text x="15" y="-4" class="nodelabel cell_b" s:attribute="ref">b</text>
    <s:alias val="$_inputExt_"/>
    <path d="M0,0 L0,20 L15,20 L30,10 L15,0 Z" class="cell_b"/>
    <g s:x="28" s:y="10" s:pid="Y"/>
  </g>
  <g s:type="outputExt" transform="translate(396,147)" s:width="30" s:height="20" id="cell_a_greater_b">
    <text x="15" y="-4" class="nodelabel cell_a_greater_b" s:attribute="ref">a_greater_b</text>
    <s:alias val="$_outputExt_"/>
    <path d="M30,0 L30,20 L15,20 L0,10 L15,0 Z" class="cell_a_greater_b"/>
    <g s:x="0" s:y="10" s:pid="A"/>
  </g>
  <g s:type="split" transform="translate(77,73.5)" s:width="5" s:height="40" id="cell_$split$,2,3,4,5,">
    <rect width="5" height="40" class="splitjoinBody" s:generic="body"/>
    <s:alias val="$_split_"/>
    <g s:x="0" s:y="20" s:pid="in"/>
    <g transform="translate(4,10)" s:x="4" s:y="10" s:pid="out0">
      <text x="5" y="-4">2:3</text>
    </g>
    <g transform="translate(4,30)" s:x="4" s:y="10" s:pid="out0">
      <text x="5" y="-4">0:1</text>
    </g>
  </g>
  <g s:type="split" transform="translate(77,161.5)" s:width="5" s:height="40" id="cell_$split$,6,7,8,9,">
    <rect width="5" height="40" class="splitjoinBody" s:generic="body"/>
    <s:alias val="$_split_"/>
    <g s:x="0" s:y="20" s:pid="in"/>
    <g transform="translate(4,10)" s:x="4" s:y="10" s:pid="out0">
      <text x="5" y="-4">2:3</text>
    </g>
    <g transform="translate(4,30)" s:x="4" s:y="10" s:pid="out0">
      <text x="5" y="-4">0:1</text>
    </g>
  </g>
  <line x1="179" x2="214" y1="84" y2="84" class="net_11"/>
  <line x1="214" x2="214" y1="84" y2="157" class="net_11"/>
  <line x1="214" x2="250.33333333333334" y1="157" y2="157" class="net_11"/>
  <line x1="185" x2="250.33333333333334" y1="172" y2="172" class="net_12"/>
  <line x1="277" x2="306" y1="32.5" y2="32.5" class="net_14"/>
  <line x1="306" x2="306" y1="32.5" y2="149.5" class="net_14"/>
  <line x1="306" x2="334" y1="149.5" y2="149.5" class="net_14"/>
  <line x1="280.33333333333337" x2="334" y1="164.5" y2="164.5" class="net_13"/>
  <line x1="82" x2="111" y1="84" y2="84" class="net_4,5"/>
  <line x1="111" x2="111" y1="84" y2="41.5" class="net_4,5"/>
  <line x1="111" x2="214" y1="41.5" y2="41.5" class="net_4,5"/>
  <line x1="214" x2="214" y1="41.5" y2="32.5" class="net_4,5"/>
  <circle cx="111" cy="84" r="2" style="fill:#000" class="net_4,5"/>
  <line x1="214" x2="246" y1="32.5" y2="32.5" class="net_4,5"/>
  <line x1="82" x2="148" y1="84" y2="84" class="net_4,5"/>
  <line x1="82" x2="121" y1="172" y2="172" class="net_8,9"/>
  <line x1="121" x2="121" y1="172" y2="52.5" class="net_8,9"/>
  <line x1="121" x2="246" y1="52.5" y2="52.5" class="net_8,9"/>
  <line x1="82" x2="121" y1="172" y2="172" class="net_8,9"/>
  <line x1="121" x2="121" y1="172" y2="104" class="net_8,9"/>
  <circle cx="121" cy="104" r="2" style="fill:#000" class="net_8,9"/>
  <line x1="121" x2="148" y1="104" y2="104" class="net_8,9"/>
  <line x1="82" x2="131" y1="104" y2="104" class="net_2,3"/>
  <line x1="131" x2="131" y1="104" y2="172" class="net_2,3"/>
  <line x1="131" x2="154" y1="172" y2="172" class="net_2,3"/>
  <line x1="82" x2="154" y1="192" y2="192" class="net_6,7"/>
  <line x1="361" x2="396" y1="157" y2="157" class="net_10"/>
  <line x1="40" x2="77" y1="94" y2="94" class="net_2,3,4,5"/>
  <line x1="40" x2="77" y1="182" y2="182" class="net_6,7,8,9"/>
</svg>
