<svg style="background:white" xmlns="http://www.w3.org/2000/svg" xmlns:xlink="http://www.w3.org/1999/xlink" xmlns:s="https://github.com/nturley/netlistsvg" width="419" height="315">
  <style>svg {
    stroke:#000;
    fill:none;
  }
  text {
    fill:#000;
    stroke:none;
    font-size:10px;
    font-weight: bold;
    font-family: "Courier New", monospace;
  }
  .nodelabel {
    text-anchor: middle;
  }
  .inputPortLabel {
    text-anchor: end;
  }
  .splitjoinBody {
    fill:#000;
  }</style>
  <g s:type="add" transform="translate(210.33333333333334,22)" s:width="25" s:height="25" id="cell_$add$rtl/pwm.v:11$2">
    <s:alias val="$add"/>
    <circle r="12.5" cx="12.5" cy="12.5" class="cell_$add$rtl/pwm.v:11$2"/>
    <line x1="7.5" x2="17.5" y1="12.5" y2="12.5" class="cell_$add$rtl/pwm.v:11$2"/>
    <line x1="12.5" x2="12.5" y1="7.5" y2="17.5" class="cell_$add$rtl/pwm.v:11$2"/>
    <g s:x="3" s:y="5" s:pid="A"/>
    <g s:x="3" s:y="20" s:pid="B"/>
    <g s:x="25" s:y="12.5" s:pid="Y"/>
  </g>
  <g s:type="lt" transform="translate(80.33333333333333,222)" s:width="25" s:height="25" id="cell_$lt$rtl/pwm.v:12$3">
    <s:alias val="$lt"/>
    <circle r="12.5" cx="12.5" cy="12.5" class="cell_$lt$rtl/pwm.v:12$3"/>
    <line x1="7.5" x2="17.5" y1="12.5" y2="7.5" class="cell_$lt$rtl/pwm.v:12$3"/>
    <line x1="7.5" x2="17.5" y1="12.5" y2="17.5" class="cell_$lt$rtl/pwm.v:12$3"/>
    <g s:x="3" s:y="5" s:pid="A"/>
    <g s:x="3" s:y="20" s:pid="B"/>
    <g s:x="25" s:y="12.5" s:pid="Y"/>
  </g>
  <g s:type="dff" transform="translate(272,187)" s:width="30" s:height="40" id="cell_$procdff$22">
    <s:alias val="$dff"/>
    <s:alias val="$_DFF_"/>
    <s:alias val="$_DFF_P_"/>
    <rect width="30" height="40" x="0" y="0" class="cell_$procdff$22"/>
    <path d="M0,35 L5,30 L0,25" class="cell_$procdff$22"/>
    <g s:x="30" s:y="10" s:pid="Q"/>
    <g s:x="0" s:y="30" s:pid="CLK"/>
    <g s:x="0" s:y="30" s:pid="C"/>
    <g s:x="0" s:y="10" s:pid="D"/>
  </g>
  <g s:type="dff" transform="translate(337,242)" s:width="30" s:height="40" id="cell_$procdff$23">
    <s:alias val="$dff"/>
    <s:alias val="$_DFF_"/>
    <s:alias val="$_DFF_P_"/>
    <rect width="30" height="40" x="0" y="0" class="cell_$procdff$23"/>
    <path d="M0,35 L5,30 L0,25" class="cell_$procdff$23"/>
    <g s:x="30" s:y="10" s:pid="Q"/>
    <g s:x="0" s:y="30" s:pid="CLK"/>
    <g s:x="0" s:y="30" s:pid="C"/>
    <g s:x="0" s:y="10" s:pid="D"/>
  </g>
  <g s:type="mux" transform="translate(275.3333333333333,24.5)" s:width="20" s:height="40" id="cell_$procmux$17">
    <s:alias val="$pmux"/>
    <s:alias val="$mux"/>
    <s:alias val="$_MUX_"/>
    <path d="M0,0 L20,10 L20,30 L0,40 Z" class="cell_$procmux$17"/>
    <g s:x="0" s:y="10" s:pid="A"/>
    <g s:x="0" s:y="30" s:pid="B"/>
    <g s:x="10" s:y="35" s:pid="S"/>
    <g s:x="20" s:y="20" s:pid="Y"/>
  </g>
  <g s:type="mux" transform="translate(213.66666666666666,177)" s:width="20" s:height="40" id="cell_$procmux$20">
    <s:alias val="$pmux"/>
    <s:alias val="$mux"/>
    <s:alias val="$_MUX_"/>
    <path d="M0,0 L20,10 L20,30 L0,40 Z" class="cell_$procmux$20"/>
    <g s:x="0" s:y="10" s:pid="A"/>
    <g s:x="0" s:y="30" s:pid="B"/>
    <g s:x="10" s:y="35" s:pid="S"/>
    <g s:x="20" s:y="20" s:pid="Y"/>
  </g>
  <g s:type="mux" transform="translate(145.33333333333334,167)" s:width="20" s:height="40" id="cell_$ternary$rtl/pwm.v:12$4">
    <s:alias val="$pmux"/>
    <s:alias val="$mux"/>
    <s:alias val="$_MUX_"/>
    <path d="M0,0 L20,10 L20,30 L0,40 Z" class="cell_$ternary$rtl/pwm.v:12$4"/>
    <g s:x="0" s:y="10" s:pid="A"/>
    <g s:x="0" s:y="30" s:pid="B"/>
    <g s:x="10" s:y="35" s:pid="S"/>
    <g s:x="20" s:y="20" s:pid="Y"/>
  </g>
  <g s:type="inputExt" transform="translate(207,262)" s:width="30" s:height="20" id="cell_clk">
    <text x="15" y="-4" class="nodelabel cell_clk" s:attribute="ref">clk</text>
    <s:alias val="$_inputExt_"/>
    <path d="M0,0 L0,20 L15,20 L30,10 L15,0 Z" class="cell_clk"/>
    <g s:x="28" s:y="10" s:pid="Y"/>
  </g>
  <g s:type="inputExt" transform="translate(142,112)" s:width="30" s:height="20" id="cell_reset">
    <text x="15" y="-4" class="nodelabel cell_reset" s:attribute="ref">reset</text>
    <s:alias val="$_inputExt_"/>
    <path d="M0,0 L0,20 L15,20 L30,10 L15,0 Z" class="cell_reset"/>
    <g s:x="28" s:y="10" s:pid="Y"/>
  </g>
  <g s:type="inputExt" transform="translate(12,232)" s:width="30" s:height="20" id="cell_w">
    <text x="15" y="-4" class="nodelabel cell_w" s:attribute="ref">w</text>
    <s:alias val="$_inputExt_"/>
    <path d="M0,0 L0,20 L15,20 L30,10 L15,0 Z" class="cell_w"/>
    <g s:x="28" s:y="10" s:pid="Y"/>
  </g>
  <g s:type="outputExt" transform="translate(337,187)" s:width="30" s:height="20" id="cell_pwm_signal">
    <text x="15" y="-4" class="nodelabel cell_pwm_signal" s:attribute="ref">pwm_signal</text>
    <s:alias val="$_outputExt_"/>
    <path d="M30,0 L30,20 L15,20 L0,10 L15,0 Z" class="cell_pwm_signal"/>
    <g s:x="0" s:y="10" s:pid="A"/>
  </g>
  <g s:type="constant" transform="translate(77,32)" s:width="30" s:height="20" id="cell_1">
    <text x="15" y="-4" class="nodelabel cell_1" s:attribute="ref">1</text>
    <s:alias val="$_constant_"/>
    <rect width="30" height="20" class="cell_1"/>
    <g s:x="30" s:y="10" s:pid="Y"/>
  </g>
  <g s:type="constant" transform="translate(207,92)" s:width="30" s:height="20" id="cell_0000">
    <text x="15" y="-4" class="nodelabel cell_0000" s:attribute="ref">0x0</text>
    <s:alias val="$_constant_"/>
    <rect width="30" height="20" class="cell_0000"/>
    <g s:x="30" s:y="10" s:pid="Y"/>
  </g>
  <g s:type="constant" transform="translate(77,167)" s:width="30" s:height="20" id="cell_0">
    <text x="15" y="-4" class="nodelabel cell_0" s:attribute="ref">0</text>
    <s:alias val="$_constant_"/>
    <rect width="30" height="20" class="cell_0"/>
    <g s:x="30" s:y="10" s:pid="Y"/>
  </g>
  <line x1="367" x2="407" y1="252" y2="252" class="net_9,10,11,12"/>
  <line x1="407" x2="407" y1="252" y2="12" class="net_9,10,11,12"/>
  <line x1="407" x2="192" y1="12" y2="12" class="net_9,10,11,12"/>
  <line x1="192" x2="192" y1="12" y2="27" class="net_9,10,11,12"/>
  <circle cx="407" cy="252" r="2" style="fill:#000" class="net_9,10,11,12"/>
  <line x1="192" x2="213.33333333333334" y1="27" y2="27" class="net_9,10,11,12"/>
  <line x1="367" x2="407" y1="252" y2="252" class="net_9,10,11,12"/>
  <line x1="407" x2="407" y1="252" y2="302" class="net_9,10,11,12"/>
  <line x1="407" x2="52" y1="302" y2="302" class="net_9,10,11,12"/>
  <line x1="52" x2="52" y1="302" y2="227" class="net_9,10,11,12"/>
  <line x1="52" x2="83.33333333333333" y1="227" y2="227" class="net_9,10,11,12"/>
  <line x1="107" x2="213.33333333333334" y1="42" y2="42" class="net_24"/>
  <line x1="107" x2="117" y1="42" y2="42" class="net_24"/>
  <line x1="117" x2="117" y1="42" y2="197" class="net_24"/>
  <circle cx="117" cy="42" r="2" style="fill:#000" class="net_24"/>
  <line x1="117" x2="145.33333333333334" y1="197" y2="197" class="net_24"/>
  <line x1="40" x2="83.33333333333333" y1="242" y2="242" class="net_4,5,6,7"/>
  <line x1="235" x2="247" y1="272" y2="272" class="net_2"/>
  <line x1="247" x2="247" y1="272" y2="217" class="net_2"/>
  <circle cx="247" cy="272" r="2" style="fill:#000" class="net_2"/>
  <line x1="247" x2="272" y1="217" y2="217" class="net_2"/>
  <line x1="235" x2="337" y1="272" y2="272" class="net_2"/>
  <line x1="233.66666666666666" x2="272" y1="197" y2="197" class="net_18"/>
  <line x1="295.3333333333333" x2="322" y1="44.5" y2="44.5" class="net_19,20,21,22"/>
  <line x1="322" x2="322" y1="44.5" y2="252" class="net_19,20,21,22"/>
  <line x1="322" x2="337" y1="252" y2="252" class="net_19,20,21,22"/>
  <line x1="235.33333333333334" x2="275.3333333333333" y1="34.5" y2="34.5" class="net_13,14,15,16"/>
  <line x1="237" x2="247" y1="102" y2="102" class="net_25,26,27,28"/>
  <line x1="247" x2="247" y1="102" y2="54.5" class="net_25,26,27,28"/>
  <line x1="247" x2="275.3333333333333" y1="54.5" y2="54.5" class="net_25,26,27,28"/>
  <line x1="170" x2="285.3333333333333" y1="122" y2="122" class="net_3"/>
  <line x1="285.3333333333333" x2="285.3333333333333" y1="122" y2="59.5" class="net_3"/>
  <line x1="170" x2="192" y1="122" y2="122" class="net_3"/>
  <line x1="192" x2="192" y1="122" y2="227" class="net_3"/>
  <line x1="192" x2="223.66666666666666" y1="227" y2="227" class="net_3"/>
  <circle cx="192" cy="122" r="2" style="fill:#000" class="net_3"/>
  <line x1="223.66666666666666" x2="223.66666666666666" y1="227" y2="212" class="net_3"/>
  <line x1="165.33333333333334" x2="213.66666666666666" y1="187" y2="187" class="net_23"/>
  <line x1="302" x2="312" y1="197" y2="197" class="net_8"/>
  <line x1="312" x2="312" y1="197" y2="292" class="net_8"/>
  <line x1="312" x2="182" y1="292" y2="292" class="net_8"/>
  <line x1="182" x2="182" y1="292" y2="207" class="net_8"/>
  <circle cx="312" cy="197" r="2" style="fill:#000" class="net_8"/>
  <line x1="182" x2="213.66666666666666" y1="207" y2="207" class="net_8"/>
  <line x1="302" x2="337" y1="197" y2="197" class="net_8"/>
  <line x1="107" x2="145.33333333333334" y1="177" y2="177" class="net_29"/>
  <line x1="105.33333333333333" x2="155.33333333333334" y1="234.5" y2="234.5" class="net_17"/>
  <line x1="155.33333333333334" x2="155.33333333333334" y1="234.5" y2="202" class="net_17"/>
</svg>
