<svg style="background:white" xmlns="http://www.w3.org/2000/svg" xmlns:xlink="http://www.w3.org/1999/xlink" xmlns:s="https://github.com/nturley/netlistsvg" width="780" height="714.5">
  <style>svg {
    stroke:#000;
    fill:none;
  }
  text {
    fill:#000;
    stroke:none;
    font-size:10px;
    font-weight: bold;
    font-family: "Courier New", monospace;
  }
  .nodelabel {
    text-anchor: middle;
  }
  .inputPortLabel {
    text-anchor: end;
  }
  .splitjoinBody {
    fill:#000;
  }</style>
  <g s:type="add" transform="translate(500.3333333333333,622.5)" s:width="25" s:height="25" id="cell_$add$rtl/square_wave_generator.v:24$3">
    <s:alias val="$add"/>
    <circle r="12.5" cx="12.5" cy="12.5" class="cell_$add$rtl/square_wave_generator.v:24$3"/>
    <line x1="7.5" x2="17.5" y1="12.5" y2="12.5" class="cell_$add$rtl/square_wave_generator.v:24$3"/>
    <line x1="12.5" x2="12.5" y1="7.5" y2="17.5" class="cell_$add$rtl/square_wave_generator.v:24$3"/>
    <g s:x="3" s:y="5" s:pid="A"/>
    <g s:x="3" s:y="20" s:pid="B"/>
    <g s:x="25" s:y="12.5" s:pid="Y"/>
  </g>
  <g s:type="add" transform="translate(365.3333333333333,273.5)" s:width="25" s:height="25" id="cell_$add$rtl/square_wave_generator.v:45$9">
    <s:alias val="$add"/>
    <circle r="12.5" cx="12.5" cy="12.5" class="cell_$add$rtl/square_wave_generator.v:45$9"/>
    <line x1="7.5" x2="17.5" y1="12.5" y2="12.5" class="cell_$add$rtl/square_wave_generator.v:45$9"/>
    <line x1="12.5" x2="12.5" y1="7.5" y2="17.5" class="cell_$add$rtl/square_wave_generator.v:45$9"/>
    <g s:x="3" s:y="5" s:pid="A"/>
    <g s:x="3" s:y="20" s:pid="B"/>
    <g s:x="25" s:y="12.5" s:pid="Y"/>
  </g>
  <g s:type="eq" transform="translate(222,304.5)" s:width="25" s:height="25" id="cell_$eq$rtl/square_wave_generator.v:18$1">
    <s:alias val="$eq"/>
    <circle r="12.5" cx="12.5" cy="12.5" class="cell_$eq$rtl/square_wave_generator.v:18$1"/>
    <line x1="7.5" x2="17.5" y1="10" y2="10" class="cell_$eq$rtl/square_wave_generator.v:18$1"/>
    <line x1="7.5" x2="17.5" y1="15" y2="15" class="cell_$eq$rtl/square_wave_generator.v:18$1"/>
    <g s:x="3" s:y="5" s:pid="A"/>
    <g s:x="3" s:y="20" s:pid="B"/>
    <g s:x="25" s:y="12.5" s:pid="Y"/>
  </g>
  <g s:type="lt" transform="translate(80.33333333333333,87)" s:width="25" s:height="25" id="cell_$lt$rtl/square_wave_generator.v:37$6">
    <s:alias val="$lt"/>
    <circle r="12.5" cx="12.5" cy="12.5" class="cell_$lt$rtl/square_wave_generator.v:37$6"/>
    <line x1="7.5" x2="17.5" y1="12.5" y2="7.5" class="cell_$lt$rtl/square_wave_generator.v:37$6"/>
    <line x1="7.5" x2="17.5" y1="12.5" y2="17.5" class="cell_$lt$rtl/square_wave_generator.v:37$6"/>
    <g s:x="3" s:y="5" s:pid="A"/>
    <g s:x="3" s:y="20" s:pid="B"/>
    <g s:x="25" s:y="12.5" s:pid="Y"/>
  </g>
  <g s:type="lt" transform="translate(80.33333333333333,22)" s:width="25" s:height="25" id="cell_$lt$rtl/square_wave_generator.v:44$8">
    <s:alias val="$lt"/>
    <circle r="12.5" cx="12.5" cy="12.5" class="cell_$lt$rtl/square_wave_generator.v:44$8"/>
    <line x1="7.5" x2="17.5" y1="12.5" y2="7.5" class="cell_$lt$rtl/square_wave_generator.v:44$8"/>
    <line x1="7.5" x2="17.5" y1="12.5" y2="17.5" class="cell_$lt$rtl/square_wave_generator.v:44$8"/>
    <g s:x="3" s:y="5" s:pid="A"/>
    <g s:x="3" s:y="20" s:pid="B"/>
    <g s:x="25" s:y="12.5" s:pid="Y"/>
  </g>
  <g s:type="dff" transform="translate(617,389.5)" s:width="30" s:height="40" id="cell_$procdff$44">
    <s:alias val="$dff"/>
    <s:alias val="$_DFF_"/>
    <s:alias val="$_DFF_P_"/>
    <rect width="30" height="40" x="0" y="0" class="cell_$procdff$44"/>
    <path d="M0,35 L5,30 L0,25" class="cell_$procdff$44"/>
    <g s:x="30" s:y="10" s:pid="Q"/>
    <g s:x="0" s:y="30" s:pid="CLK"/>
    <g s:x="0" s:y="30" s:pid="C"/>
    <g s:x="0" s:y="10" s:pid="D"/>
  </g>
  <g s:type="dff" transform="translate(682,140.5)" s:width="30" s:height="40" id="cell_$procdff$45">
    <s:alias val="$dff"/>
    <s:alias val="$_DFF_"/>
    <s:alias val="$_DFF_P_"/>
    <rect width="30" height="40" x="0" y="0" class="cell_$procdff$45"/>
    <path d="M0,35 L5,30 L0,25" class="cell_$procdff$45"/>
    <g s:x="30" s:y="10" s:pid="Q"/>
    <g s:x="0" s:y="30" s:pid="CLK"/>
    <g s:x="0" s:y="30" s:pid="C"/>
    <g s:x="0" s:y="10" s:pid="D"/>
  </g>
  <g s:type="dff" transform="translate(432,389.5)" s:width="30" s:height="40" id="cell_$procdff$46">
    <s:alias val="$dff"/>
    <s:alias val="$_DFF_"/>
    <s:alias val="$_DFF_P_"/>
    <rect width="30" height="40" x="0" y="0" class="cell_$procdff$46"/>
    <path d="M0,35 L5,30 L0,25" class="cell_$procdff$46"/>
    <g s:x="30" s:y="10" s:pid="Q"/>
    <g s:x="0" s:y="30" s:pid="CLK"/>
    <g s:x="0" s:y="30" s:pid="C"/>
    <g s:x="0" s:y="10" s:pid="D"/>
  </g>
  <g s:type="dff" transform="translate(682,581.5)" s:width="30" s:height="40" id="cell_$procdff$47">
    <s:alias val="$dff"/>
    <s:alias val="$_DFF_"/>
    <s:alias val="$_DFF_P_"/>
    <rect width="30" height="40" x="0" y="0" class="cell_$procdff$47"/>
    <path d="M0,35 L5,30 L0,25" class="cell_$procdff$47"/>
    <g s:x="30" s:y="10" s:pid="Q"/>
    <g s:x="0" s:y="30" s:pid="CLK"/>
    <g s:x="0" s:y="30" s:pid="C"/>
    <g s:x="0" s:y="10" s:pid="D"/>
  </g>
  <g s:type="mux" transform="translate(160.33333333333334,429.5)" s:width="20" s:height="40" id="cell_$procmux$11">
    <s:alias val="$pmux"/>
    <s:alias val="$mux"/>
    <s:alias val="$_MUX_"/>
    <path d="M0,0 L20,10 L20,30 L0,40 Z" class="cell_$procmux$11"/>
    <g s:x="0" s:y="10" s:pid="A"/>
    <g s:x="0" s:y="30" s:pid="B"/>
    <g s:x="10" s:y="35" s:pid="S"/>
    <g s:x="20" s:y="20" s:pid="Y"/>
  </g>
  <g s:type="mux" transform="translate(160.33333333333334,369.5)" s:width="20" s:height="40" id="cell_$procmux$15">
    <s:alias val="$pmux"/>
    <s:alias val="$mux"/>
    <s:alias val="$_MUX_"/>
    <path d="M0,0 L20,10 L20,30 L0,40 Z" class="cell_$procmux$15"/>
    <g s:x="0" s:y="10" s:pid="A"/>
    <g s:x="0" s:y="30" s:pid="B"/>
    <g s:x="10" s:y="35" s:pid="S"/>
    <g s:x="20" s:y="20" s:pid="Y"/>
  </g>
  <g s:type="mux" transform="translate(223.66666666666666,379.5)" s:width="20" s:height="40" id="cell_$procmux$17">
    <s:alias val="$pmux"/>
    <s:alias val="$mux"/>
    <s:alias val="$_MUX_"/>
    <path d="M0,0 L20,10 L20,30 L0,40 Z" class="cell_$procmux$17"/>
    <g s:x="0" s:y="10" s:pid="A"/>
    <g s:x="0" s:y="30" s:pid="B"/>
    <g s:x="10" s:y="35" s:pid="S"/>
    <g s:x="20" s:y="20" s:pid="Y"/>
  </g>
  <g s:type="mux" transform="translate(288.6666666666667,369.5)" s:width="20" s:height="40" id="cell_$procmux$19">
    <s:alias val="$pmux"/>
    <s:alias val="$mux"/>
    <s:alias val="$_MUX_"/>
    <path d="M0,0 L20,10 L20,30 L0,40 Z" class="cell_$procmux$19"/>
    <g s:x="0" s:y="10" s:pid="A"/>
    <g s:x="0" s:y="30" s:pid="B"/>
    <g s:x="10" s:y="35" s:pid="S"/>
    <g s:x="20" s:y="20" s:pid="Y"/>
  </g>
  <g s:type="mux" transform="translate(365.3333333333333,379.5)" s:width="20" s:height="40" id="cell_$procmux$22">
    <s:alias val="$pmux"/>
    <s:alias val="$mux"/>
    <s:alias val="$_MUX_"/>
    <path d="M0,0 L20,10 L20,30 L0,40 Z" class="cell_$procmux$22"/>
    <g s:x="0" s:y="10" s:pid="A"/>
    <g s:x="0" s:y="30" s:pid="B"/>
    <g s:x="10" s:y="35" s:pid="S"/>
    <g s:x="20" s:y="20" s:pid="Y"/>
  </g>
  <g s:type="mux" transform="translate(435.3333333333333,180.5)" s:width="20" s:height="40" id="cell_$procmux$25">
    <s:alias val="$pmux"/>
    <s:alias val="$mux"/>
    <s:alias val="$_MUX_"/>
    <path d="M0,0 L20,10 L20,30 L0,40 Z" class="cell_$procmux$25"/>
    <g s:x="0" s:y="10" s:pid="A"/>
    <g s:x="0" s:y="30" s:pid="B"/>
    <g s:x="10" s:y="35" s:pid="S"/>
    <g s:x="20" s:y="20" s:pid="Y"/>
  </g>
  <g s:type="mux" transform="translate(435.3333333333333,120.5)" s:width="20" s:height="40" id="cell_$procmux$29">
    <s:alias val="$pmux"/>
    <s:alias val="$mux"/>
    <s:alias val="$_MUX_"/>
    <path d="M0,0 L20,10 L20,30 L0,40 Z" class="cell_$procmux$29"/>
    <g s:x="0" s:y="10" s:pid="A"/>
    <g s:x="0" s:y="30" s:pid="B"/>
    <g s:x="10" s:y="35" s:pid="S"/>
    <g s:x="20" s:y="20" s:pid="Y"/>
  </g>
  <g s:type="mux" transform="translate(500.3333333333333,130.5)" s:width="20" s:height="40" id="cell_$procmux$31">
    <s:alias val="$pmux"/>
    <s:alias val="$mux"/>
    <s:alias val="$_MUX_"/>
    <path d="M0,0 L20,10 L20,30 L0,40 Z" class="cell_$procmux$31"/>
    <g s:x="0" s:y="10" s:pid="A"/>
    <g s:x="0" s:y="30" s:pid="B"/>
    <g s:x="10" s:y="35" s:pid="S"/>
    <g s:x="20" s:y="20" s:pid="Y"/>
  </g>
  <g s:type="mux" transform="translate(562,120.5)" s:width="20" s:height="40" id="cell_$procmux$33">
    <s:alias val="$pmux"/>
    <s:alias val="$mux"/>
    <s:alias val="$_MUX_"/>
    <path d="M0,0 L20,10 L20,30 L0,40 Z" class="cell_$procmux$33"/>
    <g s:x="0" s:y="10" s:pid="A"/>
    <g s:x="0" s:y="30" s:pid="B"/>
    <g s:x="10" s:y="35" s:pid="S"/>
    <g s:x="20" s:y="20" s:pid="Y"/>
  </g>
  <g s:type="mux" transform="translate(620.3333333333334,130.5)" s:width="20" s:height="40" id="cell_$procmux$36">
    <s:alias val="$pmux"/>
    <s:alias val="$mux"/>
    <s:alias val="$_MUX_"/>
    <path d="M0,0 L20,10 L20,30 L0,40 Z" class="cell_$procmux$36"/>
    <g s:x="0" s:y="10" s:pid="A"/>
    <g s:x="0" s:y="30" s:pid="B"/>
    <g s:x="10" s:y="35" s:pid="S"/>
    <g s:x="20" s:y="20" s:pid="Y"/>
  </g>
  <g s:type="mux" transform="translate(562,561.5)" s:width="20" s:height="40" id="cell_$procmux$39">
    <s:alias val="$pmux"/>
    <s:alias val="$mux"/>
    <s:alias val="$_MUX_"/>
    <path d="M0,0 L20,10 L20,30 L0,40 Z" class="cell_$procmux$39"/>
    <g s:x="0" s:y="10" s:pid="A"/>
    <g s:x="0" s:y="30" s:pid="B"/>
    <g s:x="10" s:y="35" s:pid="S"/>
    <g s:x="20" s:y="20" s:pid="Y"/>
  </g>
  <g s:type="mux" transform="translate(620.3333333333334,571.5)" s:width="20" s:height="40" id="cell_$procmux$42">
    <s:alias val="$pmux"/>
    <s:alias val="$mux"/>
    <s:alias val="$_MUX_"/>
    <path d="M0,0 L20,10 L20,30 L0,40 Z" class="cell_$procmux$42"/>
    <g s:x="0" s:y="10" s:pid="A"/>
    <g s:x="0" s:y="30" s:pid="B"/>
    <g s:x="10" s:y="35" s:pid="S"/>
    <g s:x="20" s:y="20" s:pid="Y"/>
  </g>
  <g s:type="inputExt" transform="translate(12,32)" s:width="30" s:height="20" id="cell_m">
    <text x="15" y="-4" class="nodelabel cell_m" s:attribute="ref">m</text>
    <s:alias val="$_inputExt_"/>
    <path d="M0,0 L0,20 L15,20 L30,10 L15,0 Z" class="cell_m"/>
    <g s:x="28" s:y="10" s:pid="Y"/>
  </g>
  <g s:type="inputExt" transform="translate(12,97)" s:width="30" s:height="20" id="cell_n">
    <text x="15" y="-4" class="nodelabel cell_n" s:attribute="ref">n</text>
    <s:alias val="$_inputExt_"/>
    <path d="M0,0 L0,20 L15,20 L30,10 L15,0 Z" class="cell_n"/>
    <g s:x="28" s:y="10" s:pid="Y"/>
  </g>
  <g s:type="inputExt" transform="translate(362,540.5)" s:width="30" s:height="20" id="cell_clk">
    <text x="15" y="-4" class="nodelabel cell_clk" s:attribute="ref">clk</text>
    <s:alias val="$_inputExt_"/>
    <path d="M0,0 L0,20 L15,20 L30,10 L15,0 Z" class="cell_clk"/>
    <g s:x="28" s:y="10" s:pid="Y"/>
  </g>
  <g s:type="inputExt" transform="translate(282,510.5)" s:width="30" s:height="20" id="cell_reset">
    <text x="15" y="-4" class="nodelabel cell_reset" s:attribute="ref">reset</text>
    <s:alias val="$_inputExt_"/>
    <path d="M0,0 L0,20 L15,20 L30,10 L15,0 Z" class="cell_reset"/>
    <g s:x="28" s:y="10" s:pid="Y"/>
  </g>
  <g s:type="outputExt" transform="translate(682,389.5)" s:width="30" s:height="20" id="cell_square_wave">
    <text x="15" y="-4" class="nodelabel cell_square_wave" s:attribute="ref">square_wave</text>
    <s:alias val="$_outputExt_"/>
    <path d="M30,0 L30,20 L15,20 L0,10 L15,0 Z" class="cell_square_wave"/>
    <g s:x="0" s:y="10" s:pid="A"/>
  </g>
  <g s:type="constant" transform="translate(77,283.5)" s:width="30" s:height="20" id="cell_1">
    <text x="15" y="-4" class="nodelabel cell_1" s:attribute="ref">1</text>
    <s:alias val="$_constant_"/>
    <rect width="30" height="20" class="cell_1"/>
    <g s:x="30" s:y="10" s:pid="Y"/>
  </g>
  <g s:type="constant" transform="translate(157,314.5)" s:width="30" s:height="20" id="cell_100">
    <text x="15" y="-4" class="nodelabel cell_100" s:attribute="ref">100</text>
    <s:alias val="$_constant_"/>
    <rect width="30" height="20" class="cell_100"/>
    <g s:x="30" s:y="10" s:pid="Y"/>
  </g>
  <g s:type="constant" transform="translate(77,389.5)" s:width="30" s:height="20" id="cell_0">
    <text x="15" y="-4" class="nodelabel cell_0" s:attribute="ref">0</text>
    <s:alias val="$_constant_"/>
    <rect width="30" height="20" class="cell_0"/>
    <g s:x="30" s:y="10" s:pid="Y"/>
  </g>
  <g s:type="constant" transform="translate(362,120.5)" s:width="30" s:height="20" id="cell_0000">
    <text x="15" y="-4" class="nodelabel cell_0000" s:attribute="ref">0x0</text>
    <s:alias val="$_constant_"/>
    <rect width="30" height="20" class="cell_0000"/>
    <g s:x="30" s:y="10" s:pid="Y"/>
  </g>
  <g s:type="constant" transform="translate(497,581.5)" s:width="30" s:height="20" id="cell_000">
    <text x="15" y="-4" class="nodelabel cell_000" s:attribute="ref">000</text>
    <s:alias val="$_constant_"/>
    <rect width="30" height="20" class="cell_000"/>
    <g s:x="30" s:y="10" s:pid="Y"/>
  </g>
  <line x1="712" x2="758" y1="591.5" y2="591.5" class="net_13,14,15"/>
  <line x1="758" x2="758" y1="591.5" y2="679.5" class="net_13,14,15"/>
  <line x1="758" x2="472" y1="679.5" y2="679.5" class="net_13,14,15"/>
  <line x1="472" x2="472" y1="679.5" y2="627.5" class="net_13,14,15"/>
  <line x1="472" x2="503.3333333333333" y1="627.5" y2="627.5" class="net_13,14,15"/>
  <line x1="712" x2="758" y1="591.5" y2="591.5" class="net_13,14,15"/>
  <line x1="758" x2="758" y1="591.5" y2="262.5" class="net_13,14,15"/>
  <line x1="758" x2="197" y1="262.5" y2="262.5" class="net_13,14,15"/>
  <line x1="197" x2="197" y1="262.5" y2="309.5" class="net_13,14,15"/>
  <circle cx="758" cy="591.5" r="2" style="fill:#000" class="net_13,14,15"/>
  <line x1="197" x2="225" y1="309.5" y2="309.5" class="net_13,14,15"/>
  <line x1="107" x2="127" y1="293.5" y2="293.5" class="net_62"/>
  <line x1="127" x2="127" y1="293.5" y2="642.5" class="net_62"/>
  <circle cx="127" cy="293.5" r="2" style="fill:#000" class="net_62"/>
  <line x1="127" x2="503.3333333333333" y1="642.5" y2="642.5" class="net_62"/>
  <line x1="107" x2="368.3333333333333" y1="293.5" y2="293.5" class="net_62"/>
  <line x1="107" x2="127" y1="293.5" y2="293.5" class="net_62"/>
  <line x1="127" x2="127" y1="293.5" y2="459.5" class="net_62"/>
  <circle cx="127" cy="459.5" r="2" style="fill:#000" class="net_62"/>
  <line x1="127" x2="160.33333333333334" y1="459.5" y2="459.5" class="net_62"/>
  <line x1="107" x2="127" y1="293.5" y2="293.5" class="net_62"/>
  <line x1="127" x2="127" y1="293.5" y2="379.5" class="net_62"/>
  <circle cx="127" cy="379.5" r="2" style="fill:#000" class="net_62"/>
  <line x1="127" x2="160.33333333333334" y1="379.5" y2="379.5" class="net_62"/>
  <line x1="712" x2="768" y1="150.5" y2="150.5" class="net_19,20,21,22"/>
  <line x1="768" x2="768" y1="150.5" y2="701.5" class="net_19,20,21,22"/>
  <line x1="768" x2="332" y1="701.5" y2="701.5" class="net_19,20,21,22"/>
  <line x1="332" x2="332" y1="701.5" y2="278.5" class="net_19,20,21,22"/>
  <line x1="332" x2="368.3333333333333" y1="278.5" y2="278.5" class="net_19,20,21,22"/>
  <line x1="712" x2="768" y1="150.5" y2="150.5" class="net_19,20,21,22"/>
  <line x1="768" x2="768" y1="150.5" y2="668.5" class="net_19,20,21,22"/>
  <line x1="768" x2="52" y1="668.5" y2="668.5" class="net_19,20,21,22"/>
  <line x1="52" x2="52" y1="668.5" y2="92" class="net_19,20,21,22"/>
  <circle cx="768" cy="668.5" r="2" style="fill:#000" class="net_19,20,21,22"/>
  <line x1="52" x2="83.33333333333333" y1="92" y2="92" class="net_19,20,21,22"/>
  <line x1="712" x2="768" y1="150.5" y2="150.5" class="net_19,20,21,22"/>
  <line x1="768" x2="768" y1="150.5" y2="12" class="net_19,20,21,22"/>
  <line x1="768" x2="52" y1="12" y2="12" class="net_19,20,21,22"/>
  <line x1="52" x2="52" y1="12" y2="27" class="net_19,20,21,22"/>
  <circle cx="768" cy="150.5" r="2" style="fill:#000" class="net_19,20,21,22"/>
  <line x1="52" x2="83.33333333333333" y1="27" y2="27" class="net_19,20,21,22"/>
  <line x1="712" x2="768" y1="150.5" y2="150.5" class="net_19,20,21,22"/>
  <line x1="768" x2="768" y1="150.5" y2="12" class="net_19,20,21,22"/>
  <line x1="768" x2="547" y1="12" y2="12" class="net_19,20,21,22"/>
  <line x1="547" x2="547" y1="12" y2="130.5" class="net_19,20,21,22"/>
  <circle cx="547" cy="12" r="2" style="fill:#000" class="net_19,20,21,22"/>
  <line x1="547" x2="562" y1="130.5" y2="130.5" class="net_19,20,21,22"/>
  <line x1="187" x2="225" y1="324.5" y2="324.5" class="net_64,65,66"/>
  <line x1="40" x2="83.33333333333333" y1="107" y2="107" class="net_6,7,8,9"/>
  <line x1="40" x2="83.33333333333333" y1="42" y2="42" class="net_2,3,4,5"/>
  <line x1="390" x2="592" y1="550.5" y2="550.5" class="net_10"/>
  <line x1="592" x2="592" y1="550.5" y2="419.5" class="net_10"/>
  <line x1="592" x2="617" y1="419.5" y2="419.5" class="net_10"/>
  <line x1="390" x2="422" y1="550.5" y2="550.5" class="net_10"/>
  <line x1="422" x2="422" y1="550.5" y2="251.5" class="net_10"/>
  <line x1="422" x2="657" y1="251.5" y2="251.5" class="net_10"/>
  <line x1="657" x2="657" y1="251.5" y2="170.5" class="net_10"/>
  <circle cx="422" cy="550.5" r="2" style="fill:#000" class="net_10"/>
  <line x1="657" x2="682" y1="170.5" y2="170.5" class="net_10"/>
  <line x1="390" x2="422" y1="550.5" y2="550.5" class="net_10"/>
  <line x1="422" x2="422" y1="550.5" y2="419.5" class="net_10"/>
  <circle cx="422" cy="419.5" r="2" style="fill:#000" class="net_10"/>
  <line x1="422" x2="432" y1="419.5" y2="419.5" class="net_10"/>
  <line x1="390" x2="422" y1="550.5" y2="550.5" class="net_10"/>
  <line x1="422" x2="422" y1="550.5" y2="657.5" class="net_10"/>
  <line x1="422" x2="657" y1="657.5" y2="657.5" class="net_10"/>
  <line x1="657" x2="657" y1="657.5" y2="611.5" class="net_10"/>
  <line x1="657" x2="682" y1="611.5" y2="611.5" class="net_10"/>
  <line x1="462" x2="617" y1="399.5" y2="399.5" class="net_30"/>
  <line x1="462" x2="472" y1="399.5" y2="399.5" class="net_30"/>
  <line x1="472" x2="472" y1="399.5" y2="319.5" class="net_30"/>
  <line x1="472" x2="322" y1="319.5" y2="319.5" class="net_30"/>
  <line x1="322" x2="322" y1="319.5" y2="429.5" class="net_30"/>
  <line x1="322" x2="233.66666666666666" y1="429.5" y2="429.5" class="net_30"/>
  <circle cx="322" cy="319.5" r="2" style="fill:#000" class="net_30"/>
  <line x1="233.66666666666666" x2="233.66666666666666" y1="429.5" y2="414.5" class="net_30"/>
  <line x1="462" x2="472" y1="399.5" y2="399.5" class="net_30"/>
  <line x1="472" x2="472" y1="399.5" y2="319.5" class="net_30"/>
  <line x1="472" x2="267" y1="319.5" y2="319.5" class="net_30"/>
  <line x1="267" x2="267" y1="319.5" y2="379.5" class="net_30"/>
  <circle cx="472" cy="319.5" r="2" style="fill:#000" class="net_30"/>
  <circle cx="472" cy="399.5" r="2" style="fill:#000" class="net_30"/>
  <line x1="267" x2="288.6666666666667" y1="379.5" y2="379.5" class="net_30"/>
  <line x1="462" x2="472" y1="399.5" y2="399.5" class="net_30"/>
  <line x1="472" x2="472" y1="399.5" y2="298.5" class="net_30"/>
  <line x1="472" x2="510.3333333333333" y1="298.5" y2="298.5" class="net_30"/>
  <line x1="510.3333333333333" x2="510.3333333333333" y1="298.5" y2="165.5" class="net_30"/>
  <line x1="640.3333333333334" x2="682" y1="150.5" y2="150.5" class="net_31,32,33,34"/>
  <line x1="385.3333333333333" x2="432" y1="399.5" y2="399.5" class="net_35"/>
  <line x1="640.3333333333334" x2="682" y1="591.5" y2="591.5" class="net_36,37,38"/>
  <line x1="107" x2="137" y1="399.5" y2="399.5" class="net_67"/>
  <line x1="137" x2="137" y1="399.5" y2="439.5" class="net_67"/>
  <circle cx="137" cy="399.5" r="2" style="fill:#000" class="net_67"/>
  <circle cx="137" cy="439.5" r="2" style="fill:#000" class="net_67"/>
  <line x1="137" x2="160.33333333333334" y1="439.5" y2="439.5" class="net_67"/>
  <line x1="107" x2="160.33333333333334" y1="399.5" y2="399.5" class="net_67"/>
  <line x1="107" x2="137" y1="399.5" y2="399.5" class="net_67"/>
  <line x1="137" x2="137" y1="399.5" y2="489.5" class="net_67"/>
  <line x1="137" x2="352" y1="489.5" y2="489.5" class="net_67"/>
  <line x1="352" x2="352" y1="489.5" y2="409.5" class="net_67"/>
  <line x1="352" x2="365.3333333333333" y1="409.5" y2="409.5" class="net_67"/>
  <line x1="105.33333333333333" x2="117" y1="34.5" y2="34.5" class="net_29"/>
  <line x1="117" x2="117" y1="34.5" y2="479.5" class="net_29"/>
  <line x1="117" x2="170.33333333333334" y1="479.5" y2="479.5" class="net_29"/>
  <line x1="170.33333333333334" x2="170.33333333333334" y1="479.5" y2="464.5" class="net_29"/>
  <line x1="105.33333333333333" x2="117" y1="34.5" y2="34.5" class="net_29"/>
  <line x1="117" x2="117" y1="34.5" y2="230.5" class="net_29"/>
  <line x1="117" x2="445.3333333333333" y1="230.5" y2="230.5" class="net_29"/>
  <circle cx="117" cy="230.5" r="2" style="fill:#000" class="net_29"/>
  <line x1="445.3333333333333" x2="445.3333333333333" y1="230.5" y2="215.5" class="net_29"/>
  <line x1="105.33333333333333" x2="147" y1="99.5" y2="99.5" class="net_28"/>
  <line x1="147" x2="147" y1="99.5" y2="419.5" class="net_28"/>
  <line x1="147" x2="170.33333333333334" y1="419.5" y2="419.5" class="net_28"/>
  <circle cx="147" cy="99.5" r="2" style="fill:#000" class="net_28"/>
  <line x1="170.33333333333334" x2="170.33333333333334" y1="419.5" y2="404.5" class="net_28"/>
  <line x1="105.33333333333333" x2="422" y1="99.5" y2="99.5" class="net_28"/>
  <line x1="422" x2="422" y1="99.5" y2="170.5" class="net_28"/>
  <line x1="422" x2="445.3333333333333" y1="170.5" y2="170.5" class="net_28"/>
  <line x1="445.3333333333333" x2="445.3333333333333" y1="170.5" y2="155.5" class="net_28"/>
  <line x1="180.33333333333334" x2="223.66666666666666" y1="389.5" y2="389.5" class="net_40"/>
  <line x1="180.33333333333334" x2="197" y1="449.5" y2="449.5" class="net_39"/>
  <line x1="197" x2="197" y1="449.5" y2="409.5" class="net_39"/>
  <line x1="197" x2="223.66666666666666" y1="409.5" y2="409.5" class="net_39"/>
  <line x1="243.66666666666666" x2="288.6666666666667" y1="399.5" y2="399.5" class="net_41"/>
  <line x1="247" x2="257" y1="317" y2="317" class="net_27"/>
  <line x1="257" x2="257" y1="317" y2="419.5" class="net_27"/>
  <line x1="257" x2="298.6666666666667" y1="419.5" y2="419.5" class="net_27"/>
  <circle cx="257" cy="317" r="2" style="fill:#000" class="net_27"/>
  <circle cx="257" cy="419.5" r="2" style="fill:#000" class="net_27"/>
  <line x1="298.6666666666667" x2="298.6666666666667" y1="419.5" y2="404.5" class="net_27"/>
  <line x1="247" x2="257" y1="317" y2="317" class="net_27"/>
  <line x1="257" x2="257" y1="317" y2="23" class="net_27"/>
  <line x1="257" x2="537" y1="23" y2="23" class="net_27"/>
  <line x1="537" x2="537" y1="23" y2="170.5" class="net_27"/>
  <line x1="537" x2="572" y1="170.5" y2="170.5" class="net_27"/>
  <line x1="572" x2="572" y1="170.5" y2="155.5" class="net_27"/>
  <line x1="247" x2="257" y1="317" y2="317" class="net_27"/>
  <line x1="257" x2="257" y1="317" y2="611.5" class="net_27"/>
  <line x1="257" x2="572" y1="611.5" y2="611.5" class="net_27"/>
  <line x1="572" x2="572" y1="611.5" y2="596.5" class="net_27"/>
  <line x1="308.6666666666667" x2="365.3333333333333" y1="389.5" y2="389.5" class="net_42"/>
  <line x1="310" x2="375.3333333333333" y1="520.5" y2="520.5" class="net_11"/>
  <line x1="375.3333333333333" x2="375.3333333333333" y1="520.5" y2="414.5" class="net_11"/>
  <line x1="310" x2="342" y1="520.5" y2="520.5" class="net_11"/>
  <line x1="342" x2="342" y1="520.5" y2="308.5" class="net_11"/>
  <line x1="342" x2="630.3333333333334" y1="308.5" y2="308.5" class="net_11"/>
  <circle cx="342" cy="520.5" r="2" style="fill:#000" class="net_11"/>
  <line x1="630.3333333333334" x2="630.3333333333334" y1="308.5" y2="165.5" class="net_11"/>
  <line x1="310" x2="342" y1="520.5" y2="520.5" class="net_11"/>
  <line x1="342" x2="342" y1="520.5" y2="690.5" class="net_11"/>
  <line x1="342" x2="630.3333333333334" y1="690.5" y2="690.5" class="net_11"/>
  <line x1="630.3333333333334" x2="630.3333333333334" y1="690.5" y2="606.5" class="net_11"/>
  <line x1="392" x2="402" y1="130.5" y2="130.5" class="net_72,73,74,75"/>
  <line x1="402" x2="402" y1="130.5" y2="190.5" class="net_72,73,74,75"/>
  <circle cx="402" cy="130.5" r="2" style="fill:#000" class="net_72,73,74,75"/>
  <circle cx="402" cy="190.5" r="2" style="fill:#000" class="net_72,73,74,75"/>
  <line x1="402" x2="435.3333333333333" y1="190.5" y2="190.5" class="net_72,73,74,75"/>
  <line x1="392" x2="435.3333333333333" y1="130.5" y2="130.5" class="net_72,73,74,75"/>
  <line x1="392" x2="402" y1="130.5" y2="130.5" class="net_72,73,74,75"/>
  <line x1="402" x2="402" y1="130.5" y2="240.5" class="net_72,73,74,75"/>
  <line x1="402" x2="592" y1="240.5" y2="240.5" class="net_72,73,74,75"/>
  <line x1="592" x2="592" y1="240.5" y2="160.5" class="net_72,73,74,75"/>
  <line x1="592" x2="620.3333333333334" y1="160.5" y2="160.5" class="net_72,73,74,75"/>
  <line x1="390.3333333333333" x2="412" y1="286" y2="286" class="net_23,24,25,26"/>
  <line x1="412" x2="412" y1="286" y2="210.5" class="net_23,24,25,26"/>
  <circle cx="412" cy="210.5" r="2" style="fill:#000" class="net_23,24,25,26"/>
  <line x1="412" x2="435.3333333333333" y1="210.5" y2="210.5" class="net_23,24,25,26"/>
  <line x1="390.3333333333333" x2="412" y1="286" y2="286" class="net_23,24,25,26"/>
  <line x1="412" x2="412" y1="286" y2="150.5" class="net_23,24,25,26"/>
  <line x1="412" x2="435.3333333333333" y1="150.5" y2="150.5" class="net_23,24,25,26"/>
  <line x1="455.3333333333333" x2="500.3333333333333" y1="140.5" y2="140.5" class="net_47,48,49,50"/>
  <line x1="455.3333333333333" x2="472" y1="200.5" y2="200.5" class="net_43,44,45,46"/>
  <line x1="472" x2="472" y1="200.5" y2="160.5" class="net_43,44,45,46"/>
  <line x1="472" x2="500.3333333333333" y1="160.5" y2="160.5" class="net_43,44,45,46"/>
  <line x1="520.3333333333333" x2="562" y1="150.5" y2="150.5" class="net_51,52,53,54"/>
  <line x1="582" x2="620.3333333333334" y1="140.5" y2="140.5" class="net_55,56,57,58"/>
  <line x1="525.3333333333333" x2="537" y1="635" y2="635" class="net_16,17,18"/>
  <line x1="537" x2="537" y1="635" y2="571.5" class="net_16,17,18"/>
  <line x1="537" x2="562" y1="571.5" y2="571.5" class="net_16,17,18"/>
  <line x1="527" x2="562" y1="591.5" y2="591.5" class="net_84,85,86"/>
  <line x1="527" x2="547" y1="591.5" y2="591.5" class="net_84,85,86"/>
  <line x1="547" x2="547" y1="591.5" y2="621.5" class="net_84,85,86"/>
  <line x1="547" x2="592" y1="621.5" y2="621.5" class="net_84,85,86"/>
  <line x1="592" x2="592" y1="621.5" y2="601.5" class="net_84,85,86"/>
  <circle cx="547" cy="591.5" r="2" style="fill:#000" class="net_84,85,86"/>
  <line x1="592" x2="620.3333333333334" y1="601.5" y2="601.5" class="net_84,85,86"/>
  <line x1="582" x2="620.3333333333334" y1="581.5" y2="581.5" class="net_59,60,61"/>
  <line x1="647" x2="682" y1="399.5" y2="399.5" class="net_12"/>
</svg>
