<svg style="background:white" xmlns="http://www.w3.org/2000/svg" xmlns:xlink="http://www.w3.org/1999/xlink" xmlns:s="https://github.com/nturley/netlistsvg" width="1122" height="1133">
  <style>svg {
    stroke:#000;
    fill:none;
  }
  text {
    fill:#000;
    stroke:none;
    font-size:10px;
    font-weight: bold;
    font-family: "Courier New", monospace;
  }
  .nodelabel {
    text-anchor: middle;
  }
  .inputPortLabel {
    text-anchor: end;
  }
  .splitjoinBody {
    fill:#000;
  }</style>
  <g s:type="add" transform="translate(198,357)" s:width="25" s:height="25" id="cell_$add$rtl/stack.v:29$48">
    <s:alias val="$add"/>
    <circle r="12.5" cx="12.5" cy="12.5" class="cell_$add$rtl/stack.v:29$48"/>
    <line x1="7.5" x2="17.5" y1="12.5" y2="12.5" class="cell_$add$rtl/stack.v:29$48"/>
    <line x1="12.5" x2="12.5" y1="7.5" y2="17.5" class="cell_$add$rtl/stack.v:29$48"/>
    <g s:x="3" s:y="5" s:pid="A"/>
    <g s:x="3" s:y="20" s:pid="B"/>
    <g s:x="25" s:y="12.5" s:pid="Y"/>
  </g>
  <g s:type="not" transform="translate(118,884)" s:width="30" s:height="20" id="cell_$eq$rtl/stack.v:14$18">
    <s:alias val="$_NOT_"/>
    <s:alias val="$not"/>
    <s:alias val="$logic_not"/>
    <path d="M0,0 L0,20 L20,10 Z" class="cell_$eq$rtl/stack.v:14$18"/>
    <circle cx="23" cy="10" r="3" class="cell_$eq$rtl/stack.v:14$18"/>
    <g s:x="0" s:y="10" s:pid="A"/>
    <g s:x="25" s:y="10" s:pid="Y"/>
  </g>
  <g s:type="dff" transform="translate(458,284.5)" s:width="30" s:height="40" id="cell_$procdff$149">
    <s:alias val="$dff"/>
    <s:alias val="$_DFF_"/>
    <s:alias val="$_DFF_P_"/>
    <rect width="30" height="40" x="0" y="0" class="cell_$procdff$149"/>
    <path d="M0,35 L5,30 L0,25" class="cell_$procdff$149"/>
    <g s:x="30" s:y="10" s:pid="Q"/>
    <g s:x="0" s:y="30" s:pid="CLK"/>
    <g s:x="0" s:y="30" s:pid="C"/>
    <g s:x="0" s:y="10" s:pid="D"/>
  </g>
  <g s:type="mux" transform="translate(645,596)" s:width="20" s:height="40" id="cell_$procmux$106">
    <s:alias val="$pmux"/>
    <s:alias val="$mux"/>
    <s:alias val="$_MUX_"/>
    <path d="M0,0 L20,10 L20,30 L0,40 Z" class="cell_$procmux$106"/>
    <g s:x="0" s:y="10" s:pid="A"/>
    <g s:x="0" s:y="30" s:pid="B"/>
    <g s:x="10" s:y="35" s:pid="S"/>
    <g s:x="20" s:y="20" s:pid="Y"/>
  </g>
  <g s:type="mux" transform="translate(645,123.5)" s:width="20" s:height="40" id="cell_$procmux$113">
    <s:alias val="$pmux"/>
    <s:alias val="$mux"/>
    <s:alias val="$_MUX_"/>
    <path d="M0,0 L20,10 L20,30 L0,40 Z" class="cell_$procmux$113"/>
    <g s:x="0" s:y="10" s:pid="A"/>
    <g s:x="0" s:y="30" s:pid="B"/>
    <g s:x="10" s:y="35" s:pid="S"/>
    <g s:x="20" s:y="20" s:pid="Y"/>
  </g>
  <g s:type="mux" transform="translate(725,878)" s:width="20" s:height="40" id="cell_$procmux$119">
    <s:alias val="$pmux"/>
    <s:alias val="$mux"/>
    <s:alias val="$_MUX_"/>
    <path d="M0,0 L20,10 L20,30 L0,40 Z" class="cell_$procmux$119"/>
    <g s:x="0" s:y="10" s:pid="A"/>
    <g s:x="0" s:y="30" s:pid="B"/>
    <g s:x="10" s:y="35" s:pid="S"/>
    <g s:x="20" s:y="20" s:pid="Y"/>
  </g>
  <g s:type="mux" transform="translate(725,667)" s:width="20" s:height="40" id="cell_$procmux$122">
    <s:alias val="$pmux"/>
    <s:alias val="$mux"/>
    <s:alias val="$_MUX_"/>
    <path d="M0,0 L20,10 L20,30 L0,40 Z" class="cell_$procmux$122"/>
    <g s:x="0" s:y="10" s:pid="A"/>
    <g s:x="0" s:y="30" s:pid="B"/>
    <g s:x="10" s:y="35" s:pid="S"/>
    <g s:x="20" s:y="20" s:pid="Y"/>
  </g>
  <g s:type="mux" transform="translate(725,282.5)" s:width="20" s:height="40" id="cell_$procmux$125">
    <s:alias val="$pmux"/>
    <s:alias val="$mux"/>
    <s:alias val="$_MUX_"/>
    <path d="M0,0 L20,10 L20,30 L0,40 Z" class="cell_$procmux$125"/>
    <g s:x="0" s:y="10" s:pid="A"/>
    <g s:x="0" s:y="30" s:pid="B"/>
    <g s:x="10" s:y="35" s:pid="S"/>
    <g s:x="20" s:y="20" s:pid="Y"/>
  </g>
  <g s:type="mux" transform="translate(725,818)" s:width="20" s:height="40" id="cell_$procmux$128">
    <s:alias val="$pmux"/>
    <s:alias val="$mux"/>
    <s:alias val="$_MUX_"/>
    <path d="M0,0 L20,10 L20,30 L0,40 Z" class="cell_$procmux$128"/>
    <g s:x="0" s:y="10" s:pid="A"/>
    <g s:x="0" s:y="30" s:pid="B"/>
    <g s:x="10" s:y="35" s:pid="S"/>
    <g s:x="20" s:y="20" s:pid="Y"/>
  </g>
  <g s:type="mux" transform="translate(725,606)" s:width="20" s:height="40" id="cell_$procmux$131">
    <s:alias val="$pmux"/>
    <s:alias val="$mux"/>
    <s:alias val="$_MUX_"/>
    <path d="M0,0 L20,10 L20,30 L0,40 Z" class="cell_$procmux$131"/>
    <g s:x="0" s:y="10" s:pid="A"/>
    <g s:x="0" s:y="30" s:pid="B"/>
    <g s:x="10" s:y="35" s:pid="S"/>
    <g s:x="20" s:y="20" s:pid="Y"/>
  </g>
  <g s:type="mux" transform="translate(725,133.5)" s:width="20" s:height="40" id="cell_$procmux$134">
    <s:alias val="$pmux"/>
    <s:alias val="$mux"/>
    <s:alias val="$_MUX_"/>
    <path d="M0,0 L20,10 L20,30 L0,40 Z" class="cell_$procmux$134"/>
    <g s:x="0" s:y="10" s:pid="A"/>
    <g s:x="0" s:y="30" s:pid="B"/>
    <g s:x="10" s:y="35" s:pid="S"/>
    <g s:x="20" s:y="20" s:pid="Y"/>
  </g>
  <g s:type="mux" transform="translate(329.6666666666667,349.5)" s:width="20" s:height="40" id="cell_$procmux$141">
    <s:alias val="$pmux"/>
    <s:alias val="$mux"/>
    <s:alias val="$_MUX_"/>
    <path d="M0,0 L20,10 L20,30 L0,40 Z" class="cell_$procmux$141"/>
    <g s:x="0" s:y="10" s:pid="A"/>
    <g s:x="0" s:y="30" s:pid="B"/>
    <g s:x="10" s:y="35" s:pid="S"/>
    <g s:x="20" s:y="20" s:pid="Y"/>
  </g>
  <g s:type="eq" transform="translate(198,759.5)" s:width="25" s:height="25" id="cell_$procmux$142_CMP0">
    <s:alias val="$eq"/>
    <circle r="12.5" cx="12.5" cy="12.5" class="cell_$procmux$142_CMP0"/>
    <line x1="7.5" x2="17.5" y1="10" y2="10" class="cell_$procmux$142_CMP0"/>
    <line x1="7.5" x2="17.5" y1="15" y2="15" class="cell_$procmux$142_CMP0"/>
    <g s:x="3" s:y="5" s:pid="A"/>
    <g s:x="3" s:y="20" s:pid="B"/>
    <g s:x="25" s:y="12.5" s:pid="Y"/>
  </g>
  <g s:type="mux" transform="translate(201.33333333333334,514)" s:width="20" s:height="40" id="cell_$procmux$143">
    <s:alias val="$pmux"/>
    <s:alias val="$mux"/>
    <s:alias val="$_MUX_"/>
    <path d="M0,0 L20,10 L20,30 L0,40 Z" class="cell_$procmux$143"/>
    <g s:x="0" s:y="10" s:pid="A"/>
    <g s:x="0" s:y="30" s:pid="B"/>
    <g s:x="10" s:y="35" s:pid="S"/>
    <g s:x="20" s:y="20" s:pid="Y"/>
  </g>
  <g s:type="eq" transform="translate(198,454)" s:width="25" s:height="25" id="cell_$procmux$145_CMP0">
    <s:alias val="$eq"/>
    <circle r="12.5" cx="12.5" cy="12.5" class="cell_$procmux$145_CMP0"/>
    <line x1="7.5" x2="17.5" y1="10" y2="10" class="cell_$procmux$145_CMP0"/>
    <line x1="7.5" x2="17.5" y1="15" y2="15" class="cell_$procmux$145_CMP0"/>
    <g s:x="3" s:y="5" s:pid="A"/>
    <g s:x="3" s:y="20" s:pid="B"/>
    <g s:x="25" s:y="12.5" s:pid="Y"/>
  </g>
  <g s:type="mux" transform="translate(391.3333333333333,359.5)" s:width="20" s:height="40" id="cell_$procmux$147">
    <s:alias val="$pmux"/>
    <s:alias val="$mux"/>
    <s:alias val="$_MUX_"/>
    <path d="M0,0 L20,10 L20,30 L0,40 Z" class="cell_$procmux$147"/>
    <g s:x="0" s:y="10" s:pid="A"/>
    <g s:x="0" s:y="30" s:pid="B"/>
    <g s:x="10" s:y="35" s:pid="S"/>
    <g s:x="20" s:y="20" s:pid="Y"/>
  </g>
  <g s:type="mux" transform="translate(645,868)" s:width="20" s:height="40" id="cell_$procmux$80">
    <s:alias val="$pmux"/>
    <s:alias val="$mux"/>
    <s:alias val="$_MUX_"/>
    <path d="M0,0 L20,10 L20,30 L0,40 Z" class="cell_$procmux$80"/>
    <g s:x="0" s:y="10" s:pid="A"/>
    <g s:x="0" s:y="30" s:pid="B"/>
    <g s:x="10" s:y="35" s:pid="S"/>
    <g s:x="20" s:y="20" s:pid="Y"/>
  </g>
  <g s:type="mux" transform="translate(645,722)" s:width="20" s:height="40" id="cell_$procmux$86">
    <s:alias val="$pmux"/>
    <s:alias val="$mux"/>
    <s:alias val="$_MUX_"/>
    <path d="M0,0 L20,10 L20,30 L0,40 Z" class="cell_$procmux$86"/>
    <g s:x="0" s:y="10" s:pid="A"/>
    <g s:x="0" s:y="30" s:pid="B"/>
    <g s:x="10" s:y="35" s:pid="S"/>
    <g s:x="20" s:y="20" s:pid="Y"/>
  </g>
  <g s:type="mux" transform="translate(645,272.5)" s:width="20" s:height="40" id="cell_$procmux$92">
    <s:alias val="$pmux"/>
    <s:alias val="$mux"/>
    <s:alias val="$_MUX_"/>
    <path d="M0,0 L20,10 L20,30 L0,40 Z" class="cell_$procmux$92"/>
    <g s:x="0" s:y="10" s:pid="A"/>
    <g s:x="0" s:y="30" s:pid="B"/>
    <g s:x="10" s:y="35" s:pid="S"/>
    <g s:x="20" s:y="20" s:pid="Y"/>
  </g>
  <g s:type="eq" transform="translate(528.6666666666667,923)" s:width="25" s:height="25" id="cell_$procmux$93_CMP0">
    <s:alias val="$eq"/>
    <circle r="12.5" cx="12.5" cy="12.5" class="cell_$procmux$93_CMP0"/>
    <line x1="7.5" x2="17.5" y1="10" y2="10" class="cell_$procmux$93_CMP0"/>
    <line x1="7.5" x2="17.5" y1="15" y2="15" class="cell_$procmux$93_CMP0"/>
    <g s:x="3" s:y="5" s:pid="A"/>
    <g s:x="3" s:y="20" s:pid="B"/>
    <g s:x="25" s:y="12.5" s:pid="Y"/>
  </g>
  <g s:type="mux" transform="translate(645,808)" s:width="20" s:height="40" id="cell_$procmux$99">
    <s:alias val="$pmux"/>
    <s:alias val="$mux"/>
    <s:alias val="$_MUX_"/>
    <path d="M0,0 L20,10 L20,30 L0,40 Z" class="cell_$procmux$99"/>
    <g s:x="0" s:y="10" s:pid="A"/>
    <g s:x="0" s:y="30" s:pid="B"/>
    <g s:x="10" s:y="35" s:pid="S"/>
    <g s:x="20" s:y="20" s:pid="Y"/>
  </g>
  <g s:type="sub" transform="translate(120.66666666666667,511.5)" s:width="25" s:height="25" id="cell_$sub$rtl/stack.v:24$43">
    <s:alias val="$sub"/>
    <circle r="12.5" cx="12.5" cy="12.5" class="cell_$sub$rtl/stack.v:24$43"/>
    <line x1="7.5" x2="17.5" y1="12.5" y2="12.5" class="cell_$sub$rtl/stack.v:24$43"/>
    <g s:x="3" s:y="5" s:pid="A"/>
    <g s:x="3" s:y="20" s:pid="B"/>
    <g s:x="25" s:y="12.5" s:pid="Y"/>
  </g>
  <g s:type="mux" transform="translate(1007,22.5)" s:width="20" s:height="40" id="cell_$ternary$rtl/stack.v:17$22">
    <s:alias val="$pmux"/>
    <s:alias val="$mux"/>
    <s:alias val="$_MUX_"/>
    <path d="M0,0 L20,10 L20,30 L0,40 Z" class="cell_$ternary$rtl/stack.v:17$22"/>
    <g s:x="0" s:y="10" s:pid="A"/>
    <g s:x="0" s:y="30" s:pid="B"/>
    <g s:x="10" s:y="35" s:pid="S"/>
    <g s:x="20" s:y="20" s:pid="Y"/>
  </g>
  <g s:type="generic" transform="translate(898,22)" s:width="30" s:height="40" id="cell_mem">
    <text x="15" y="-4" class="nodelabel cell_mem" s:attribute="ref">$mem_v2</text>
    <rect width="30" height="180" s:generic="body" class="cell_mem"/>
    <g transform="translate(0,10)" s:x="0" s:y="10" s:pid="in0" id="port_mem~RD_ADDR">
      <text x="-3" y="-4" class="inputPortLabel cell_mem">RD_ADDR</text>
    </g>
    <g transform="translate(0,30)" s:x="0" s:y="10" s:pid="in0" id="port_mem~RD_ARST">
      <text x="-3" y="-4" class="inputPortLabel cell_mem">RD_ARST</text>
    </g>
    <g transform="translate(0,50)" s:x="0" s:y="10" s:pid="in0" id="port_mem~RD_CLK">
      <text x="-3" y="-4" class="inputPortLabel cell_mem">RD_CLK</text>
    </g>
    <g transform="translate(0,70)" s:x="0" s:y="10" s:pid="in0" id="port_mem~RD_EN">
      <text x="-3" y="-4" class="inputPortLabel cell_mem">RD_EN</text>
    </g>
    <g transform="translate(0,90)" s:x="0" s:y="10" s:pid="in0" id="port_mem~RD_SRST">
      <text x="-3" y="-4" class="inputPortLabel cell_mem">RD_SRST</text>
    </g>
    <g transform="translate(0,110)" s:x="0" s:y="10" s:pid="in0" id="port_mem~WR_ADDR">
      <text x="-3" y="-4" class="inputPortLabel cell_mem">WR_ADDR</text>
    </g>
    <g transform="translate(0,130)" s:x="0" s:y="10" s:pid="in0" id="port_mem~WR_CLK">
      <text x="-3" y="-4" class="inputPortLabel cell_mem">WR_CLK</text>
    </g>
    <g transform="translate(0,150)" s:x="0" s:y="10" s:pid="in0" id="port_mem~WR_DATA">
      <text x="-3" y="-4" class="inputPortLabel cell_mem">WR_DATA</text>
    </g>
    <g transform="translate(0,170)" s:x="0" s:y="10" s:pid="in0" id="port_mem~WR_EN">
      <text x="-3" y="-4" class="inputPortLabel cell_mem">WR_EN</text>
    </g>
    <g transform="translate(30,10)" s:x="30" s:y="10" s:pid="out0" id="port_mem~RD_DATA">
      <text x="5" y="-4" style="fill:#000; stroke:none" class="cell_mem">RD_DATA</text>
    </g>
  </g>
  <g s:type="inputExt" transform="translate(388,304.5)" s:width="30" s:height="20" id="cell_clk">
    <text x="15" y="-4" class="nodelabel cell_clk" s:attribute="ref">clk</text>
    <s:alias val="$_inputExt_"/>
    <path d="M0,0 L0,20 L15,20 L30,10 L15,0 Z" class="cell_clk"/>
    <g s:x="28" s:y="10" s:pid="Y"/>
  </g>
  <g s:type="inputExt" transform="translate(323,793)" s:width="30" s:height="20" id="cell_reset">
    <text x="15" y="-4" class="nodelabel cell_reset" s:attribute="ref">reset</text>
    <s:alias val="$_inputExt_"/>
    <path d="M0,0 L0,20 L15,20 L30,10 L15,0 Z" class="cell_reset"/>
    <g s:x="28" s:y="10" s:pid="Y"/>
  </g>
  <g s:type="inputExt" transform="translate(48,809.5)" s:width="30" s:height="20" id="cell_push">
    <text x="15" y="-4" class="nodelabel cell_push" s:attribute="ref">push</text>
    <s:alias val="$_inputExt_"/>
    <path d="M0,0 L0,20 L15,20 L30,10 L15,0 Z" class="cell_push"/>
    <g s:x="28" s:y="10" s:pid="Y"/>
  </g>
  <g s:type="inputExt" transform="translate(48,744.5)" s:width="30" s:height="20" id="cell_pop">
    <text x="15" y="-4" class="nodelabel cell_pop" s:attribute="ref">pop</text>
    <s:alias val="$_inputExt_"/>
    <path d="M0,0 L0,20 L15,20 L30,10 L15,0 Z" class="cell_pop"/>
    <g s:x="28" s:y="10" s:pid="Y"/>
  </g>
  <g s:type="inputExt" transform="translate(523,742)" s:width="30" s:height="20" id="cell_data_in">
    <text x="15" y="-4" class="nodelabel cell_data_in" s:attribute="ref">data_in</text>
    <s:alias val="$_inputExt_"/>
    <path d="M0,0 L0,20 L15,20 L30,10 L15,0 Z" class="cell_data_in"/>
    <g s:x="28" s:y="10" s:pid="Y"/>
  </g>
  <g s:type="outputExt" transform="translate(1062,32.5)" s:width="30" s:height="20" id="cell_data_out">
    <text x="15" y="-4" class="nodelabel cell_data_out" s:attribute="ref">data_out</text>
    <s:alias val="$_outputExt_"/>
    <path d="M30,0 L30,20 L15,20 L0,10 L15,0 Z" class="cell_data_out"/>
    <g s:x="0" s:y="10" s:pid="A"/>
  </g>
  <g s:type="outputExt" transform="translate(1062,1035)" s:width="30" s:height="20" id="cell_full">
    <text x="15" y="-4" class="nodelabel cell_full" s:attribute="ref">full</text>
    <s:alias val="$_outputExt_"/>
    <path d="M30,0 L30,20 L15,20 L0,10 L15,0 Z" class="cell_full"/>
    <g s:x="0" s:y="10" s:pid="A"/>
  </g>
  <g s:type="outputExt" transform="translate(1062,1100)" s:width="30" s:height="20" id="cell_empty">
    <text x="15" y="-4" class="nodelabel cell_empty" s:attribute="ref">empty</text>
    <s:alias val="$_outputExt_"/>
    <path d="M30,0 L30,20 L15,20 L0,10 L15,0 Z" class="cell_empty"/>
    <g s:x="0" s:y="10" s:pid="A"/>
  </g>
  <g s:type="constant" transform="translate(48,521.5)" s:width="30" s:height="20" id="cell_1">
    <text x="15" y="-4" class="nodelabel cell_1" s:attribute="ref">1</text>
    <s:alias val="$_constant_"/>
    <rect width="30" height="20" class="cell_1"/>
    <g s:x="30" s:y="10" s:pid="Y"/>
  </g>
  <g s:type="constant" transform="translate(523,868)" s:width="30" s:height="20" id="cell_0">
    <text x="15" y="-4" class="nodelabel cell_0" s:attribute="ref">0</text>
    <s:alias val="$_constant_"/>
    <rect width="30" height="20" class="cell_0"/>
    <g s:x="30" s:y="10" s:pid="Y"/>
  </g>
  <g s:type="constant" transform="translate(118,829)" s:width="30" s:height="20" id="cell_10">
    <text x="15" y="-4" class="nodelabel cell_10" s:attribute="ref">10</text>
    <s:alias val="$_constant_"/>
    <rect width="30" height="20" class="cell_10"/>
    <g s:x="30" s:y="10" s:pid="Y"/>
  </g>
  <g s:type="constant" transform="translate(323,476.5)" s:width="30" s:height="20" id="cell_0000">
    <text x="15" y="-4" class="nodelabel cell_0000" s:attribute="ref">0x0</text>
    <s:alias val="$_constant_"/>
    <rect width="30" height="20" class="cell_0000"/>
    <g s:x="30" s:y="10" s:pid="Y"/>
  </g>
  <g s:type="constant" transform="translate(458,949)" s:width="30" s:height="20" id="cell_11">
    <text x="15" y="-4" class="nodelabel cell_11" s:attribute="ref">11</text>
    <s:alias val="$_constant_"/>
    <rect width="30" height="20" class="cell_11"/>
    <g s:x="30" s:y="10" s:pid="Y"/>
  </g>
  <g s:type="constant" transform="translate(898,250)" s:width="30" s:height="20" id="cell_00000000">
    <text x="15" y="-4" class="nodelabel cell_00000000" s:attribute="ref">0x0</text>
    <s:alias val="$_constant_"/>
    <rect width="30" height="20" class="cell_00000000"/>
    <g s:x="30" s:y="10" s:pid="Y"/>
  </g>
  <g s:type="join" transform="translate(282,359)" s:width="4" s:height="40" id="cell_$join$,27,28,29,30,80,81,82,83,">
    <rect width="5" height="40" class="splitjoinBody" s:generic="body"/>
    <s:alias val="$_join_"/>
    <g s:x="5" s:y="20" s:pid="out"/>
    <g transform="translate(0,10)" s:x="0" s:y="10" s:pid="in0">
      <text x="-3" y="-4" class="inputPortLabel">0:3</text>
    </g>
    <g transform="translate(0,30)" s:x="0" s:y="10" s:pid="in0">
      <text x="-3" y="-4" class="inputPortLabel">4:7</text>
    </g>
  </g>
  <g s:type="join" transform="translate(276.33333333333337,436)" s:width="4" s:height="40" id="cell_$join$,35,84,">
    <rect width="5" height="40" class="splitjoinBody" s:generic="body"/>
    <s:alias val="$_join_"/>
    <g s:x="5" s:y="20" s:pid="out"/>
    <g transform="translate(0,10)" s:x="0" s:y="10" s:pid="in0">
      <text x="-3" y="-4" class="inputPortLabel">0</text>
    </g>
    <g transform="translate(0,30)" s:x="0" s:y="10" s:pid="in0">
      <text x="-3" y="-4" class="inputPortLabel">1</text>
    </g>
  </g>
  <g s:type="join" transform="translate(129,744)" s:width="4" s:height="40" id="cell_$join$,5,4,">
    <rect width="5" height="40" class="splitjoinBody" s:generic="body"/>
    <s:alias val="$_join_"/>
    <g s:x="5" s:y="20" s:pid="out"/>
    <g transform="translate(0,10)" s:x="0" s:y="10" s:pid="in0">
      <text x="-3" y="-4" class="inputPortLabel">0</text>
    </g>
    <g transform="translate(0,30)" s:x="0" s:y="10" s:pid="in0">
      <text x="-3" y="-4" class="inputPortLabel">1</text>
    </g>
  </g>
  <g s:type="join" transform="translate(799,143)" s:width="4" s:height="40" id="cell_$join$,78,79,66,67,">
    <rect width="5" height="40" class="splitjoinBody" s:generic="body"/>
    <s:alias val="$_join_"/>
    <g s:x="5" s:y="20" s:pid="out"/>
    <g transform="translate(0,10)" s:x="0" s:y="10" s:pid="in0">
      <text x="-3" y="-4" class="inputPortLabel">0:1</text>
    </g>
    <g transform="translate(0,30)" s:x="0" s:y="10" s:pid="in0">
      <text x="-3" y="-4" class="inputPortLabel">2:3</text>
    </g>
  </g>
  <g s:type="join" transform="translate(793.3333333333334,220)" s:width="4" s:height="40" id="cell_$join$,2,2,">
    <rect width="5" height="40" class="splitjoinBody" s:generic="body"/>
    <s:alias val="$_join_"/>
    <g s:x="5" s:y="20" s:pid="out"/>
    <g transform="translate(0,10)" s:x="0" s:y="10" s:pid="in0">
      <text x="-3" y="-4" class="inputPortLabel">0</text>
    </g>
    <g transform="translate(0,30)" s:x="0" s:y="10" s:pid="in0">
      <text x="-3" y="-4" class="inputPortLabel">1</text>
    </g>
  </g>
  <g s:type="join" transform="translate(799,615.5)" s:width="4" s:height="40" id="cell_$join$,70,71,72,73,74,75,76,77,56,57,58,59,60,61,62,63,">
    <rect width="5" height="40" class="splitjoinBody" s:generic="body"/>
    <s:alias val="$_join_"/>
    <g s:x="5" s:y="20" s:pid="out"/>
    <g transform="translate(0,10)" s:x="0" s:y="10" s:pid="in0">
      <text x="-3" y="-4" class="inputPortLabel">0:7</text>
    </g>
    <g transform="translate(0,30)" s:x="0" s:y="10" s:pid="in0">
      <text x="-3" y="-4" class="inputPortLabel">8:15</text>
    </g>
  </g>
  <g s:type="join" transform="translate(797.6923076923077,687.5)" s:width="4" s:height="40" id="cell_$join$,69,69,69,69,69,69,69,69,47,47,47,47,47,47,47,47,">
    <rect width="5" height="320" class="splitjoinBody" s:generic="body"/>
    <s:alias val="$_join_"/>
    <g s:x="5" s:y="20" s:pid="out"/>
    <g transform="translate(0,10)" s:x="0" s:y="10" s:pid="in0">
      <text x="-3" y="-4" class="inputPortLabel">0</text>
    </g>
    <g transform="translate(0,30)" s:x="0" s:y="10" s:pid="in0">
      <text x="-3" y="-4" class="inputPortLabel">1</text>
    </g>
    <g transform="translate(0,50)" s:x="0" s:y="10" s:pid="in0">
      <text x="-3" y="-4" class="inputPortLabel">2</text>
    </g>
    <g transform="translate(0,70)" s:x="0" s:y="10" s:pid="in0">
      <text x="-3" y="-4" class="inputPortLabel">3</text>
    </g>
    <g transform="translate(0,90)" s:x="0" s:y="10" s:pid="in0">
      <text x="-3" y="-4" class="inputPortLabel">4</text>
    </g>
    <g transform="translate(0,110)" s:x="0" s:y="10" s:pid="in0">
      <text x="-3" y="-4" class="inputPortLabel">5</text>
    </g>
    <g transform="translate(0,130)" s:x="0" s:y="10" s:pid="in0">
      <text x="-3" y="-4" class="inputPortLabel">6</text>
    </g>
    <g transform="translate(0,150)" s:x="0" s:y="10" s:pid="in0">
      <text x="-3" y="-4" class="inputPortLabel">7</text>
    </g>
    <g transform="translate(0,170)" s:x="0" s:y="10" s:pid="in0">
      <text x="-3" y="-4" class="inputPortLabel">8</text>
    </g>
    <g transform="translate(0,190)" s:x="0" s:y="10" s:pid="in0">
      <text x="-3" y="-4" class="inputPortLabel">9</text>
    </g>
    <g transform="translate(0,210)" s:x="0" s:y="10" s:pid="in0">
      <text x="-3" y="-4" class="inputPortLabel">10</text>
    </g>
    <g transform="translate(0,230)" s:x="0" s:y="10" s:pid="in0">
      <text x="-3" y="-4" class="inputPortLabel">11</text>
    </g>
    <g transform="translate(0,250)" s:x="0" s:y="10" s:pid="in0">
      <text x="-3" y="-4" class="inputPortLabel">12</text>
    </g>
    <g transform="translate(0,270)" s:x="0" s:y="10" s:pid="in0">
      <text x="-3" y="-4" class="inputPortLabel">13</text>
    </g>
    <g transform="translate(0,290)" s:x="0" s:y="10" s:pid="in0">
      <text x="-3" y="-4" class="inputPortLabel">14</text>
    </g>
    <g transform="translate(0,310)" s:x="0" s:y="10" s:pid="in0">
      <text x="-3" y="-4" class="inputPortLabel">15</text>
    </g>
  </g>
  <g s:type="split" transform="translate(12,14)" s:width="5" s:height="40" id="cell_$split$,x,x,x,x,x,x,x,x,">
    <rect width="5" height="40" class="splitjoinBody" s:generic="body"/>
    <s:alias val="$_split_"/>
    <g s:x="0" s:y="20" s:pid="in"/>
    <g transform="translate(4,10)" s:x="4" s:y="10" s:pid="out0">
      <text x="5" y="-4">0:1</text>
    </g>
    <g transform="translate(4,30)" s:x="4" s:y="10" s:pid="out0">
      <text x="5" y="-4">0</text>
    </g>
  </g>
  <g s:type="split" transform="translate(541,261.5)" s:width="5" s:height="40" id="cell_$split$,23,24,25,26,">
    <rect width="5" height="20" class="splitjoinBody" s:generic="body"/>
    <s:alias val="$_split_"/>
    <g s:x="0" s:y="20" s:pid="in"/>
    <g transform="translate(4,10)" s:x="4" s:y="10" s:pid="out0">
      <text x="5" y="-4">0:1</text>
    </g>
  </g>
  <g s:type="split" transform="translate(781,22)" s:width="5" s:height="40" id="cell_$split$,89,90,91,92,">
    <rect width="5" height="20" class="splitjoinBody" s:generic="body"/>
    <s:alias val="$_split_"/>
    <g s:x="0" s:y="20" s:pid="in"/>
    <g transform="translate(4,10)" s:x="4" s:y="10" s:pid="out0">
      <text x="5" y="-4">0:1</text>
    </g>
  </g>
  <line x1="488" x2="498" y1="294.5" y2="294.5" class="net_23,24,25,26"/>
  <line x1="498" x2="498" y1="294.5" y2="261.5" class="net_23,24,25,26"/>
  <line x1="498" x2="188" y1="261.5" y2="261.5" class="net_23,24,25,26"/>
  <line x1="188" x2="188" y1="261.5" y2="362" class="net_23,24,25,26"/>
  <circle cx="498" cy="294.5" r="2" style="fill:#000" class="net_23,24,25,26"/>
  <line x1="188" x2="201" y1="362" y2="362" class="net_23,24,25,26"/>
  <line x1="488" x2="498" y1="294.5" y2="294.5" class="net_23,24,25,26"/>
  <line x1="498" x2="498" y1="294.5" y2="261.5" class="net_23,24,25,26"/>
  <line x1="498" x2="233" y1="261.5" y2="261.5" class="net_23,24,25,26"/>
  <line x1="233" x2="233" y1="261.5" y2="392" class="net_23,24,25,26"/>
  <line x1="233" x2="98" y1="392" y2="392" class="net_23,24,25,26"/>
  <line x1="98" x2="98" y1="392" y2="894" class="net_23,24,25,26"/>
  <circle cx="233" cy="261.5" r="2" style="fill:#000" class="net_23,24,25,26"/>
  <line x1="98" x2="118" y1="894" y2="894" class="net_23,24,25,26"/>
  <line x1="488" x2="498" y1="294.5" y2="294.5" class="net_23,24,25,26"/>
  <line x1="498" x2="498" y1="294.5" y2="261.5" class="net_23,24,25,26"/>
  <line x1="498" x2="298" y1="261.5" y2="261.5" class="net_23,24,25,26"/>
  <line x1="298" x2="298" y1="261.5" y2="359.5" class="net_23,24,25,26"/>
  <circle cx="298" cy="261.5" r="2" style="fill:#000" class="net_23,24,25,26"/>
  <line x1="298" x2="329.6666666666667" y1="359.5" y2="359.5" class="net_23,24,25,26"/>
  <line x1="488" x2="498" y1="294.5" y2="294.5" class="net_23,24,25,26"/>
  <line x1="498" x2="498" y1="294.5" y2="564" class="net_23,24,25,26"/>
  <line x1="498" x2="188" y1="564" y2="564" class="net_23,24,25,26"/>
  <line x1="188" x2="188" y1="564" y2="544" class="net_23,24,25,26"/>
  <circle cx="188" cy="564" r="2" style="fill:#000" class="net_23,24,25,26"/>
  <line x1="188" x2="201.33333333333334" y1="544" y2="544" class="net_23,24,25,26"/>
  <line x1="488" x2="498" y1="294.5" y2="294.5" class="net_23,24,25,26"/>
  <line x1="498" x2="498" y1="294.5" y2="261.5" class="net_23,24,25,26"/>
  <line x1="498" x2="448" y1="261.5" y2="261.5" class="net_23,24,25,26"/>
  <line x1="448" x2="448" y1="261.5" y2="564" class="net_23,24,25,26"/>
  <line x1="448" x2="108" y1="564" y2="564" class="net_23,24,25,26"/>
  <line x1="108" x2="108" y1="564" y2="516.5" class="net_23,24,25,26"/>
  <circle cx="448" cy="564" r="2" style="fill:#000" class="net_23,24,25,26"/>
  <circle cx="448" cy="261.5" r="2" style="fill:#000" class="net_23,24,25,26"/>
  <line x1="108" x2="123.66666666666667" y1="516.5" y2="516.5" class="net_23,24,25,26"/>
  <line x1="488" x2="541.5" y1="294.5" y2="294.5" class="net_23,24,25,26"/>
  <line x1="541.5" x2="541.5" y1="294.5" y2="282.5" class="net_23,24,25,26"/>
  <line x1="78" x2="88" y1="531.5" y2="531.5" class="net_102"/>
  <line x1="88" x2="88" y1="531.5" y2="92.5" class="net_102"/>
  <line x1="88" x2="168" y1="92.5" y2="92.5" class="net_102"/>
  <line x1="168" x2="168" y1="92.5" y2="377" class="net_102"/>
  <circle cx="88" cy="531.5" r="2" style="fill:#000" class="net_102"/>
  <circle cx="168" cy="92.5" r="2" style="fill:#000" class="net_102"/>
  <line x1="168" x2="201" y1="377" y2="377" class="net_102"/>
  <line x1="78" x2="88" y1="531.5" y2="531.5" class="net_102"/>
  <line x1="88" x2="88" y1="531.5" y2="546.5" class="net_102"/>
  <line x1="88" x2="178" y1="546.5" y2="546.5" class="net_102"/>
  <line x1="178" x2="178" y1="546.5" y2="474" class="net_102"/>
  <circle cx="88" cy="546.5" r="2" style="fill:#000" class="net_102"/>
  <line x1="178" x2="201" y1="474" y2="474" class="net_102"/>
  <line x1="78" x2="88" y1="531.5" y2="531.5" class="net_102"/>
  <line x1="88" x2="88" y1="531.5" y2="979" class="net_102"/>
  <line x1="88" x2="233" y1="979" y2="979" class="net_102"/>
  <line x1="233" x2="233" y1="979" y2="1001" class="net_102"/>
  <line x1="233" x2="615" y1="1001" y2="1001" class="net_102"/>
  <line x1="615" x2="615" y1="1001" y2="898" class="net_102"/>
  <circle cx="233" cy="979" r="2" style="fill:#000" class="net_102"/>
  <line x1="615" x2="645" y1="898" y2="898" class="net_102"/>
  <line x1="78" x2="88" y1="531.5" y2="531.5" class="net_102"/>
  <line x1="88" x2="88" y1="531.5" y2="979" class="net_102"/>
  <line x1="88" x2="575" y1="979" y2="979" class="net_102"/>
  <line x1="575" x2="575" y1="979" y2="838" class="net_102"/>
  <line x1="575" x2="645" y1="838" y2="838" class="net_102"/>
  <line x1="78" x2="123.66666666666667" y1="531.5" y2="531.5" class="net_102"/>
  <line x1="78" x2="88" y1="531.5" y2="531.5" class="net_102"/>
  <line x1="88" x2="88" y1="531.5" y2="92.5" class="net_102"/>
  <line x1="88" x2="898" y1="92.5" y2="92.5" class="net_102"/>
  <line x1="416" x2="458" y1="314.5" y2="314.5" class="net_2"/>
  <line x1="416" x2="438" y1="314.5" y2="314.5" class="net_2"/>
  <line x1="438" x2="438" y1="314.5" y2="250.5" class="net_2"/>
  <line x1="438" x2="765" y1="250.5" y2="250.5" class="net_2"/>
  <line x1="765" x2="765" y1="250.5" y2="230.5" class="net_2"/>
  <circle cx="438" cy="314.5" r="2" style="fill:#000" class="net_2"/>
  <circle cx="765" cy="250.5" r="2" style="fill:#000" class="net_2"/>
  <line x1="765" x2="793.3333333333334" y1="230.5" y2="230.5" class="net_2"/>
  <line x1="416" x2="438" y1="314.5" y2="314.5" class="net_2"/>
  <line x1="438" x2="438" y1="314.5" y2="574" class="net_2"/>
  <line x1="438" x2="575" y1="574" y2="574" class="net_2"/>
  <line x1="575" x2="575" y1="574" y2="250.5" class="net_2"/>
  <circle cx="575" cy="250.5" r="2" style="fill:#000" class="net_2"/>
  <line x1="575" x2="793.3333333333334" y1="250.5" y2="250.5" class="net_2"/>
  <line x1="411.3333333333333" x2="428" y1="379.5" y2="379.5" class="net_31,32,33,34"/>
  <line x1="428" x2="428" y1="379.5" y2="294.5" class="net_31,32,33,34"/>
  <line x1="428" x2="458" y1="294.5" y2="294.5" class="net_31,32,33,34"/>
  <line x1="635" x2="635" y1="697" y2="606" class="net_x,x,x,x,x,x,x,x"/>
  <circle cx="635" cy="697" r="2" style="fill:#000" class="net_x,x,x,x,x,x,x,x"/>
  <line x1="635" x2="645" y1="606" y2="606" class="net_x,x,x,x,x,x,x,x"/>
  <line x1="635" x2="725" y1="697" y2="697" class="net_x,x,x,x,x,x,x,x"/>
  <line x1="635" x2="635" y1="697" y2="646" class="net_x,x,x,x,x,x,x,x"/>
  <line x1="635" x2="675" y1="646" y2="646" class="net_x,x,x,x,x,x,x,x"/>
  <line x1="675" x2="675" y1="646" y2="636" class="net_x,x,x,x,x,x,x,x"/>
  <circle cx="635" cy="646" r="2" style="fill:#000" class="net_x,x,x,x,x,x,x,x"/>
  <line x1="675" x2="725" y1="636" y2="636" class="net_x,x,x,x,x,x,x,x"/>
  <line x1="635" x2="635" y1="697" y2="732" class="net_x,x,x,x,x,x,x,x"/>
  <line x1="635" x2="645" y1="732" y2="732" class="net_x,x,x,x,x,x,x,x"/>
  <line x1="551" x2="615" y1="752" y2="752" class="net_6,7,8,9,10,11,12,13"/>
  <line x1="615" x2="615" y1="752" y2="626" class="net_6,7,8,9,10,11,12,13"/>
  <circle cx="615" cy="752" r="2" style="fill:#000" class="net_6,7,8,9,10,11,12,13"/>
  <line x1="615" x2="645" y1="626" y2="626" class="net_6,7,8,9,10,11,12,13"/>
  <line x1="551" x2="645" y1="752" y2="752" class="net_6,7,8,9,10,11,12,13"/>
  <line x1="223" x2="625" y1="772" y2="772" class="net_35"/>
  <line x1="625" x2="625" y1="772" y2="708" class="net_35"/>
  <line x1="625" x2="655" y1="708" y2="708" class="net_35"/>
  <line x1="655" x2="655" y1="708" y2="631" class="net_35"/>
  <line x1="223" x2="253" y1="772" y2="772" class="net_35"/>
  <line x1="253" x2="253" y1="772" y2="239.5" class="net_35"/>
  <line x1="253" x2="655" y1="239.5" y2="239.5" class="net_35"/>
  <circle cx="253" cy="772" r="2" style="fill:#000" class="net_35"/>
  <line x1="655" x2="655" y1="239.5" y2="158.5" class="net_35"/>
  <line x1="223" x2="253" y1="772" y2="772" class="net_35"/>
  <line x1="253" x2="253" y1="772" y2="990" class="net_35"/>
  <line x1="253" x2="585" y1="990" y2="990" class="net_35"/>
  <line x1="585" x2="585" y1="990" y2="858" class="net_35"/>
  <line x1="585" x2="655" y1="858" y2="858" class="net_35"/>
  <line x1="655" x2="655" y1="858" y2="843" class="net_35"/>
  <line x1="223" x2="253" y1="772" y2="772" class="net_35"/>
  <line x1="253" x2="253" y1="772" y2="446.5" class="net_35"/>
  <circle cx="253" cy="446.5" r="2" style="fill:#000" class="net_35"/>
  <line x1="253" x2="276.33333333333337" y1="446.5" y2="446.5" class="net_35"/>
  <line x1="635" x2="635" y1="304.5" y2="133.5" class="net_x,x"/>
  <line x1="635" x2="645" y1="133.5" y2="133.5" class="net_x,x"/>
  <line x1="635" x2="635" y1="304.5" y2="322.5" class="net_x,x"/>
  <line x1="635" x2="675" y1="322.5" y2="322.5" class="net_x,x"/>
  <line x1="675" x2="675" y1="322.5" y2="312.5" class="net_x,x"/>
  <line x1="675" x2="725" y1="312.5" y2="312.5" class="net_x,x"/>
  <line x1="635" x2="635" y1="304.5" y2="173.5" class="net_x,x"/>
  <line x1="635" x2="675" y1="173.5" y2="173.5" class="net_x,x"/>
  <line x1="675" x2="675" y1="173.5" y2="163.5" class="net_x,x"/>
  <circle cx="635" cy="173.5" r="2" style="fill:#000" class="net_x,x"/>
  <line x1="675" x2="725" y1="163.5" y2="163.5" class="net_x,x"/>
  <line x1="635" x2="635" y1="304.5" y2="282.5" class="net_x,x"/>
  <circle cx="635" cy="282.5" r="2" style="fill:#000" class="net_x,x"/>
  <line x1="635" x2="645" y1="282.5" y2="282.5" class="net_x,x"/>
  <line x1="546" x2="605" y1="272" y2="272" class="net_23,24"/>
  <line x1="605" x2="605" y1="272" y2="153.5" class="net_23,24"/>
  <circle cx="605" cy="272" r="2" style="fill:#000" class="net_23,24"/>
  <line x1="605" x2="645" y1="153.5" y2="153.5" class="net_23,24"/>
  <line x1="546" x2="605" y1="272" y2="272" class="net_23,24"/>
  <line x1="605" x2="605" y1="272" y2="302.5" class="net_23,24"/>
  <line x1="605" x2="645" y1="302.5" y2="302.5" class="net_23,24"/>
  <line x1="665" x2="725" y1="888" y2="888" class="net_46"/>
  <line x1="553" x2="595" y1="878" y2="878" class="net_103"/>
  <line x1="595" x2="595" y1="878" y2="1023" class="net_103"/>
  <line x1="595" x2="715" y1="1023" y2="1023" class="net_103"/>
  <line x1="715" x2="715" y1="1023" y2="908" class="net_103"/>
  <circle cx="595" cy="878" r="2" style="fill:#000" class="net_103"/>
  <circle cx="595" cy="1023" r="2" style="fill:#000" class="net_103"/>
  <line x1="715" x2="725" y1="908" y2="908" class="net_103"/>
  <line x1="553" x2="595" y1="878" y2="878" class="net_103"/>
  <line x1="595" x2="595" y1="878" y2="939" class="net_103"/>
  <line x1="595" x2="695" y1="939" y2="939" class="net_103"/>
  <line x1="695" x2="695" y1="939" y2="848" class="net_103"/>
  <circle cx="595" cy="939" r="2" style="fill:#000" class="net_103"/>
  <line x1="695" x2="725" y1="848" y2="848" class="net_103"/>
  <line x1="553" x2="645" y1="878" y2="878" class="net_103"/>
  <line x1="553" x2="595" y1="878" y2="878" class="net_103"/>
  <line x1="595" x2="595" y1="878" y2="818" class="net_103"/>
  <circle cx="595" cy="818" r="2" style="fill:#000" class="net_103"/>
  <line x1="595" x2="645" y1="818" y2="818" class="net_103"/>
  <line x1="553" x2="595" y1="878" y2="878" class="net_103"/>
  <line x1="595" x2="595" y1="878" y2="55" class="net_103"/>
  <line x1="595" x2="815" y1="55" y2="55" class="net_103"/>
  <line x1="815" x2="815" y1="55" y2="52.5" class="net_103"/>
  <line x1="815" x2="898" y1="52.5" y2="52.5" class="net_103"/>
  <line x1="553" x2="595" y1="878" y2="878" class="net_103"/>
  <line x1="595" x2="595" y1="878" y2="112.5" class="net_103"/>
  <circle cx="595" cy="112.5" r="2" style="fill:#000" class="net_103"/>
  <line x1="595" x2="898" y1="112.5" y2="112.5" class="net_103"/>
  <line x1="553" x2="595" y1="878" y2="878" class="net_103"/>
  <line x1="595" x2="595" y1="878" y2="1045" class="net_103"/>
  <line x1="595" x2="1062" y1="1045" y2="1045" class="net_103"/>
  <line x1="351" x2="363" y1="803" y2="803" class="net_3"/>
  <line x1="363" x2="363" y1="803" y2="1012" class="net_3"/>
  <line x1="363" x2="625" y1="1012" y2="1012" class="net_3"/>
  <line x1="625" x2="625" y1="1012" y2="1034" class="net_3"/>
  <line x1="625" x2="735" y1="1034" y2="1034" class="net_3"/>
  <circle cx="363" cy="803" r="2" style="fill:#000" class="net_3"/>
  <line x1="735" x2="735" y1="1034" y2="913" class="net_3"/>
  <line x1="351" x2="363" y1="803" y2="803" class="net_3"/>
  <line x1="363" x2="363" y1="803" y2="1012" class="net_3"/>
  <line x1="363" x2="625" y1="1012" y2="1012" class="net_3"/>
  <line x1="625" x2="625" y1="1012" y2="928" class="net_3"/>
  <line x1="625" x2="685" y1="928" y2="928" class="net_3"/>
  <line x1="685" x2="685" y1="928" y2="717" class="net_3"/>
  <line x1="685" x2="735" y1="717" y2="717" class="net_3"/>
  <circle cx="625" cy="1012" r="2" style="fill:#000" class="net_3"/>
  <line x1="735" x2="735" y1="717" y2="702" class="net_3"/>
  <line x1="351" x2="363" y1="803" y2="803" class="net_3"/>
  <line x1="363" x2="363" y1="803" y2="585" class="net_3"/>
  <line x1="363" x2="735" y1="585" y2="585" class="net_3"/>
  <circle cx="363" cy="585" r="2" style="fill:#000" class="net_3"/>
  <line x1="735" x2="735" y1="585" y2="317.5" class="net_3"/>
  <line x1="351" x2="363" y1="803" y2="803" class="net_3"/>
  <line x1="363" x2="363" y1="803" y2="1012" class="net_3"/>
  <line x1="363" x2="705" y1="1012" y2="1012" class="net_3"/>
  <line x1="705" x2="705" y1="1012" y2="868" class="net_3"/>
  <line x1="705" x2="735" y1="868" y2="868" class="net_3"/>
  <line x1="735" x2="735" y1="868" y2="853" class="net_3"/>
  <line x1="351" x2="363" y1="803" y2="803" class="net_3"/>
  <line x1="363" x2="363" y1="803" y2="585" class="net_3"/>
  <line x1="363" x2="625" y1="585" y2="585" class="net_3"/>
  <line x1="625" x2="625" y1="585" y2="657" class="net_3"/>
  <line x1="625" x2="735" y1="657" y2="657" class="net_3"/>
  <line x1="735" x2="735" y1="657" y2="641" class="net_3"/>
  <line x1="351" x2="363" y1="803" y2="803" class="net_3"/>
  <line x1="363" x2="363" y1="803" y2="585" class="net_3"/>
  <line x1="363" x2="625" y1="585" y2="585" class="net_3"/>
  <line x1="625" x2="625" y1="585" y2="261.5" class="net_3"/>
  <line x1="625" x2="735" y1="261.5" y2="261.5" class="net_3"/>
  <circle cx="625" cy="585" r="2" style="fill:#000" class="net_3"/>
  <line x1="735" x2="735" y1="261.5" y2="168.5" class="net_3"/>
  <line x1="351" x2="363" y1="803" y2="803" class="net_3"/>
  <line x1="363" x2="363" y1="803" y2="554" class="net_3"/>
  <line x1="363" x2="401.3333333333333" y1="554" y2="554" class="net_3"/>
  <line x1="401.3333333333333" x2="401.3333333333333" y1="554" y2="394.5" class="net_3"/>
  <line x1="665" x2="675" y1="742" y2="742" class="net_48,49,50,51,52,53,54,55"/>
  <line x1="675" x2="675" y1="742" y2="677" class="net_48,49,50,51,52,53,54,55"/>
  <line x1="675" x2="725" y1="677" y2="677" class="net_48,49,50,51,52,53,54,55"/>
  <line x1="665" x2="725" y1="292.5" y2="292.5" class="net_64,65"/>
  <line x1="665" x2="725" y1="828" y2="828" class="net_68"/>
  <line x1="665" x2="725" y1="616" y2="616" class="net_36,37,38,39,40,41,42,43"/>
  <line x1="665" x2="725" y1="143.5" y2="143.5" class="net_44,45"/>
  <line x1="288" x2="329.6666666666667" y1="379.5" y2="379.5" class="net_27,28,29,30,80,81,82,83"/>
  <line x1="282.33333333333337" x2="339.6666666666667" y1="456.5" y2="456.5" class="net_35,84"/>
  <line x1="339.6666666666667" x2="339.6666666666667" y1="456.5" y2="384.5" class="net_35,84"/>
  <line x1="135" x2="201" y1="764.5" y2="764.5" class="net_5,4"/>
  <line x1="135" x2="168" y1="764.5" y2="764.5" class="net_5,4"/>
  <line x1="168" x2="168" y1="764.5" y2="459" class="net_5,4"/>
  <circle cx="168" cy="764.5" r="2" style="fill:#000" class="net_5,4"/>
  <line x1="168" x2="201" y1="459" y2="459" class="net_5,4"/>
  <line x1="135" x2="168" y1="764.5" y2="764.5" class="net_5,4"/>
  <line x1="168" x2="168" y1="764.5" y2="928" class="net_5,4"/>
  <line x1="168" x2="531.6666666666667" y1="928" y2="928" class="net_5,4"/>
  <line x1="148" x2="178" y1="839" y2="839" class="net_105,106"/>
  <line x1="178" x2="178" y1="839" y2="779.5" class="net_105,106"/>
  <line x1="178" x2="201" y1="779.5" y2="779.5" class="net_105,106"/>
  <line x1="145.66666666666669" x2="201.33333333333334" y1="524" y2="524" class="net_89,90,91,92"/>
  <line x1="145.66666666666669" x2="158" y1="524" y2="524" class="net_89,90,91,92"/>
  <line x1="158" x2="158" y1="524" y2="81.5" class="net_89,90,91,92"/>
  <line x1="158" x2="781.5" y1="81.5" y2="81.5" class="net_89,90,91,92"/>
  <circle cx="158" cy="524" r="2" style="fill:#000" class="net_89,90,91,92"/>
  <line x1="781.5" x2="781.5" y1="81.5" y2="43" class="net_89,90,91,92"/>
  <line x1="143" x2="158" y1="894" y2="894" class="net_22"/>
  <line x1="158" x2="158" y1="894" y2="575" class="net_22"/>
  <line x1="158" x2="211.33333333333334" y1="575" y2="575" class="net_22"/>
  <circle cx="158" cy="894" r="2" style="fill:#000" class="net_22"/>
  <line x1="211.33333333333334" x2="211.33333333333334" y1="575" y2="549" class="net_22"/>
  <line x1="143" x2="158" y1="894" y2="894" class="net_22"/>
  <line x1="158" x2="158" y1="894" y2="1110" class="net_22"/>
  <line x1="158" x2="982" y1="1110" y2="1110" class="net_22"/>
  <line x1="982" x2="982" y1="1110" y2="1121" class="net_22"/>
  <line x1="982" x2="1017" y1="1121" y2="1121" class="net_22"/>
  <circle cx="982" cy="1110" r="2" style="fill:#000" class="net_22"/>
  <line x1="1017" x2="1017" y1="1121" y2="57.5" class="net_22"/>
  <line x1="143" x2="158" y1="894" y2="894" class="net_22"/>
  <line x1="158" x2="158" y1="894" y2="1110" class="net_22"/>
  <line x1="158" x2="1062" y1="1110" y2="1110" class="net_22"/>
  <line x1="349.6666666666667" x2="391.3333333333333" y1="369.5" y2="369.5" class="net_85,86,87,88"/>
  <line x1="353" x2="363" y1="486.5" y2="486.5" class="net_108,109,110,111"/>
  <line x1="363" x2="363" y1="486.5" y2="389.5" class="net_108,109,110,111"/>
  <line x1="363" x2="391.3333333333333" y1="389.5" y2="389.5" class="net_108,109,110,111"/>
  <line x1="553.6666666666667" x2="605" y1="935.5" y2="935.5" class="net_93"/>
  <line x1="605" x2="605" y1="935.5" y2="918" class="net_93"/>
  <line x1="605" x2="655" y1="918" y2="918" class="net_93"/>
  <circle cx="605" cy="918" r="2" style="fill:#000" class="net_93"/>
  <line x1="655" x2="655" y1="918" y2="903" class="net_93"/>
  <line x1="553.6666666666667" x2="605" y1="935.5" y2="935.5" class="net_93"/>
  <line x1="605" x2="605" y1="935.5" y2="798" class="net_93"/>
  <line x1="605" x2="655" y1="798" y2="798" class="net_93"/>
  <circle cx="605" cy="798" r="2" style="fill:#000" class="net_93"/>
  <line x1="655" x2="655" y1="798" y2="757" class="net_93"/>
  <line x1="553.6666666666667" x2="605" y1="935.5" y2="935.5" class="net_93"/>
  <line x1="605" x2="605" y1="935.5" y2="575" class="net_93"/>
  <line x1="605" x2="655" y1="575" y2="575" class="net_93"/>
  <line x1="655" x2="655" y1="575" y2="307.5" class="net_93"/>
  <line x1="488" x2="498" y1="959" y2="959" class="net_114,115"/>
  <line x1="498" x2="498" y1="959" y2="943" class="net_114,115"/>
  <line x1="498" x2="531.6666666666667" y1="943" y2="943" class="net_114,115"/>
  <line x1="929" x2="1007" y1="32.5" y2="32.5" class="net_94,95,96,97,98,99,100,101"/>
  <line x1="928" x2="982" y1="260" y2="260" class="net_119,120,121,122,123,124,125,126"/>
  <line x1="982" x2="982" y1="260" y2="52.5" class="net_119,120,121,122,123,124,125,126"/>
  <line x1="982" x2="1007" y1="52.5" y2="52.5" class="net_119,120,121,122,123,124,125,126"/>
  <line x1="786" x2="898" y1="32.5" y2="32.5" class="net_89,90"/>
  <line x1="805" x2="815" y1="163.5" y2="163.5" class="net_78,79,66,67"/>
  <line x1="815" x2="815" y1="163.5" y2="132.5" class="net_78,79,66,67"/>
  <line x1="815" x2="898" y1="132.5" y2="132.5" class="net_78,79,66,67"/>
  <line x1="799.3333333333334" x2="825" y1="240.5" y2="240.5" class="net_2,2"/>
  <line x1="825" x2="825" y1="240.5" y2="152.5" class="net_2,2"/>
  <line x1="825" x2="898" y1="152.5" y2="152.5" class="net_2,2"/>
  <line x1="805" x2="835" y1="636" y2="636" class="net_70,71,72,73,74,75,76,77,56,57,58,59,60,61,62,63"/>
  <line x1="835" x2="835" y1="636" y2="172.5" class="net_70,71,72,73,74,75,76,77,56,57,58,59,60,61,62,63"/>
  <line x1="835" x2="898" y1="172.5" y2="172.5" class="net_70,71,72,73,74,75,76,77,56,57,58,59,60,61,62,63"/>
  <line x1="803.6923076923077" x2="845" y1="708" y2="708" class="net_69,69,69,69,69,69,69,69,47,47,47,47,47,47,47,47"/>
  <line x1="845" x2="845" y1="708" y2="192.5" class="net_69,69,69,69,69,69,69,69,47,47,47,47,47,47,47,47"/>
  <line x1="845" x2="898" y1="192.5" y2="192.5" class="net_69,69,69,69,69,69,69,69,47,47,47,47,47,47,47,47"/>
  <line x1="1027" x2="1062" y1="42.5" y2="42.5" class="net_14,15,16,17,18,19,20,21"/>
  <line x1="223" x2="282" y1="369.5" y2="369.5" class="net_27,28,29,30"/>
  <line x1="221.33333333333334" x2="243" y1="534" y2="534" class="net_80,81,82,83"/>
  <line x1="243" x2="243" y1="534" y2="389.5" class="net_80,81,82,83"/>
  <line x1="243" x2="282" y1="389.5" y2="389.5" class="net_80,81,82,83"/>
  <line x1="223" x2="276.33333333333337" y1="466.5" y2="466.5" class="net_84"/>
  <line x1="76" x2="129" y1="754.5" y2="754.5" class="net_5"/>
  <line x1="76" x2="108" y1="819.5" y2="819.5" class="net_4"/>
  <line x1="108" x2="108" y1="819.5" y2="774.5" class="net_4"/>
  <line x1="108" x2="129" y1="774.5" y2="774.5" class="net_4"/>
  <line x1="745" x2="799" y1="153.5" y2="153.5" class="net_78,79"/>
  <line x1="745" x2="755" y1="302.5" y2="302.5" class="net_66,67"/>
  <line x1="755" x2="755" y1="302.5" y2="173.5" class="net_66,67"/>
  <line x1="755" x2="799" y1="173.5" y2="173.5" class="net_66,67"/>
  <line x1="745" x2="799" y1="626" y2="626" class="net_70,71,72,73,74,75,76,77"/>
  <line x1="745" x2="755" y1="687" y2="687" class="net_56,57,58,59,60,61,62,63"/>
  <line x1="755" x2="755" y1="687" y2="646" class="net_56,57,58,59,60,61,62,63"/>
  <line x1="755" x2="799" y1="646" y2="646" class="net_56,57,58,59,60,61,62,63"/>
  <line x1="745" x2="765" y1="838" y2="838" class="net_69"/>
  <line x1="765" x2="765" y1="838" y2="675.5" class="net_69"/>
  <line x1="765" x2="798.1923076923077" y1="675.5" y2="675.5" class="net_69"/>
  <circle cx="765" cy="838" r="2" style="fill:#000" class="net_69"/>
  <circle cx="765" cy="675.5" r="2" style="fill:#000" class="net_69"/>
  <line x1="798.1923076923077" x2="798.1923076923077" y1="675.5" y2="697.5" class="net_69"/>
  <line x1="745" x2="765" y1="838" y2="838" class="net_69"/>
  <line x1="765" x2="765" y1="838" y2="665.5" class="net_69"/>
  <line x1="765" x2="798.1923076923077" y1="665.5" y2="665.5" class="net_69"/>
  <line x1="798.1923076923077" x2="798.1923076923077" y1="665.5" y2="717.5" class="net_69"/>
  <line x1="745" x2="765" y1="838" y2="838" class="net_69"/>
  <line x1="765" x2="765" y1="838" y2="738" class="net_69"/>
  <circle cx="765" cy="738" r="2" style="fill:#000" class="net_69"/>
  <line x1="765" x2="797.6923076923077" y1="738" y2="738" class="net_69"/>
  <line x1="745" x2="765" y1="838" y2="838" class="net_69"/>
  <line x1="765" x2="765" y1="838" y2="758" class="net_69"/>
  <circle cx="765" cy="758" r="2" style="fill:#000" class="net_69"/>
  <line x1="765" x2="797.6923076923077" y1="758" y2="758" class="net_69"/>
  <line x1="745" x2="765" y1="838" y2="838" class="net_69"/>
  <line x1="765" x2="765" y1="838" y2="778" class="net_69"/>
  <circle cx="765" cy="778" r="2" style="fill:#000" class="net_69"/>
  <line x1="765" x2="797.6923076923077" y1="778" y2="778" class="net_69"/>
  <line x1="745" x2="765" y1="838" y2="838" class="net_69"/>
  <line x1="765" x2="765" y1="838" y2="798" class="net_69"/>
  <circle cx="765" cy="798" r="2" style="fill:#000" class="net_69"/>
  <line x1="765" x2="797.6923076923077" y1="798" y2="798" class="net_69"/>
  <line x1="745" x2="765" y1="838" y2="838" class="net_69"/>
  <line x1="765" x2="765" y1="838" y2="818" class="net_69"/>
  <circle cx="765" cy="818" r="2" style="fill:#000" class="net_69"/>
  <line x1="765" x2="797.6923076923077" y1="818" y2="818" class="net_69"/>
  <line x1="745" x2="797.6923076923077" y1="838" y2="838" class="net_69"/>
  <line x1="745" x2="755" y1="898" y2="898" class="net_47"/>
  <line x1="755" x2="755" y1="898" y2="858" class="net_47"/>
  <circle cx="755" cy="898" r="2" style="fill:#000" class="net_47"/>
  <line x1="755" x2="797.6923076923077" y1="858" y2="858" class="net_47"/>
  <line x1="745" x2="755" y1="898" y2="898" class="net_47"/>
  <line x1="755" x2="755" y1="898" y2="878" class="net_47"/>
  <circle cx="755" cy="878" r="2" style="fill:#000" class="net_47"/>
  <line x1="755" x2="797.6923076923077" y1="878" y2="878" class="net_47"/>
  <line x1="745" x2="797.6923076923077" y1="898" y2="898" class="net_47"/>
  <line x1="745" x2="755" y1="898" y2="898" class="net_47"/>
  <line x1="755" x2="755" y1="898" y2="918" class="net_47"/>
  <circle cx="755" cy="918" r="2" style="fill:#000" class="net_47"/>
  <line x1="755" x2="797.6923076923077" y1="918" y2="918" class="net_47"/>
  <line x1="745" x2="755" y1="898" y2="898" class="net_47"/>
  <line x1="755" x2="755" y1="898" y2="938" class="net_47"/>
  <circle cx="755" cy="938" r="2" style="fill:#000" class="net_47"/>
  <line x1="755" x2="797.6923076923077" y1="938" y2="938" class="net_47"/>
  <line x1="745" x2="755" y1="898" y2="898" class="net_47"/>
  <line x1="755" x2="755" y1="898" y2="958" class="net_47"/>
  <circle cx="755" cy="958" r="2" style="fill:#000" class="net_47"/>
  <line x1="755" x2="797.6923076923077" y1="958" y2="958" class="net_47"/>
  <line x1="745" x2="755" y1="898" y2="898" class="net_47"/>
  <line x1="755" x2="755" y1="898" y2="1027.5" class="net_47"/>
  <line x1="755" x2="798.1923076923077" y1="1027.5" y2="1027.5" class="net_47"/>
  <line x1="798.1923076923077" x2="798.1923076923077" y1="1027.5" y2="978.5" class="net_47"/>
  <line x1="745" x2="755" y1="898" y2="898" class="net_47"/>
  <line x1="755" x2="755" y1="898" y2="1017.5" class="net_47"/>
  <line x1="755" x2="798.1923076923077" y1="1017.5" y2="1017.5" class="net_47"/>
  <circle cx="755" cy="1017.5" r="2" style="fill:#000" class="net_47"/>
  <line x1="798.1923076923077" x2="798.1923076923077" y1="1017.5" y2="998.5" class="net_47"/>
</svg>
