<svg style="background:white" xmlns="http://www.w3.org/2000/svg" xmlns:xlink="http://www.w3.org/1999/xlink" xmlns:s="https://github.com/nturley/netlistsvg" width="380" height="190">
  <style>svg {
    stroke:#000;
    fill:none;
  }
  text {
    fill:#000;
    stroke:none;
    font-size:10px;
    font-weight: bold;
    font-family: "Courier New", monospace;
  }
  .nodelabel {
    text-anchor: middle;
  }
  .inputPortLabel {
    text-anchor: end;
  }
  .splitjoinBody {
    fill:#000;
  }</style>
  <g s:type="mux" transform="translate(241,22.5)" s:width="20" s:height="40" id="cell_$ternary$rtl/b_shift_1.v:10$1">
    <s:alias val="$pmux"/>
    <s:alias val="$mux"/>
    <s:alias val="$_MUX_"/>
    <path d="M0,0 L20,10 L20,30 L0,40 Z" class="cell_$ternary$rtl/b_shift_1.v:10$1"/>
    <g s:x="0" s:y="10" s:pid="A"/>
    <g s:x="0" s:y="30" s:pid="B"/>
    <g s:x="10" s:y="35" s:pid="S"/>
    <g s:x="20" s:y="20" s:pid="Y"/>
  </g>
  <g s:type="generic" transform="translate(102,90)" s:width="30" s:height="40" id="cell_uut0">
    <text x="15" y="-4" class="nodelabel cell_uut0" s:attribute="ref">left_shift_1</text>
    <rect width="30" height="20" s:generic="body" class="cell_uut0"/>
    <g transform="translate(0,10)" s:x="0" s:y="10" s:pid="in0" id="port_uut0~data">
      <text x="-3" y="-4" class="inputPortLabel cell_uut0">data</text>
    </g>
    <g transform="translate(30,10)" s:x="30" s:y="10" s:pid="out0" id="port_uut0~shifted_data">
      <text x="5" y="-4" style="fill:#000; stroke:none" class="cell_uut0">shifted_data</text>
    </g>
  </g>
  <g s:type="generic" transform="translate(102,22)" s:width="30" s:height="40" id="cell_uut1">
    <text x="15" y="-4" class="nodelabel cell_uut1" s:attribute="ref">right_shift_1</text>
    <rect width="30" height="20" s:generic="body" class="cell_uut1"/>
    <g transform="translate(0,10)" s:x="0" s:y="10" s:pid="in0" id="port_uut1~data">
      <text x="-3" y="-4" class="inputPortLabel cell_uut1">data</text>
    </g>
    <g transform="translate(30,10)" s:x="30" s:y="10" s:pid="out0" id="port_uut1~shifted_data">
      <text x="5" y="-4" style="fill:#000; stroke:none" class="cell_uut1">shifted_data</text>
    </g>
  </g>
  <g s:type="inputExt" transform="translate(102,158)" s:width="30" s:height="20" id="cell_lr">
    <text x="15" y="-4" class="nodelabel cell_lr" s:attribute="ref">lr</text>
    <s:alias val="$_inputExt_"/>
    <path d="M0,0 L0,20 L15,20 L30,10 L15,0 Z" class="cell_lr"/>
    <g s:x="28" s:y="10" s:pid="Y"/>
  </g>
  <g s:type="inputExt" transform="translate(12,22.5)" s:width="30" s:height="20" id="cell_data">
    <text x="15" y="-4" class="nodelabel cell_data" s:attribute="ref">data</text>
    <s:alias val="$_inputExt_"/>
    <path d="M0,0 L0,20 L15,20 L30,10 L15,0 Z" class="cell_data"/>
    <g s:x="28" s:y="10" s:pid="Y"/>
  </g>
  <g s:type="outputExt" transform="translate(296,32.5)" s:width="30" s:height="20" id="cell_shifted_data">
    <text x="15" y="-4" class="nodelabel cell_shifted_data" s:attribute="ref">shifted_data</text>
    <s:alias val="$_outputExt_"/>
    <path d="M30,0 L30,20 L15,20 L0,10 L15,0 Z" class="cell_shifted_data"/>
    <g s:x="0" s:y="10" s:pid="A"/>
  </g>
  <line x1="133" x2="241" y1="32.5" y2="32.5" class="net_19,20,21,22,23,24,25,26"/>
  <line x1="133" x2="216" y1="100.5" y2="100.5" class="net_27,28,29,30,31,32,33,34"/>
  <line x1="216" x2="216" y1="100.5" y2="52.5" class="net_27,28,29,30,31,32,33,34"/>
  <line x1="216" x2="241" y1="52.5" y2="52.5" class="net_27,28,29,30,31,32,33,34"/>
  <line x1="130" x2="251" y1="168" y2="168" class="net_2"/>
  <line x1="251" x2="251" y1="168" y2="57.5" class="net_2"/>
  <line x1="40" x2="52" y1="32.5" y2="32.5" class="net_3,4,5,6,7,8,9,10"/>
  <line x1="52" x2="52" y1="32.5" y2="100.5" class="net_3,4,5,6,7,8,9,10"/>
  <circle cx="52" cy="32.5" r="2" style="fill:#000" class="net_3,4,5,6,7,8,9,10"/>
  <line x1="52" x2="102" y1="100.5" y2="100.5" class="net_3,4,5,6,7,8,9,10"/>
  <line x1="40" x2="102" y1="32.5" y2="32.5" class="net_3,4,5,6,7,8,9,10"/>
  <line x1="261" x2="296" y1="42.5" y2="42.5" class="net_11,12,13,14,15,16,17,18"/>
</svg>
