<svg style="background:white" xmlns="http://www.w3.org/2000/svg" xmlns:xlink="http://www.w3.org/1999/xlink" xmlns:s="https://github.com/nturley/netlistsvg" width="784" height="931">
  <style>svg {
    stroke:#000;
    fill:none;
  }
  text {
    fill:#000;
    stroke:none;
    font-size:10px;
    font-weight: bold;
    font-family: "Courier New", monospace;
  }
  .nodelabel {
    text-anchor: middle;
  }
  .inputPortLabel {
    text-anchor: end;
  }
  .splitjoinBody {
    fill:#000;
  }</style>
  <g s:type="or" transform="translate(490,37)" s:width="30" s:height="25" id="cell_$or$rtl/barrel_shifter.v:21$11">
    <s:alias val="$or"/>
    <s:alias val="$logic_or"/>
    <s:alias val="$_OR_"/>
    <path d="M0,25 L0,25 L15,25 A15 12.5 0 0 0 15,0 L0,0" class="cell_$or$rtl/barrel_shifter.v:21$11"/>
    <path d="M0,0 A30 25 0 0 1 0,25" class="cell_$or$rtl/barrel_shifter.v:21$11"/>
    <g s:x="3" s:y="5" s:pid="A"/>
    <g s:x="3" s:y="20" s:pid="B"/>
    <g s:x="30" s:y="12.5" s:pid="Y"/>
  </g>
  <g s:type="generic" transform="translate(269,278)" s:width="30" s:height="40" id="cell_$shl$rtl/barrel_shifter.v:21$10">
    <text x="15" y="-4" class="nodelabel cell_$shl$rtl/barrel_shifter.v:21$10" s:attribute="ref">$shl</text>
    <rect width="30" height="40" s:generic="body" class="cell_$shl$rtl/barrel_shifter.v:21$10"/>
    <g transform="translate(0,10)" s:x="0" s:y="10" s:pid="in0" id="port_$shl$rtl/barrel_shifter.v:21$10~A">
      <text x="-3" y="-4" class="inputPortLabel cell_$shl$rtl/barrel_shifter.v:21$10">A</text>
    </g>
    <g transform="translate(0,30)" s:x="0" s:y="10" s:pid="in0" id="port_$shl$rtl/barrel_shifter.v:21$10~B">
      <text x="-3" y="-4" class="inputPortLabel cell_$shl$rtl/barrel_shifter.v:21$10">B</text>
    </g>
    <g transform="translate(30,10)" s:x="30" s:y="10" s:pid="out0" id="port_$shl$rtl/barrel_shifter.v:21$10~Y">
      <text x="5" y="-4" style="fill:#000; stroke:none" class="cell_$shl$rtl/barrel_shifter.v:21$10">Y</text>
    </g>
  </g>
  <g s:type="generic" transform="translate(275,31.5)" s:width="30" s:height="40" id="cell_$shr$rtl/barrel_shifter.v:21$8">
    <text x="15" y="-4" class="nodelabel cell_$shr$rtl/barrel_shifter.v:21$8" s:attribute="ref">$shr</text>
    <rect width="30" height="40" s:generic="body" class="cell_$shr$rtl/barrel_shifter.v:21$8"/>
    <g transform="translate(0,10)" s:x="0" s:y="10" s:pid="in0" id="port_$shr$rtl/barrel_shifter.v:21$8~A">
      <text x="-3" y="-4" class="inputPortLabel cell_$shr$rtl/barrel_shifter.v:21$8">A</text>
    </g>
    <g transform="translate(0,30)" s:x="0" s:y="10" s:pid="in0" id="port_$shr$rtl/barrel_shifter.v:21$8~B">
      <text x="-3" y="-4" class="inputPortLabel cell_$shr$rtl/barrel_shifter.v:21$8">B</text>
    </g>
    <g transform="translate(30,10)" s:x="30" s:y="10" s:pid="out0" id="port_$shr$rtl/barrel_shifter.v:21$8~Y">
      <text x="5" y="-4" style="fill:#000; stroke:none" class="cell_$shr$rtl/barrel_shifter.v:21$8">Y</text>
    </g>
  </g>
  <g s:type="sub" transform="translate(77,768.5)" s:width="25" s:height="25" id="cell_$sub$rtl/barrel_shifter.v:21$9">
    <s:alias val="$sub"/>
    <circle r="12.5" cx="12.5" cy="12.5" class="cell_$sub$rtl/barrel_shifter.v:21$9"/>
    <line x1="7.5" x2="17.5" y1="12.5" y2="12.5" class="cell_$sub$rtl/barrel_shifter.v:21$9"/>
    <g s:x="3" s:y="5" s:pid="A"/>
    <g s:x="3" s:y="20" s:pid="B"/>
    <g s:x="25" s:y="12.5" s:pid="Y"/>
  </g>
  <g s:type="mux" transform="translate(207,22)" s:width="20" s:height="40" id="cell_$ternary$rtl/barrel_shifter.v:20$7">
    <s:alias val="$pmux"/>
    <s:alias val="$mux"/>
    <s:alias val="$_MUX_"/>
    <path d="M0,0 L20,10 L20,30 L0,40 Z" class="cell_$ternary$rtl/barrel_shifter.v:20$7"/>
    <g s:x="0" s:y="10" s:pid="A"/>
    <g s:x="0" s:y="30" s:pid="B"/>
    <g s:x="10" s:y="35" s:pid="S"/>
    <g s:x="20" s:y="20" s:pid="Y"/>
  </g>
  <g s:type="mux" transform="translate(645,39.5)" s:width="20" s:height="40" id="cell_$ternary$rtl/barrel_shifter.v:22$12">
    <s:alias val="$pmux"/>
    <s:alias val="$mux"/>
    <s:alias val="$_MUX_"/>
    <path d="M0,0 L20,10 L20,30 L0,40 Z" class="cell_$ternary$rtl/barrel_shifter.v:22$12"/>
    <g s:x="0" s:y="10" s:pid="A"/>
    <g s:x="0" s:y="30" s:pid="B"/>
    <g s:x="10" s:y="35" s:pid="S"/>
    <g s:x="20" s:y="20" s:pid="Y"/>
  </g>
  <g s:type="inputExt" transform="translate(137,888)" s:width="30" s:height="20" id="cell_lr">
    <text x="15" y="-4" class="nodelabel cell_lr" s:attribute="ref">lr</text>
    <s:alias val="$_inputExt_"/>
    <path d="M0,0 L0,20 L15,20 L30,10 L15,0 Z" class="cell_lr"/>
    <g s:x="28" s:y="10" s:pid="Y"/>
  </g>
  <g s:type="inputExt" transform="translate(12,225)" s:width="30" s:height="20" id="cell_amt">
    <text x="15" y="-4" class="nodelabel cell_amt" s:attribute="ref">amt</text>
    <s:alias val="$_inputExt_"/>
    <path d="M0,0 L0,20 L15,20 L30,10 L15,0 Z" class="cell_amt"/>
    <g s:x="28" s:y="10" s:pid="Y"/>
  </g>
  <g s:type="inputExt" transform="translate(12,22)" s:width="30" s:height="20" id="cell_data">
    <text x="15" y="-4" class="nodelabel cell_data" s:attribute="ref">data</text>
    <s:alias val="$_inputExt_"/>
    <path d="M0,0 L0,20 L15,20 L30,10 L15,0 Z" class="cell_data"/>
    <g s:x="28" s:y="10" s:pid="Y"/>
  </g>
  <g s:type="outputExt" transform="translate(700,49.5)" s:width="30" s:height="20" id="cell_shifted_data">
    <text x="15" y="-4" class="nodelabel cell_shifted_data" s:attribute="ref">shifted_data</text>
    <s:alias val="$_outputExt_"/>
    <path d="M30,0 L30,20 L15,20 L0,10 L15,0 Z" class="cell_shifted_data"/>
    <g s:x="0" s:y="10" s:pid="A"/>
  </g>
  <g s:type="constant" transform="translate(12,763.5)" s:width="30" s:height="20" id="cell_1000">
    <text x="15" y="-4" class="nodelabel cell_1000" s:attribute="ref">0x8</text>
    <s:alias val="$_constant_"/>
    <rect width="30" height="20" class="cell_1000"/>
    <g s:x="30" s:y="10" s:pid="Y"/>
  </g>
  <g s:type="join" transform="translate(207,288)" s:width="4" s:height="40" id="cell_$join$,54,55,56,57,58,58,58,58,58,58,58,58,58,58,58,58,58,58,58,58,58,58,58,58,58,58,58,58,58,58,58,58,">
    <rect width="5" height="560" class="splitjoinBody" s:generic="body"/>
    <s:alias val="$_join_"/>
    <g s:x="5" s:y="20" s:pid="out"/>
    <g transform="translate(0,10)" s:x="0" s:y="10" s:pid="in0">
      <text x="-3" y="-4" class="inputPortLabel">0:4</text>
    </g>
    <g transform="translate(0,30)" s:x="0" s:y="10" s:pid="in0">
      <text x="-3" y="-4" class="inputPortLabel">5</text>
    </g>
    <g transform="translate(0,50)" s:x="0" s:y="10" s:pid="in0">
      <text x="-3" y="-4" class="inputPortLabel">6</text>
    </g>
    <g transform="translate(0,70)" s:x="0" s:y="10" s:pid="in0">
      <text x="-3" y="-4" class="inputPortLabel">7</text>
    </g>
    <g transform="translate(0,90)" s:x="0" s:y="10" s:pid="in0">
      <text x="-3" y="-4" class="inputPortLabel">8</text>
    </g>
    <g transform="translate(0,110)" s:x="0" s:y="10" s:pid="in0">
      <text x="-3" y="-4" class="inputPortLabel">9</text>
    </g>
    <g transform="translate(0,130)" s:x="0" s:y="10" s:pid="in0">
      <text x="-3" y="-4" class="inputPortLabel">10</text>
    </g>
    <g transform="translate(0,150)" s:x="0" s:y="10" s:pid="in0">
      <text x="-3" y="-4" class="inputPortLabel">11</text>
    </g>
    <g transform="translate(0,170)" s:x="0" s:y="10" s:pid="in0">
      <text x="-3" y="-4" class="inputPortLabel">12</text>
    </g>
    <g transform="translate(0,190)" s:x="0" s:y="10" s:pid="in0">
      <text x="-3" y="-4" class="inputPortLabel">13</text>
    </g>
    <g transform="translate(0,210)" s:x="0" s:y="10" s:pid="in0">
      <text x="-3" y="-4" class="inputPortLabel">14</text>
    </g>
    <g transform="translate(0,230)" s:x="0" s:y="10" s:pid="in0">
      <text x="-3" y="-4" class="inputPortLabel">15</text>
    </g>
    <g transform="translate(0,250)" s:x="0" s:y="10" s:pid="in0">
      <text x="-3" y="-4" class="inputPortLabel">16</text>
    </g>
    <g transform="translate(0,270)" s:x="0" s:y="10" s:pid="in0">
      <text x="-3" y="-4" class="inputPortLabel">17</text>
    </g>
    <g transform="translate(0,290)" s:x="0" s:y="10" s:pid="in0">
      <text x="-3" y="-4" class="inputPortLabel">18</text>
    </g>
    <g transform="translate(0,310)" s:x="0" s:y="10" s:pid="in0">
      <text x="-3" y="-4" class="inputPortLabel">19</text>
    </g>
    <g transform="translate(0,330)" s:x="0" s:y="10" s:pid="in0">
      <text x="-3" y="-4" class="inputPortLabel">20</text>
    </g>
    <g transform="translate(0,350)" s:x="0" s:y="10" s:pid="in0">
      <text x="-3" y="-4" class="inputPortLabel">21</text>
    </g>
    <g transform="translate(0,370)" s:x="0" s:y="10" s:pid="in0">
      <text x="-3" y="-4" class="inputPortLabel">22</text>
    </g>
    <g transform="translate(0,390)" s:x="0" s:y="10" s:pid="in0">
      <text x="-3" y="-4" class="inputPortLabel">23</text>
    </g>
    <g transform="translate(0,410)" s:x="0" s:y="10" s:pid="in0">
      <text x="-3" y="-4" class="inputPortLabel">24</text>
    </g>
    <g transform="translate(0,430)" s:x="0" s:y="10" s:pid="in0">
      <text x="-3" y="-4" class="inputPortLabel">25</text>
    </g>
    <g transform="translate(0,450)" s:x="0" s:y="10" s:pid="in0">
      <text x="-3" y="-4" class="inputPortLabel">26</text>
    </g>
    <g transform="translate(0,470)" s:x="0" s:y="10" s:pid="in0">
      <text x="-3" y="-4" class="inputPortLabel">27</text>
    </g>
    <g transform="translate(0,490)" s:x="0" s:y="10" s:pid="in0">
      <text x="-3" y="-4" class="inputPortLabel">28</text>
    </g>
    <g transform="translate(0,510)" s:x="0" s:y="10" s:pid="in0">
      <text x="-3" y="-4" class="inputPortLabel">29</text>
    </g>
    <g transform="translate(0,530)" s:x="0" s:y="10" s:pid="in0">
      <text x="-3" y="-4" class="inputPortLabel">30</text>
    </g>
    <g transform="translate(0,550)" s:x="0" s:y="10" s:pid="in0">
      <text x="-3" y="-4" class="inputPortLabel">31</text>
    </g>
  </g>
  <g s:type="join" transform="translate(140.71428571428572,55)" s:width="4" s:height="40" id="cell_$join$,13,12,11,10,9,8,7,6,">
    <rect width="5" height="160" class="splitjoinBody" s:generic="body"/>
    <s:alias val="$_join_"/>
    <g s:x="5" s:y="20" s:pid="out"/>
    <g transform="translate(0,10)" s:x="0" s:y="10" s:pid="in0">
      <text x="-3" y="-4" class="inputPortLabel">0</text>
    </g>
    <g transform="translate(0,30)" s:x="0" s:y="10" s:pid="in0">
      <text x="-3" y="-4" class="inputPortLabel">1</text>
    </g>
    <g transform="translate(0,50)" s:x="0" s:y="10" s:pid="in0">
      <text x="-3" y="-4" class="inputPortLabel">2</text>
    </g>
    <g transform="translate(0,70)" s:x="0" s:y="10" s:pid="in0">
      <text x="-3" y="-4" class="inputPortLabel">3</text>
    </g>
    <g transform="translate(0,90)" s:x="0" s:y="10" s:pid="in0">
      <text x="-3" y="-4" class="inputPortLabel">4</text>
    </g>
    <g transform="translate(0,110)" s:x="0" s:y="10" s:pid="in0">
      <text x="-3" y="-4" class="inputPortLabel">5</text>
    </g>
    <g transform="translate(0,130)" s:x="0" s:y="10" s:pid="in0">
      <text x="-3" y="-4" class="inputPortLabel">6</text>
    </g>
    <g transform="translate(0,150)" s:x="0" s:y="10" s:pid="in0">
      <text x="-3" y="-4" class="inputPortLabel">7</text>
    </g>
  </g>
  <g s:type="join" transform="translate(602,72.5)" s:width="4" s:height="40" id="cell_$join$,45,44,43,42,41,40,39,38,">
    <rect width="5" height="160" class="splitjoinBody" s:generic="body"/>
    <s:alias val="$_join_"/>
    <g s:x="5" s:y="20" s:pid="out"/>
    <g transform="translate(0,10)" s:x="0" s:y="10" s:pid="in0">
      <text x="-3" y="-4" class="inputPortLabel">0</text>
    </g>
    <g transform="translate(0,30)" s:x="0" s:y="10" s:pid="in0">
      <text x="-3" y="-4" class="inputPortLabel">1</text>
    </g>
    <g transform="translate(0,50)" s:x="0" s:y="10" s:pid="in0">
      <text x="-3" y="-4" class="inputPortLabel">2</text>
    </g>
    <g transform="translate(0,70)" s:x="0" s:y="10" s:pid="in0">
      <text x="-3" y="-4" class="inputPortLabel">3</text>
    </g>
    <g transform="translate(0,90)" s:x="0" s:y="10" s:pid="in0">
      <text x="-3" y="-4" class="inputPortLabel">4</text>
    </g>
    <g transform="translate(0,110)" s:x="0" s:y="10" s:pid="in0">
      <text x="-3" y="-4" class="inputPortLabel">5</text>
    </g>
    <g transform="translate(0,130)" s:x="0" s:y="10" s:pid="in0">
      <text x="-3" y="-4" class="inputPortLabel">6</text>
    </g>
    <g transform="translate(0,150)" s:x="0" s:y="10" s:pid="in0">
      <text x="-3" y="-4" class="inputPortLabel">7</text>
    </g>
  </g>
  <g s:type="split" transform="translate(155,748)" s:width="5" s:height="40" id="cell_$split$,54,55,56,57,58,">
    <rect width="5" height="20" class="splitjoinBody" s:generic="body"/>
    <s:alias val="$_split_"/>
    <g s:x="0" s:y="20" s:pid="in"/>
    <g transform="translate(4,10)" s:x="4" s:y="10" s:pid="out0">
      <text x="5" y="-4">4</text>
    </g>
  </g>
  <g s:type="split" transform="translate(89.14285714285714,55)" s:width="5" s:height="40" id="cell_$split$,6,7,8,9,10,11,12,13,">
    <rect width="5" height="160" class="splitjoinBody" s:generic="body"/>
    <s:alias val="$_split_"/>
    <g s:x="0" s:y="20" s:pid="in"/>
    <g transform="translate(4,10)" s:x="4" s:y="10" s:pid="out0">
      <text x="5" y="-4">7</text>
    </g>
    <g transform="translate(4,30)" s:x="4" s:y="10" s:pid="out0">
      <text x="5" y="-4">6</text>
    </g>
    <g transform="translate(4,50)" s:x="4" s:y="10" s:pid="out0">
      <text x="5" y="-4">5</text>
    </g>
    <g transform="translate(4,70)" s:x="4" s:y="10" s:pid="out0">
      <text x="5" y="-4">4</text>
    </g>
    <g transform="translate(4,90)" s:x="4" s:y="10" s:pid="out0">
      <text x="5" y="-4">3</text>
    </g>
    <g transform="translate(4,110)" s:x="4" s:y="10" s:pid="out0">
      <text x="5" y="-4">2</text>
    </g>
    <g transform="translate(4,130)" s:x="4" s:y="10" s:pid="out0">
      <text x="5" y="-4">1</text>
    </g>
    <g transform="translate(4,150)" s:x="4" s:y="10" s:pid="out0">
      <text x="5" y="-4">0</text>
    </g>
  </g>
  <g s:type="split" transform="translate(555,72.5)" s:width="5" s:height="40" id="cell_$split$,38,39,40,41,42,43,44,45,">
    <rect width="5" height="160" class="splitjoinBody" s:generic="body"/>
    <s:alias val="$_split_"/>
    <g s:x="0" s:y="20" s:pid="in"/>
    <g transform="translate(4,10)" s:x="4" s:y="10" s:pid="out0">
      <text x="5" y="-4">7</text>
    </g>
    <g transform="translate(4,30)" s:x="4" s:y="10" s:pid="out0">
      <text x="5" y="-4">6</text>
    </g>
    <g transform="translate(4,50)" s:x="4" s:y="10" s:pid="out0">
      <text x="5" y="-4">5</text>
    </g>
    <g transform="translate(4,70)" s:x="4" s:y="10" s:pid="out0">
      <text x="5" y="-4">4</text>
    </g>
    <g transform="translate(4,90)" s:x="4" s:y="10" s:pid="out0">
      <text x="5" y="-4">3</text>
    </g>
    <g transform="translate(4,110)" s:x="4" s:y="10" s:pid="out0">
      <text x="5" y="-4">2</text>
    </g>
    <g transform="translate(4,130)" s:x="4" s:y="10" s:pid="out0">
      <text x="5" y="-4">1</text>
    </g>
    <g transform="translate(4,150)" s:x="4" s:y="10" s:pid="out0">
      <text x="5" y="-4">0</text>
    </g>
  </g>
  <line x1="306" x2="493" y1="42" y2="42" class="net_22,23,24,25,26,27,28,29"/>
  <line x1="300" x2="465" y1="288.5" y2="288.5" class="net_30,31,32,33,34,35,36,37"/>
  <line x1="465" x2="465" y1="288.5" y2="57" class="net_30,31,32,33,34,35,36,37"/>
  <line x1="465" x2="493" y1="57" y2="57" class="net_30,31,32,33,34,35,36,37"/>
  <line x1="227" x2="247" y1="42" y2="42" class="net_46,47,48,49,50,51,52,53"/>
  <line x1="247" x2="247" y1="42" y2="288.5" class="net_46,47,48,49,50,51,52,53"/>
  <circle cx="247" cy="42" r="2" style="fill:#000" class="net_46,47,48,49,50,51,52,53"/>
  <line x1="247" x2="269" y1="288.5" y2="288.5" class="net_46,47,48,49,50,51,52,53"/>
  <line x1="227" x2="275" y1="42" y2="42" class="net_46,47,48,49,50,51,52,53"/>
  <line x1="213" x2="269" y1="308.5" y2="308.5" class="net_54,55,56,57,58,58,58,58,58,58,58,58,58,58,58,58,58,58,58,58,58,58,58,58,58,58,58,58,58,58,58,58"/>
  <line x1="40" x2="237" y1="235" y2="235" class="net_3,4,5"/>
  <line x1="237" x2="237" y1="235" y2="62" class="net_3,4,5"/>
  <line x1="237" x2="275" y1="62" y2="62" class="net_3,4,5"/>
  <line x1="40" x2="52" y1="235" y2="235" class="net_3,4,5"/>
  <line x1="52" x2="52" y1="235" y2="788.5" class="net_3,4,5"/>
  <circle cx="52" cy="235" r="2" style="fill:#000" class="net_3,4,5"/>
  <line x1="52" x2="80" y1="788.5" y2="788.5" class="net_3,4,5"/>
  <line x1="42" x2="80" y1="773.5" y2="773.5" class="net_59,60,61,62"/>
  <line x1="40" x2="207" y1="32" y2="32" class="net_6,7,8,9,10,11,12,13"/>
  <line x1="40" x2="52" y1="32" y2="32" class="net_6,7,8,9,10,11,12,13"/>
  <line x1="52" x2="52" y1="32" y2="75.5" class="net_6,7,8,9,10,11,12,13"/>
  <circle cx="52" cy="32" r="2" style="fill:#000" class="net_6,7,8,9,10,11,12,13"/>
  <line x1="52" x2="89.14285714285714" y1="75.5" y2="75.5" class="net_6,7,8,9,10,11,12,13"/>
  <line x1="146.71428571428572" x2="177" y1="75.5" y2="75.5" class="net_13,12,11,10,9,8,7,6"/>
  <line x1="177" x2="177" y1="75.5" y2="52" class="net_13,12,11,10,9,8,7,6"/>
  <line x1="177" x2="207" y1="52" y2="52" class="net_13,12,11,10,9,8,7,6"/>
  <line x1="165" x2="177" y1="898" y2="898" class="net_2"/>
  <line x1="177" x2="177" y1="898" y2="246" class="net_2"/>
  <line x1="177" x2="217" y1="246" y2="246" class="net_2"/>
  <circle cx="177" cy="898" r="2" style="fill:#000" class="net_2"/>
  <line x1="217" x2="217" y1="246" y2="57" class="net_2"/>
  <line x1="165" x2="655" y1="898" y2="898" class="net_2"/>
  <line x1="655" x2="655" y1="898" y2="74.5" class="net_2"/>
  <line x1="520" x2="645" y1="49.5" y2="49.5" class="net_38,39,40,41,42,43,44,45"/>
  <line x1="520" x2="530" y1="49.5" y2="49.5" class="net_38,39,40,41,42,43,44,45"/>
  <line x1="530" x2="530" y1="49.5" y2="93" class="net_38,39,40,41,42,43,44,45"/>
  <circle cx="530" cy="49.5" r="2" style="fill:#000" class="net_38,39,40,41,42,43,44,45"/>
  <line x1="530" x2="555" y1="93" y2="93" class="net_38,39,40,41,42,43,44,45"/>
  <line x1="608" x2="620" y1="93" y2="93" class="net_45,44,43,42,41,40,39,38"/>
  <line x1="620" x2="620" y1="93" y2="69.5" class="net_45,44,43,42,41,40,39,38"/>
  <line x1="620" x2="645" y1="69.5" y2="69.5" class="net_45,44,43,42,41,40,39,38"/>
  <line x1="665" x2="700" y1="59.5" y2="59.5" class="net_14,15,16,17,18,19,20,21"/>
  <line x1="102" x2="112" y1="781" y2="781" class="net_54,55,56,57,58"/>
  <line x1="112" x2="112" y1="781" y2="918" class="net_54,55,56,57,58"/>
  <line x1="112" x2="187" y1="918" y2="918" class="net_54,55,56,57,58"/>
  <line x1="187" x2="187" y1="918" y2="276" class="net_54,55,56,57,58"/>
  <line x1="187" x2="207.5" y1="276" y2="276" class="net_54,55,56,57,58"/>
  <circle cx="112" cy="781" r="2" style="fill:#000" class="net_54,55,56,57,58"/>
  <line x1="207.5" x2="207.5" y1="276" y2="298" class="net_54,55,56,57,58"/>
  <line x1="102" x2="155.5" y1="781" y2="781" class="net_54,55,56,57,58"/>
  <line x1="155.5" x2="155.5" y1="781" y2="769" class="net_54,55,56,57,58"/>
  <line x1="160" x2="197" y1="758.5" y2="758.5" class="net_58"/>
  <line x1="197" x2="197" y1="758.5" y2="266" class="net_58"/>
  <line x1="197" x2="207.5" y1="266" y2="266" class="net_58"/>
  <circle cx="197" cy="758.5" r="2" style="fill:#000" class="net_58"/>
  <circle cx="197" cy="266" r="2" style="fill:#000" class="net_58"/>
  <line x1="207.5" x2="207.5" y1="266" y2="318" class="net_58"/>
  <line x1="160" x2="197" y1="758.5" y2="758.5" class="net_58"/>
  <line x1="197" x2="197" y1="758.5" y2="256" class="net_58"/>
  <line x1="197" x2="207.5" y1="256" y2="256" class="net_58"/>
  <line x1="207.5" x2="207.5" y1="256" y2="338" class="net_58"/>
  <line x1="160" x2="197" y1="758.5" y2="758.5" class="net_58"/>
  <line x1="197" x2="197" y1="758.5" y2="358.5" class="net_58"/>
  <circle cx="197" cy="358.5" r="2" style="fill:#000" class="net_58"/>
  <line x1="197" x2="207" y1="358.5" y2="358.5" class="net_58"/>
  <line x1="160" x2="197" y1="758.5" y2="758.5" class="net_58"/>
  <line x1="197" x2="197" y1="758.5" y2="378.5" class="net_58"/>
  <circle cx="197" cy="378.5" r="2" style="fill:#000" class="net_58"/>
  <line x1="197" x2="207" y1="378.5" y2="378.5" class="net_58"/>
  <line x1="160" x2="197" y1="758.5" y2="758.5" class="net_58"/>
  <line x1="197" x2="197" y1="758.5" y2="398.5" class="net_58"/>
  <circle cx="197" cy="398.5" r="2" style="fill:#000" class="net_58"/>
  <line x1="197" x2="207" y1="398.5" y2="398.5" class="net_58"/>
  <line x1="160" x2="197" y1="758.5" y2="758.5" class="net_58"/>
  <line x1="197" x2="197" y1="758.5" y2="418.5" class="net_58"/>
  <circle cx="197" cy="418.5" r="2" style="fill:#000" class="net_58"/>
  <line x1="197" x2="207" y1="418.5" y2="418.5" class="net_58"/>
  <line x1="160" x2="197" y1="758.5" y2="758.5" class="net_58"/>
  <line x1="197" x2="197" y1="758.5" y2="438.5" class="net_58"/>
  <circle cx="197" cy="438.5" r="2" style="fill:#000" class="net_58"/>
  <line x1="197" x2="207" y1="438.5" y2="438.5" class="net_58"/>
  <line x1="160" x2="197" y1="758.5" y2="758.5" class="net_58"/>
  <line x1="197" x2="197" y1="758.5" y2="458.5" class="net_58"/>
  <circle cx="197" cy="458.5" r="2" style="fill:#000" class="net_58"/>
  <line x1="197" x2="207" y1="458.5" y2="458.5" class="net_58"/>
  <line x1="160" x2="197" y1="758.5" y2="758.5" class="net_58"/>
  <line x1="197" x2="197" y1="758.5" y2="478.5" class="net_58"/>
  <circle cx="197" cy="478.5" r="2" style="fill:#000" class="net_58"/>
  <line x1="197" x2="207" y1="478.5" y2="478.5" class="net_58"/>
  <line x1="160" x2="197" y1="758.5" y2="758.5" class="net_58"/>
  <line x1="197" x2="197" y1="758.5" y2="498.5" class="net_58"/>
  <circle cx="197" cy="498.5" r="2" style="fill:#000" class="net_58"/>
  <line x1="197" x2="207" y1="498.5" y2="498.5" class="net_58"/>
  <line x1="160" x2="197" y1="758.5" y2="758.5" class="net_58"/>
  <line x1="197" x2="197" y1="758.5" y2="518.5" class="net_58"/>
  <circle cx="197" cy="518.5" r="2" style="fill:#000" class="net_58"/>
  <line x1="197" x2="207" y1="518.5" y2="518.5" class="net_58"/>
  <line x1="160" x2="197" y1="758.5" y2="758.5" class="net_58"/>
  <line x1="197" x2="197" y1="758.5" y2="538.5" class="net_58"/>
  <circle cx="197" cy="538.5" r="2" style="fill:#000" class="net_58"/>
  <line x1="197" x2="207" y1="538.5" y2="538.5" class="net_58"/>
  <line x1="160" x2="197" y1="758.5" y2="758.5" class="net_58"/>
  <line x1="197" x2="197" y1="758.5" y2="558.5" class="net_58"/>
  <circle cx="197" cy="558.5" r="2" style="fill:#000" class="net_58"/>
  <line x1="197" x2="207" y1="558.5" y2="558.5" class="net_58"/>
  <line x1="160" x2="197" y1="758.5" y2="758.5" class="net_58"/>
  <line x1="197" x2="197" y1="758.5" y2="578.5" class="net_58"/>
  <circle cx="197" cy="578.5" r="2" style="fill:#000" class="net_58"/>
  <line x1="197" x2="207" y1="578.5" y2="578.5" class="net_58"/>
  <line x1="160" x2="197" y1="758.5" y2="758.5" class="net_58"/>
  <line x1="197" x2="197" y1="758.5" y2="598.5" class="net_58"/>
  <circle cx="197" cy="598.5" r="2" style="fill:#000" class="net_58"/>
  <line x1="197" x2="207" y1="598.5" y2="598.5" class="net_58"/>
  <line x1="160" x2="197" y1="758.5" y2="758.5" class="net_58"/>
  <line x1="197" x2="197" y1="758.5" y2="618.5" class="net_58"/>
  <circle cx="197" cy="618.5" r="2" style="fill:#000" class="net_58"/>
  <line x1="197" x2="207" y1="618.5" y2="618.5" class="net_58"/>
  <line x1="160" x2="197" y1="758.5" y2="758.5" class="net_58"/>
  <line x1="197" x2="197" y1="758.5" y2="638.5" class="net_58"/>
  <circle cx="197" cy="638.5" r="2" style="fill:#000" class="net_58"/>
  <line x1="197" x2="207" y1="638.5" y2="638.5" class="net_58"/>
  <line x1="160" x2="197" y1="758.5" y2="758.5" class="net_58"/>
  <line x1="197" x2="197" y1="758.5" y2="658.5" class="net_58"/>
  <circle cx="197" cy="658.5" r="2" style="fill:#000" class="net_58"/>
  <line x1="197" x2="207" y1="658.5" y2="658.5" class="net_58"/>
  <line x1="160" x2="197" y1="758.5" y2="758.5" class="net_58"/>
  <line x1="197" x2="197" y1="758.5" y2="678.5" class="net_58"/>
  <circle cx="197" cy="678.5" r="2" style="fill:#000" class="net_58"/>
  <line x1="197" x2="207" y1="678.5" y2="678.5" class="net_58"/>
  <line x1="160" x2="197" y1="758.5" y2="758.5" class="net_58"/>
  <line x1="197" x2="197" y1="758.5" y2="698.5" class="net_58"/>
  <circle cx="197" cy="698.5" r="2" style="fill:#000" class="net_58"/>
  <line x1="197" x2="207" y1="698.5" y2="698.5" class="net_58"/>
  <line x1="160" x2="197" y1="758.5" y2="758.5" class="net_58"/>
  <line x1="197" x2="197" y1="758.5" y2="718.5" class="net_58"/>
  <circle cx="197" cy="718.5" r="2" style="fill:#000" class="net_58"/>
  <line x1="197" x2="207" y1="718.5" y2="718.5" class="net_58"/>
  <line x1="160" x2="197" y1="758.5" y2="758.5" class="net_58"/>
  <line x1="197" x2="197" y1="758.5" y2="738.5" class="net_58"/>
  <circle cx="197" cy="738.5" r="2" style="fill:#000" class="net_58"/>
  <line x1="197" x2="207" y1="738.5" y2="738.5" class="net_58"/>
  <line x1="160" x2="207" y1="758.5" y2="758.5" class="net_58"/>
  <line x1="160" x2="197" y1="758.5" y2="758.5" class="net_58"/>
  <line x1="197" x2="197" y1="758.5" y2="888" class="net_58"/>
  <line x1="197" x2="207.5" y1="888" y2="888" class="net_58"/>
  <line x1="207.5" x2="207.5" y1="888" y2="779" class="net_58"/>
  <line x1="160" x2="197" y1="758.5" y2="758.5" class="net_58"/>
  <line x1="197" x2="197" y1="758.5" y2="878" class="net_58"/>
  <line x1="197" x2="207.5" y1="878" y2="878" class="net_58"/>
  <circle cx="197" cy="878" r="2" style="fill:#000" class="net_58"/>
  <line x1="207.5" x2="207.5" y1="878" y2="799" class="net_58"/>
  <line x1="160" x2="197" y1="758.5" y2="758.5" class="net_58"/>
  <line x1="197" x2="197" y1="758.5" y2="868" class="net_58"/>
  <line x1="197" x2="207.5" y1="868" y2="868" class="net_58"/>
  <circle cx="197" cy="868" r="2" style="fill:#000" class="net_58"/>
  <line x1="207.5" x2="207.5" y1="868" y2="819" class="net_58"/>
  <line x1="160" x2="197" y1="758.5" y2="758.5" class="net_58"/>
  <line x1="197" x2="197" y1="758.5" y2="858" class="net_58"/>
  <line x1="197" x2="207.5" y1="858" y2="858" class="net_58"/>
  <circle cx="197" cy="858" r="2" style="fill:#000" class="net_58"/>
  <line x1="207.5" x2="207.5" y1="858" y2="839" class="net_58"/>
  <line x1="93.64285714285714" x2="93.64285714285714" y1="65" y2="43" class="net_13"/>
  <line x1="93.64285714285714" x2="141.21428571428572" y1="43" y2="43" class="net_13"/>
  <line x1="141.21428571428572" x2="141.21428571428572" y1="43" y2="65" class="net_13"/>
  <line x1="94.14285714285714" x2="140.71428571428572" y1="85.5" y2="85.5" class="net_12"/>
  <line x1="94.14285714285714" x2="140.71428571428572" y1="105.5" y2="105.5" class="net_11"/>
  <line x1="94.14285714285714" x2="140.71428571428572" y1="125.5" y2="125.5" class="net_10"/>
  <line x1="94.14285714285714" x2="140.71428571428572" y1="145.5" y2="145.5" class="net_9"/>
  <line x1="94.14285714285714" x2="140.71428571428572" y1="165.5" y2="165.5" class="net_8"/>
  <line x1="94.14285714285714" x2="140.71428571428572" y1="185.5" y2="185.5" class="net_7"/>
  <line x1="93.64285714285714" x2="93.64285714285714" y1="206" y2="225" class="net_6"/>
  <line x1="93.64285714285714" x2="141.21428571428572" y1="225" y2="225" class="net_6"/>
  <line x1="141.21428571428572" x2="141.21428571428572" y1="225" y2="206" class="net_6"/>
  <line x1="559.5" x2="559.5" y1="82.5" y2="60.5" class="net_45"/>
  <line x1="559.5" x2="602.5" y1="60.5" y2="60.5" class="net_45"/>
  <line x1="602.5" x2="602.5" y1="60.5" y2="82.5" class="net_45"/>
  <line x1="560" x2="602" y1="103" y2="103" class="net_44"/>
  <line x1="560" x2="602" y1="123" y2="123" class="net_43"/>
  <line x1="560" x2="602" y1="143" y2="143" class="net_42"/>
  <line x1="560" x2="602" y1="163" y2="163" class="net_41"/>
  <line x1="560" x2="602" y1="183" y2="183" class="net_40"/>
  <line x1="560" x2="602" y1="203" y2="203" class="net_39"/>
  <line x1="559.5" x2="559.5" y1="223.5" y2="242.5" class="net_38"/>
  <line x1="559.5" x2="602.5" y1="242.5" y2="242.5" class="net_38"/>
  <line x1="602.5" x2="602.5" y1="242.5" y2="223.5" class="net_38"/>
</svg>
