<svg style="background:white" xmlns="http://www.w3.org/2000/svg" xmlns:xlink="http://www.w3.org/1999/xlink" xmlns:s="https://github.com/nturley/netlistsvg" width="652" height="184">
  <style>svg {
    stroke:#000;
    fill:none;
  }
  text {
    fill:#000;
    stroke:none;
    font-size:10px;
    font-weight: bold;
    font-family: "Courier New", monospace;
  }
  .nodelabel {
    text-anchor: middle;
  }
  .inputPortLabel {
    text-anchor: end;
  }
  .splitjoinBody {
    fill:#000;
  }</style>
  <g s:type="generic" transform="translate(167,22)" s:width="30" s:height="40" id="cell_uut0">
    <text x="15" y="-4" class="nodelabel cell_uut0" s:attribute="ref">bcd_inc_4bit</text>
    <rect width="30" height="40" s:generic="body" class="cell_uut0"/>
    <g transform="translate(0,10)" s:x="0" s:y="10" s:pid="in0" id="port_uut0~en">
      <text x="-3" y="-4" class="inputPortLabel cell_uut0">en</text>
    </g>
    <g transform="translate(0,30)" s:x="0" s:y="10" s:pid="in0" id="port_uut0~num">
      <text x="-3" y="-4" class="inputPortLabel cell_uut0">num</text>
    </g>
    <g transform="translate(30,10)" s:x="30" s:y="10" s:pid="out0" id="port_uut0~en_next">
      <text x="5" y="-4" style="fill:#000; stroke:none" class="cell_uut0">en_next</text>
    </g>
    <g transform="translate(30,30)" s:x="30" s:y="10" s:pid="out0" id="port_uut0~num_inc">
      <text x="5" y="-4" style="fill:#000; stroke:none" class="cell_uut0">num_inc</text>
    </g>
  </g>
  <g s:type="generic" transform="translate(295,77.5)" s:width="30" s:height="40" id="cell_uut1">
    <text x="15" y="-4" class="nodelabel cell_uut1" s:attribute="ref">bcd_inc_4bit</text>
    <rect width="30" height="40" s:generic="body" class="cell_uut1"/>
    <g transform="translate(0,10)" s:x="0" s:y="10" s:pid="in0" id="port_uut1~en">
      <text x="-3" y="-4" class="inputPortLabel cell_uut1">en</text>
    </g>
    <g transform="translate(0,30)" s:x="0" s:y="10" s:pid="in0" id="port_uut1~num">
      <text x="-3" y="-4" class="inputPortLabel cell_uut1">num</text>
    </g>
    <g transform="translate(30,10)" s:x="30" s:y="10" s:pid="out0" id="port_uut1~en_next">
      <text x="5" y="-4" style="fill:#000; stroke:none" class="cell_uut1">en_next</text>
    </g>
    <g transform="translate(30,30)" s:x="30" s:y="10" s:pid="out0" id="port_uut1~num_inc">
      <text x="5" y="-4" style="fill:#000; stroke:none" class="cell_uut1">num_inc</text>
    </g>
  </g>
  <g s:type="generic" transform="translate(423,129)" s:width="30" s:height="40" id="cell_uut2">
    <text x="15" y="-4" class="nodelabel cell_uut2" s:attribute="ref">bcd_inc_4bit</text>
    <rect width="30" height="40" s:generic="body" class="cell_uut2"/>
    <g transform="translate(0,10)" s:x="0" s:y="10" s:pid="in0" id="port_uut2~en">
      <text x="-3" y="-4" class="inputPortLabel cell_uut2">en</text>
    </g>
    <g transform="translate(0,30)" s:x="0" s:y="10" s:pid="in0" id="port_uut2~num">
      <text x="-3" y="-4" class="inputPortLabel cell_uut2">num</text>
    </g>
    <g transform="translate(30,10)" s:x="30" s:y="10" s:pid="out0" id="port_uut2~en_next">
      <text x="5" y="-4" style="fill:#000; stroke:none" class="cell_uut2">en_next</text>
    </g>
    <g transform="translate(30,30)" s:x="30" s:y="10" s:pid="out0" id="port_uut2~num_inc">
      <text x="5" y="-4" style="fill:#000; stroke:none" class="cell_uut2">num_inc</text>
    </g>
  </g>
  <g s:type="inputExt" transform="translate(12,88)" s:width="30" s:height="20" id="cell_num_in">
    <text x="15" y="-4" class="nodelabel cell_num_in" s:attribute="ref">num_in</text>
    <s:alias val="$_inputExt_"/>
    <path d="M0,0 L0,20 L15,20 L30,10 L15,0 Z" class="cell_num_in"/>
    <g s:x="28" s:y="10" s:pid="Y"/>
  </g>
  <g s:type="outputExt" transform="translate(592,52.5)" s:width="30" s:height="20" id="cell_bcd">
    <text x="15" y="-4" class="nodelabel cell_bcd" s:attribute="ref">bcd</text>
    <s:alias val="$_outputExt_"/>
    <path d="M30,0 L30,20 L15,20 L0,10 L15,0 Z" class="cell_bcd"/>
    <g s:x="0" s:y="10" s:pid="A"/>
  </g>
  <g s:type="outputExt" transform="translate(592,129.5)" s:width="30" s:height="20" id="cell_overflow">
    <text x="15" y="-4" class="nodelabel cell_overflow" s:attribute="ref">overflow</text>
    <s:alias val="$_outputExt_"/>
    <path d="M30,0 L30,20 L15,20 L0,10 L15,0 Z" class="cell_overflow"/>
    <g s:x="0" s:y="10" s:pid="A"/>
  </g>
  <g s:type="constant" transform="translate(83,22.5)" s:width="30" s:height="20" id="cell_1">
    <text x="15" y="-4" class="nodelabel cell_1" s:attribute="ref">1</text>
    <s:alias val="$_constant_"/>
    <rect width="30" height="20" class="cell_1"/>
    <g s:x="30" s:y="10" s:pid="Y"/>
  </g>
  <g s:type="join" transform="translate(551,42)" s:width="4" s:height="40" id="cell_$join$,14,15,16,17,18,19,20,21,22,23,24,25,">
    <rect width="5" height="60" class="splitjoinBody" s:generic="body"/>
    <s:alias val="$_join_"/>
    <g s:x="5" s:y="20" s:pid="out"/>
    <g transform="translate(0,10)" s:x="0" s:y="10" s:pid="in0">
      <text x="-3" y="-4" class="inputPortLabel">0:3</text>
    </g>
    <g transform="translate(0,30)" s:x="0" s:y="10" s:pid="in0">
      <text x="-3" y="-4" class="inputPortLabel">4:7</text>
    </g>
    <g transform="translate(0,50)" s:x="0" s:y="10" s:pid="in0">
      <text x="-3" y="-4" class="inputPortLabel">8:11</text>
    </g>
  </g>
  <g s:type="split" transform="translate(89,77.5)" s:width="5" s:height="40" id="cell_$split$,2,3,4,5,6,7,8,9,10,11,12,13,">
    <rect width="5" height="60" class="splitjoinBody" s:generic="body"/>
    <s:alias val="$_split_"/>
    <g s:x="0" s:y="20" s:pid="in"/>
    <g transform="translate(4,10)" s:x="4" s:y="10" s:pid="out0">
      <text x="5" y="-4">0:3</text>
    </g>
    <g transform="translate(4,30)" s:x="4" s:y="10" s:pid="out0">
      <text x="5" y="-4">4:7</text>
    </g>
    <g transform="translate(4,50)" s:x="4" s:y="10" s:pid="out0">
      <text x="5" y="-4">8:11</text>
    </g>
  </g>
  <line x1="113" x2="167" y1="32.5" y2="32.5" class="net_29"/>
  <line x1="94" x2="123" y1="88" y2="88" class="net_2,3,4,5"/>
  <line x1="123" x2="123" y1="88" y2="52.5" class="net_2,3,4,5"/>
  <line x1="123" x2="167" y1="52.5" y2="52.5" class="net_2,3,4,5"/>
  <line x1="198" x2="251" y1="32.5" y2="32.5" class="net_27"/>
  <line x1="251" x2="251" y1="32.5" y2="88" class="net_27"/>
  <line x1="251" x2="295" y1="88" y2="88" class="net_27"/>
  <line x1="94" x2="295" y1="108" y2="108" class="net_6,7,8,9"/>
  <line x1="326" x2="379" y1="88" y2="88" class="net_28"/>
  <line x1="379" x2="379" y1="88" y2="139.5" class="net_28"/>
  <line x1="379" x2="423" y1="139.5" y2="139.5" class="net_28"/>
  <line x1="94" x2="123" y1="128" y2="128" class="net_10,11,12,13"/>
  <line x1="123" x2="123" y1="128" y2="159.5" class="net_10,11,12,13"/>
  <line x1="123" x2="423" y1="159.5" y2="159.5" class="net_10,11,12,13"/>
  <line x1="557" x2="592" y1="62.5" y2="62.5" class="net_14,15,16,17,18,19,20,21,22,23,24,25"/>
  <line x1="454" x2="592" y1="139.5" y2="139.5" class="net_26"/>
  <line x1="198" x2="551" y1="52.5" y2="52.5" class="net_14,15,16,17"/>
  <line x1="326" x2="507" y1="108" y2="108" class="net_18,19,20,21"/>
  <line x1="507" x2="507" y1="108" y2="72.5" class="net_18,19,20,21"/>
  <line x1="507" x2="551" y1="72.5" y2="72.5" class="net_18,19,20,21"/>
  <line x1="454" x2="517" y1="159.5" y2="159.5" class="net_22,23,24,25"/>
  <line x1="517" x2="517" y1="159.5" y2="92.5" class="net_22,23,24,25"/>
  <line x1="517" x2="551" y1="92.5" y2="92.5" class="net_22,23,24,25"/>
  <line x1="40" x2="89" y1="98" y2="98" class="net_2,3,4,5,6,7,8,9,10,11,12,13"/>
</svg>
