<svg style="background:white" xmlns="http://www.w3.org/2000/svg" xmlns:xlink="http://www.w3.org/1999/xlink" xmlns:s="https://github.com/nturley/netlistsvg" width="471" height="238.5">
  <style>svg {
    stroke:#000;
    fill:none;
  }
  text {
    fill:#000;
    stroke:none;
    font-size:10px;
    font-weight: bold;
    font-family: "Courier New", monospace;
  }
  .nodelabel {
    text-anchor: middle;
  }
  .inputPortLabel {
    text-anchor: end;
  }
  .splitjoinBody {
    fill:#000;
  }</style>
  <g s:type="generic" transform="translate(190,31.5)" s:width="30" s:height="40" id="cell_$auto$proc_rom.cc:155:do_switch$13">
    <text x="15" y="-4" class="nodelabel cell_$auto$proc_rom.cc:155:do_switch$13" s:attribute="ref">$mem_v2</text>
    <rect width="30" height="180" s:generic="body" class="cell_$auto$proc_rom.cc:155:do_switch$13"/>
    <g transform="translate(0,10)" s:x="0" s:y="10" s:pid="in0" id="port_$auto$proc_rom.cc:155:do_switch$13~RD_ADDR">
      <text x="-3" y="-4" class="inputPortLabel cell_$auto$proc_rom.cc:155:do_switch$13">RD_ADDR</text>
    </g>
    <g transform="translate(0,30)" s:x="0" s:y="10" s:pid="in0" id="port_$auto$proc_rom.cc:155:do_switch$13~RD_ARST">
      <text x="-3" y="-4" class="inputPortLabel cell_$auto$proc_rom.cc:155:do_switch$13">RD_ARST</text>
    </g>
    <g transform="translate(0,50)" s:x="0" s:y="10" s:pid="in0" id="port_$auto$proc_rom.cc:155:do_switch$13~RD_CLK">
      <text x="-3" y="-4" class="inputPortLabel cell_$auto$proc_rom.cc:155:do_switch$13">RD_CLK</text>
    </g>
    <g transform="translate(0,70)" s:x="0" s:y="10" s:pid="in0" id="port_$auto$proc_rom.cc:155:do_switch$13~RD_EN">
      <text x="-3" y="-4" class="inputPortLabel cell_$auto$proc_rom.cc:155:do_switch$13">RD_EN</text>
    </g>
    <g transform="translate(0,90)" s:x="0" s:y="10" s:pid="in0" id="port_$auto$proc_rom.cc:155:do_switch$13~RD_SRST">
      <text x="-3" y="-4" class="inputPortLabel cell_$auto$proc_rom.cc:155:do_switch$13">RD_SRST</text>
    </g>
    <g transform="translate(0,110)" s:x="0" s:y="10" s:pid="in0" id="port_$auto$proc_rom.cc:155:do_switch$13~WR_ADDR">
      <text x="-3" y="-4" class="inputPortLabel cell_$auto$proc_rom.cc:155:do_switch$13">WR_ADDR</text>
    </g>
    <g transform="translate(0,130)" s:x="0" s:y="10" s:pid="in0" id="port_$auto$proc_rom.cc:155:do_switch$13~WR_CLK">
      <text x="-3" y="-4" class="inputPortLabel cell_$auto$proc_rom.cc:155:do_switch$13">WR_CLK</text>
    </g>
    <g transform="translate(0,150)" s:x="0" s:y="10" s:pid="in0" id="port_$auto$proc_rom.cc:155:do_switch$13~WR_DATA">
      <text x="-3" y="-4" class="inputPortLabel cell_$auto$proc_rom.cc:155:do_switch$13">WR_DATA</text>
    </g>
    <g transform="translate(0,170)" s:x="0" s:y="10" s:pid="in0" id="port_$auto$proc_rom.cc:155:do_switch$13~WR_EN">
      <text x="-3" y="-4" class="inputPortLabel cell_$auto$proc_rom.cc:155:do_switch$13">WR_EN</text>
    </g>
    <g transform="translate(30,10)" s:x="30" s:y="10" s:pid="out0" id="port_$auto$proc_rom.cc:155:do_switch$13~RD_DATA">
      <text x="5" y="-4" style="fill:#000; stroke:none" class="cell_$auto$proc_rom.cc:155:do_switch$13">RD_DATA</text>
    </g>
  </g>
  <g s:type="inputExt" transform="translate(12,22)" s:width="30" s:height="20" id="cell_a">
    <text x="15" y="-4" class="nodelabel cell_a" s:attribute="ref">a</text>
    <s:alias val="$_inputExt_"/>
    <path d="M0,0 L0,20 L15,20 L30,10 L15,0 Z" class="cell_a"/>
    <g s:x="28" s:y="10" s:pid="Y"/>
  </g>
  <g s:type="inputExt" transform="translate(12,87)" s:width="30" s:height="20" id="cell_en">
    <text x="15" y="-4" class="nodelabel cell_en" s:attribute="ref">en</text>
    <s:alias val="$_inputExt_"/>
    <path d="M0,0 L0,20 L15,20 L30,10 L15,0 Z" class="cell_en"/>
    <g s:x="28" s:y="10" s:pid="Y"/>
  </g>
  <g s:type="outputExt" transform="translate(429,32)" s:width="30" s:height="20" id="cell_y">
    <text x="15" y="-4" class="nodelabel cell_y" s:attribute="ref">y</text>
    <s:alias val="$_outputExt_"/>
    <path d="M30,0 L30,20 L15,20 L0,10 L15,0 Z" class="cell_y"/>
    <g s:x="0" s:y="10" s:pid="A"/>
  </g>
  <g s:type="constant" transform="translate(77,106.5)" s:width="30" s:height="20" id="cell_0">
    <text x="15" y="-4" class="nodelabel cell_0" s:attribute="ref">0</text>
    <s:alias val="$_constant_"/>
    <rect width="30" height="20" class="cell_0"/>
    <g s:x="30" s:y="10" s:pid="Y"/>
  </g>
  <g s:type="constant" transform="translate(77,171.5)" s:width="30" s:height="20" id="cell_1">
    <text x="15" y="-4" class="nodelabel cell_1" s:attribute="ref">1</text>
    <s:alias val="$_constant_"/>
    <rect width="30" height="20" class="cell_1"/>
    <g s:x="30" s:y="10" s:pid="Y"/>
  </g>
  <g s:type="join" transform="translate(96,21.5)" s:width="4" s:height="40" id="cell_$join$,2,3,4,">
    <rect width="5" height="40" class="splitjoinBody" s:generic="body"/>
    <s:alias val="$_join_"/>
    <g s:x="5" s:y="20" s:pid="out"/>
    <g transform="translate(0,10)" s:x="0" s:y="10" s:pid="in0">
      <text x="-3" y="-4" class="inputPortLabel">0:1</text>
    </g>
    <g transform="translate(0,30)" s:x="0" s:y="10" s:pid="in0">
      <text x="-3" y="-4" class="inputPortLabel">2</text>
    </g>
  </g>
  <line x1="102" x2="190" y1="42" y2="42" class="net_2,3,4"/>
  <line x1="107" x2="117" y1="116.5" y2="116.5" class="net_9"/>
  <line x1="117" x2="117" y1="116.5" y2="62" class="net_9"/>
  <circle cx="117" cy="116.5" r="2" style="fill:#000" class="net_9"/>
  <line x1="117" x2="190" y1="62" y2="62" class="net_9"/>
  <line x1="107" x2="117" y1="116.5" y2="116.5" class="net_9"/>
  <line x1="117" x2="117" y1="116.5" y2="122" class="net_9"/>
  <line x1="117" x2="190" y1="122" y2="122" class="net_9"/>
  <line x1="107" x2="127" y1="181.5" y2="181.5" class="net_10"/>
  <line x1="127" x2="127" y1="181.5" y2="102" class="net_10"/>
  <line x1="127" x2="190" y1="102" y2="102" class="net_10"/>
  <line x1="137" x2="137" y1="226.5" y2="142" class="net_"/>
  <line x1="137" x2="190" y1="142" y2="142" class="net_"/>
  <line x1="137" x2="137" y1="226.5" y2="162" class="net_"/>
  <circle cx="137" cy="162" r="2" style="fill:#000" class="net_"/>
  <line x1="137" x2="190" y1="162" y2="162" class="net_"/>
  <line x1="137" x2="137" y1="226.5" y2="182" class="net_"/>
  <circle cx="137" cy="182" r="2" style="fill:#000" class="net_"/>
  <line x1="137" x2="190" y1="182" y2="182" class="net_"/>
  <line x1="137" x2="137" y1="226.5" y2="202" class="net_"/>
  <circle cx="137" cy="202" r="2" style="fill:#000" class="net_"/>
  <line x1="137" x2="190" y1="202" y2="202" class="net_"/>
  <line x1="221" x2="429" y1="42" y2="42" class="net_5,6,7,8"/>
  <line x1="40" x2="96" y1="32" y2="32" class="net_2,3"/>
  <line x1="40" x2="52" y1="97" y2="97" class="net_4"/>
  <line x1="52" x2="52" y1="97" y2="52" class="net_4"/>
  <line x1="52" x2="96" y1="52" y2="52" class="net_4"/>
</svg>
