<svg style="background:white" xmlns="http://www.w3.org/2000/svg" xmlns:xlink="http://www.w3.org/1999/xlink" xmlns:s="https://github.com/nturley/netlistsvg" width="434" height="379">
  <style>svg {
    stroke:#000;
    fill:none;
  }
  text {
    fill:#000;
    stroke:none;
    font-size:10px;
    font-weight: bold;
    font-family: "Courier New", monospace;
  }
  .nodelabel {
    text-anchor: middle;
  }
  .inputPortLabel {
    text-anchor: end;
  }
  .splitjoinBody {
    fill:#000;
  }</style>
  <g s:type="eq" transform="translate(78.66666666666667,142)" s:width="25" s:height="25" id="cell_$eq$rtl/decoder_2_4_if.v:10$5">
    <s:alias val="$eq"/>
    <circle r="12.5" cx="12.5" cy="12.5" class="cell_$eq$rtl/decoder_2_4_if.v:10$5"/>
    <line x1="7.5" x2="17.5" y1="10" y2="10" class="cell_$eq$rtl/decoder_2_4_if.v:10$5"/>
    <line x1="7.5" x2="17.5" y1="15" y2="15" class="cell_$eq$rtl/decoder_2_4_if.v:10$5"/>
    <g s:x="3" s:y="5" s:pid="A"/>
    <g s:x="3" s:y="20" s:pid="B"/>
    <g s:x="25" s:y="12.5" s:pid="Y"/>
  </g>
  <g s:type="not" transform="translate(207,317)" s:width="30" s:height="20" id="cell_$eq$rtl/decoder_2_4_if.v:8$3">
    <s:alias val="$_NOT_"/>
    <s:alias val="$not"/>
    <s:alias val="$logic_not"/>
    <path d="M0,0 L0,20 L20,10 Z" class="cell_$eq$rtl/decoder_2_4_if.v:8$3"/>
    <circle cx="23" cy="10" r="3" class="cell_$eq$rtl/decoder_2_4_if.v:8$3"/>
    <g s:x="0" s:y="10" s:pid="A"/>
    <g s:x="25" s:y="10" s:pid="Y"/>
  </g>
  <g s:type="eq" transform="translate(143.66666666666666,229.5)" s:width="25" s:height="25" id="cell_$eq$rtl/decoder_2_4_if.v:9$4">
    <s:alias val="$eq"/>
    <circle r="12.5" cx="12.5" cy="12.5" class="cell_$eq$rtl/decoder_2_4_if.v:9$4"/>
    <line x1="7.5" x2="17.5" y1="10" y2="10" class="cell_$eq$rtl/decoder_2_4_if.v:9$4"/>
    <line x1="7.5" x2="17.5" y1="15" y2="15" class="cell_$eq$rtl/decoder_2_4_if.v:9$4"/>
    <g s:x="3" s:y="5" s:pid="A"/>
    <g s:x="3" s:y="20" s:pid="B"/>
    <g s:x="25" s:y="12.5" s:pid="Y"/>
  </g>
  <g s:type="mux" transform="translate(145.33333333333334,67)" s:width="20" s:height="40" id="cell_$procmux$12">
    <s:alias val="$pmux"/>
    <s:alias val="$mux"/>
    <s:alias val="$_MUX_"/>
    <path d="M0,0 L20,10 L20,30 L0,40 Z" class="cell_$procmux$12"/>
    <g s:x="0" s:y="10" s:pid="A"/>
    <g s:x="0" s:y="30" s:pid="B"/>
    <g s:x="10" s:y="35" s:pid="S"/>
    <g s:x="20" s:y="20" s:pid="Y"/>
  </g>
  <g s:type="mux" transform="translate(210.33333333333334,154.5)" s:width="20" s:height="40" id="cell_$procmux$24">
    <s:alias val="$pmux"/>
    <s:alias val="$mux"/>
    <s:alias val="$_MUX_"/>
    <path d="M0,0 L20,10 L20,30 L0,40 Z" class="cell_$procmux$24"/>
    <g s:x="0" s:y="10" s:pid="A"/>
    <g s:x="0" s:y="30" s:pid="B"/>
    <g s:x="10" s:y="35" s:pid="S"/>
    <g s:x="20" s:y="20" s:pid="Y"/>
  </g>
  <g s:type="mux" transform="translate(275.3333333333333,242)" s:width="20" s:height="40" id="cell_$procmux$33">
    <s:alias val="$pmux"/>
    <s:alias val="$mux"/>
    <s:alias val="$_MUX_"/>
    <path d="M0,0 L20,10 L20,30 L0,40 Z" class="cell_$procmux$33"/>
    <g s:x="0" s:y="10" s:pid="A"/>
    <g s:x="0" s:y="30" s:pid="B"/>
    <g s:x="10" s:y="35" s:pid="S"/>
    <g s:x="20" s:y="20" s:pid="Y"/>
  </g>
  <g s:type="mux" transform="translate(337,232)" s:width="20" s:height="40" id="cell_$procmux$39">
    <s:alias val="$pmux"/>
    <s:alias val="$mux"/>
    <s:alias val="$_MUX_"/>
    <path d="M0,0 L20,10 L20,30 L0,40 Z" class="cell_$procmux$39"/>
    <g s:x="0" s:y="10" s:pid="A"/>
    <g s:x="0" s:y="30" s:pid="B"/>
    <g s:x="10" s:y="35" s:pid="S"/>
    <g s:x="20" s:y="20" s:pid="Y"/>
  </g>
  <g s:type="inputExt" transform="translate(12,317)" s:width="30" s:height="20" id="cell_a">
    <text x="15" y="-4" class="nodelabel cell_a" s:attribute="ref">a</text>
    <s:alias val="$_inputExt_"/>
    <path d="M0,0 L0,20 L15,20 L30,10 L15,0 Z" class="cell_a"/>
    <g s:x="28" s:y="10" s:pid="Y"/>
  </g>
  <g s:type="inputExt" transform="translate(272,347)" s:width="30" s:height="20" id="cell_en">
    <text x="15" y="-4" class="nodelabel cell_en" s:attribute="ref">en</text>
    <s:alias val="$_inputExt_"/>
    <path d="M0,0 L0,20 L15,20 L30,10 L15,0 Z" class="cell_en"/>
    <g s:x="28" s:y="10" s:pid="Y"/>
  </g>
  <g s:type="outputExt" transform="translate(392,242)" s:width="30" s:height="20" id="cell_y">
    <text x="15" y="-4" class="nodelabel cell_y" s:attribute="ref">y</text>
    <s:alias val="$_outputExt_"/>
    <path d="M30,0 L30,20 L15,20 L0,10 L15,0 Z" class="cell_y"/>
    <g s:x="0" s:y="10" s:pid="A"/>
  </g>
  <g s:type="constant" transform="translate(12,152)" s:width="30" s:height="20" id="cell_10">
    <text x="15" y="-4" class="nodelabel cell_10" s:attribute="ref">10</text>
    <s:alias val="$_constant_"/>
    <rect width="30" height="20" class="cell_10"/>
    <g s:x="30" s:y="10" s:pid="Y"/>
  </g>
  <g s:type="constant" transform="translate(77,239.5)" s:width="30" s:height="20" id="cell_1">
    <text x="15" y="-4" class="nodelabel cell_1" s:attribute="ref">1</text>
    <s:alias val="$_constant_"/>
    <rect width="30" height="20" class="cell_1"/>
    <g s:x="30" s:y="10" s:pid="Y"/>
  </g>
  <g s:type="constant" transform="translate(77,22)" s:width="30" s:height="20" id="cell_1000">
    <text x="15" y="-4" class="nodelabel cell_1000" s:attribute="ref">0x8</text>
    <s:alias val="$_constant_"/>
    <rect width="30" height="20" class="cell_1000"/>
    <g s:x="30" s:y="10" s:pid="Y"/>
  </g>
  <g s:type="constant" transform="translate(77,87)" s:width="30" s:height="20" id="cell_0100">
    <text x="15" y="-4" class="nodelabel cell_0100" s:attribute="ref">0x4</text>
    <s:alias val="$_constant_"/>
    <rect width="30" height="20" class="cell_0100"/>
    <g s:x="30" s:y="10" s:pid="Y"/>
  </g>
  <g s:type="constant" transform="translate(142,174.5)" s:width="30" s:height="20" id="cell_0010">
    <text x="15" y="-4" class="nodelabel cell_0010" s:attribute="ref">0x2</text>
    <s:alias val="$_constant_"/>
    <rect width="30" height="20" class="cell_0010"/>
    <g s:x="30" s:y="10" s:pid="Y"/>
  </g>
  <g s:type="constant" transform="translate(207,262)" s:width="30" s:height="20" id="cell_0001">
    <text x="15" y="-4" class="nodelabel cell_0001" s:attribute="ref">0x1</text>
    <s:alias val="$_constant_"/>
    <rect width="30" height="20" class="cell_0001"/>
    <g s:x="30" s:y="10" s:pid="Y"/>
  </g>
  <g s:type="constant" transform="translate(272,187)" s:width="30" s:height="20" id="cell_0000">
    <text x="15" y="-4" class="nodelabel cell_0000" s:attribute="ref">0x0</text>
    <s:alias val="$_constant_"/>
    <rect width="30" height="20" class="cell_0000"/>
    <g s:x="30" s:y="10" s:pid="Y"/>
  </g>
  <line x1="40" x2="52" y1="327" y2="327" class="net_2,3"/>
  <line x1="52" x2="52" y1="327" y2="147" class="net_2,3"/>
  <circle cx="52" cy="327" r="2" style="fill:#000" class="net_2,3"/>
  <line x1="52" x2="81.66666666666667" y1="147" y2="147" class="net_2,3"/>
  <line x1="40" x2="207" y1="327" y2="327" class="net_2,3"/>
  <line x1="40" x2="52" y1="327" y2="327" class="net_2,3"/>
  <line x1="52" x2="52" y1="327" y2="218.5" class="net_2,3"/>
  <line x1="52" x2="117" y1="218.5" y2="218.5" class="net_2,3"/>
  <line x1="117" x2="117" y1="218.5" y2="234.5" class="net_2,3"/>
  <circle cx="52" cy="218.5" r="2" style="fill:#000" class="net_2,3"/>
  <line x1="117" x2="146.66666666666666" y1="234.5" y2="234.5" class="net_2,3"/>
  <line x1="42" x2="81.66666666666667" y1="162" y2="162" class="net_24,25"/>
  <line x1="107" x2="146.66666666666666" y1="249.5" y2="249.5" class="net_26"/>
  <line x1="107" x2="117" y1="32" y2="32" class="net_27,28,29,30"/>
  <line x1="117" x2="117" y1="32" y2="77" class="net_27,28,29,30"/>
  <line x1="117" x2="145.33333333333334" y1="77" y2="77" class="net_27,28,29,30"/>
  <line x1="107" x2="145.33333333333334" y1="97" y2="97" class="net_31,32,33,34"/>
  <line x1="103.66666666666667" x2="155.33333333333334" y1="154.5" y2="154.5" class="net_9"/>
  <line x1="155.33333333333334" x2="155.33333333333334" y1="154.5" y2="102" class="net_9"/>
  <line x1="165.33333333333334" x2="182" y1="87" y2="87" class="net_12,13,14,15"/>
  <line x1="182" x2="182" y1="87" y2="164.5" class="net_12,13,14,15"/>
  <line x1="182" x2="210.33333333333334" y1="164.5" y2="164.5" class="net_12,13,14,15"/>
  <line x1="172" x2="210.33333333333334" y1="184.5" y2="184.5" class="net_35,36,37,38"/>
  <line x1="168.66666666666666" x2="220.33333333333334" y1="242" y2="242" class="net_11"/>
  <line x1="220.33333333333334" x2="220.33333333333334" y1="242" y2="189.5" class="net_11"/>
  <line x1="230.33333333333334" x2="247" y1="174.5" y2="174.5" class="net_16,17,18,19"/>
  <line x1="247" x2="247" y1="174.5" y2="252" class="net_16,17,18,19"/>
  <line x1="247" x2="275.3333333333333" y1="252" y2="252" class="net_16,17,18,19"/>
  <line x1="237" x2="275.3333333333333" y1="272" y2="272" class="net_39,40,41,42"/>
  <line x1="232" x2="285.3333333333333" y1="327" y2="327" class="net_10"/>
  <line x1="285.3333333333333" x2="285.3333333333333" y1="327" y2="277" class="net_10"/>
  <line x1="302" x2="312" y1="197" y2="197" class="net_43,44,45,46"/>
  <line x1="312" x2="312" y1="197" y2="242" class="net_43,44,45,46"/>
  <line x1="312" x2="337" y1="242" y2="242" class="net_43,44,45,46"/>
  <line x1="295.3333333333333" x2="337" y1="262" y2="262" class="net_20,21,22,23"/>
  <line x1="300" x2="347" y1="357" y2="357" class="net_4"/>
  <line x1="347" x2="347" y1="357" y2="267" class="net_4"/>
  <line x1="357" x2="392" y1="252" y2="252" class="net_5,6,7,8"/>
</svg>
