<svg style="background:white" xmlns="http://www.w3.org/2000/svg" xmlns:xlink="http://www.w3.org/1999/xlink" xmlns:s="https://github.com/nturley/netlistsvg" width="798" height="368.5">
  <style>svg {
    stroke:#000;
    fill:none;
  }
  text {
    fill:#000;
    stroke:none;
    font-size:10px;
    font-weight: bold;
    font-family: "Courier New", monospace;
  }
  .nodelabel {
    text-anchor: middle;
  }
  .inputPortLabel {
    text-anchor: end;
  }
  .splitjoinBody {
    fill:#000;
  }</style>
  <g s:type="generic" transform="translate(206,118)" s:width="30" s:height="40" id="cell_$shl$rtl/dual_priority_encoder.v:10$29">
    <text x="15" y="-4" class="nodelabel cell_$shl$rtl/dual_priority_encoder.v:10$29" s:attribute="ref">$shl</text>
    <rect width="30" height="40" s:generic="body" class="cell_$shl$rtl/dual_priority_encoder.v:10$29"/>
    <g transform="translate(0,10)" s:x="0" s:y="10" s:pid="in0" id="port_$shl$rtl/dual_priority_encoder.v:10$29~A">
      <text x="-3" y="-4" class="inputPortLabel cell_$shl$rtl/dual_priority_encoder.v:10$29">A</text>
    </g>
    <g transform="translate(0,30)" s:x="0" s:y="10" s:pid="in0" id="port_$shl$rtl/dual_priority_encoder.v:10$29~B">
      <text x="-3" y="-4" class="inputPortLabel cell_$shl$rtl/dual_priority_encoder.v:10$29">B</text>
    </g>
    <g transform="translate(30,10)" s:x="30" s:y="10" s:pid="out0" id="port_$shl$rtl/dual_priority_encoder.v:10$29~Y">
      <text x="5" y="-4" style="fill:#000; stroke:none" class="cell_$shl$rtl/dual_priority_encoder.v:10$29">Y</text>
    </g>
  </g>
  <g s:type="mux" transform="translate(469,98.5)" s:width="20" s:height="40" id="cell_$ternary$rtl/dual_priority_encoder.v:10$30">
    <s:alias val="$pmux"/>
    <s:alias val="$mux"/>
    <s:alias val="$_MUX_"/>
    <path d="M0,0 L20,10 L20,30 L0,40 Z" class="cell_$ternary$rtl/dual_priority_encoder.v:10$30"/>
    <g s:x="0" s:y="10" s:pid="A"/>
    <g s:x="0" s:y="30" s:pid="B"/>
    <g s:x="10" s:y="35" s:pid="S"/>
    <g s:x="20" s:y="20" s:pid="Y"/>
  </g>
  <g s:type="reduce_xor" transform="translate(524,311.5)" s:width="33" s:height="25" id="cell_$xor$rtl/dual_priority_encoder.v:13$31">
    <s:alias val="$xor"/>
    <s:alias val="$reduce_xor"/>
    <s:alias val="$_XOR_"/>
    <path d="M3,0 A30 25 0 0 1 3,25 A30 25 0 0 0 33,12.5 A30 25 0 0 0 3,0" class="cell_$xor$rtl/dual_priority_encoder.v:13$31"/>
    <path d="M0,0 A30 25 0 0 1 0,25" class="cell_$xor$rtl/dual_priority_encoder.v:13$31"/>
    <g s:x="3" s:y="5" s:pid="A"/>
    <g s:x="3" s:y="20" s:pid="B"/>
    <g s:x="33" s:y="12.5" s:pid="Y"/>
  </g>
  <g s:type="generic" transform="translate(102,183.5)" s:width="30" s:height="40" id="cell_uut0">
    <text x="15" y="-4" class="nodelabel cell_uut0" s:attribute="ref">priority_encoder</text>
    <rect width="30" height="40" s:generic="body" class="cell_uut0"/>
    <g transform="translate(0,10)" s:x="0" s:y="10" s:pid="in0" id="port_uut0~data">
      <text x="-3" y="-4" class="inputPortLabel cell_uut0">data</text>
    </g>
    <g transform="translate(30,10)" s:x="30" s:y="10" s:pid="out0" id="port_uut0~index">
      <text x="5" y="-4" style="fill:#000; stroke:none" class="cell_uut0">index</text>
    </g>
    <g transform="translate(30,30)" s:x="30" s:y="10" s:pid="out0" id="port_uut0~valid">
      <text x="5" y="-4" style="fill:#000; stroke:none" class="cell_uut0">valid</text>
    </g>
  </g>
  <g s:type="generic" transform="translate(617,313.5)" s:width="30" s:height="40" id="cell_uut1">
    <text x="15" y="-4" class="nodelabel cell_uut1" s:attribute="ref">priority_encoder</text>
    <rect width="30" height="40" s:generic="body" class="cell_uut1"/>
    <g transform="translate(0,10)" s:x="0" s:y="10" s:pid="in0" id="port_uut1~data">
      <text x="-3" y="-4" class="inputPortLabel cell_uut1">data</text>
    </g>
    <g transform="translate(30,10)" s:x="30" s:y="10" s:pid="out0" id="port_uut1~index">
      <text x="5" y="-4" style="fill:#000; stroke:none" class="cell_uut1">index</text>
    </g>
    <g transform="translate(30,30)" s:x="30" s:y="10" s:pid="out0" id="port_uut1~valid">
      <text x="5" y="-4" style="fill:#000; stroke:none" class="cell_uut1">valid</text>
    </g>
  </g>
  <g s:type="inputExt" transform="translate(12,321.5)" s:width="30" s:height="20" id="cell_req">
    <text x="15" y="-4" class="nodelabel cell_req" s:attribute="ref">req</text>
    <s:alias val="$_inputExt_"/>
    <path d="M0,0 L0,20 L15,20 L30,10 L15,0 Z" class="cell_req"/>
    <g s:x="28" s:y="10" s:pid="Y"/>
  </g>
  <g s:type="outputExt" transform="translate(714,22)" s:width="30" s:height="20" id="cell_first">
    <text x="15" y="-4" class="nodelabel cell_first" s:attribute="ref">first</text>
    <s:alias val="$_outputExt_"/>
    <path d="M30,0 L30,20 L15,20 L0,10 L15,0 Z" class="cell_first"/>
    <g s:x="0" s:y="10" s:pid="A"/>
  </g>
  <g s:type="outputExt" transform="translate(714,269)" s:width="30" s:height="20" id="cell_second">
    <text x="15" y="-4" class="nodelabel cell_second" s:attribute="ref">second</text>
    <s:alias val="$_outputExt_"/>
    <path d="M30,0 L30,20 L15,20 L0,10 L15,0 Z" class="cell_second"/>
    <g s:x="0" s:y="10" s:pid="A"/>
  </g>
  <g s:type="outputExt" transform="translate(714,204)" s:width="30" s:height="20" id="cell_first_valid">
    <text x="15" y="-4" class="nodelabel cell_first_valid" s:attribute="ref">first_valid</text>
    <s:alias val="$_outputExt_"/>
    <path d="M30,0 L30,20 L15,20 L0,10 L15,0 Z" class="cell_first_valid"/>
    <g s:x="0" s:y="10" s:pid="A"/>
  </g>
  <g s:type="outputExt" transform="translate(714,334)" s:width="30" s:height="20" id="cell_second_valid">
    <text x="15" y="-4" class="nodelabel cell_second_valid" s:attribute="ref">second_valid</text>
    <s:alias val="$_outputExt_"/>
    <path d="M30,0 L30,20 L15,20 L0,10 L15,0 Z" class="cell_second_valid"/>
    <g s:x="0" s:y="10" s:pid="A"/>
  </g>
  <g s:type="constant" transform="translate(102,118.5)" s:width="30" s:height="20" id="cell_1">
    <text x="15" y="-4" class="nodelabel cell_1" s:attribute="ref">1</text>
    <s:alias val="$_constant_"/>
    <rect width="30" height="20" class="cell_1"/>
    <g s:x="30" s:y="10" s:pid="Y"/>
  </g>
  <g s:type="constant" transform="translate(206,53)" s:width="30" s:height="20" id="cell_000000000000">
    <text x="15" y="-4" class="nodelabel cell_000000000000" s:attribute="ref">0x0</text>
    <s:alias val="$_constant_"/>
    <rect width="30" height="20" class="cell_000000000000"/>
    <g s:x="30" s:y="10" s:pid="Y"/>
  </g>
  <line x1="132" x2="206" y1="128.5" y2="128.5" class="net_60"/>
  <line x1="133" x2="174" y1="194" y2="194" class="net_14,15,16,17"/>
  <line x1="174" x2="174" y1="194" y2="148.5" class="net_14,15,16,17"/>
  <circle cx="174" cy="148.5" r="2" style="fill:#000" class="net_14,15,16,17"/>
  <line x1="174" x2="206" y1="148.5" y2="148.5" class="net_14,15,16,17"/>
  <line x1="133" x2="174" y1="194" y2="194" class="net_14,15,16,17"/>
  <line x1="174" x2="174" y1="194" y2="32" class="net_14,15,16,17"/>
  <line x1="174" x2="714" y1="32" y2="32" class="net_14,15,16,17"/>
  <line x1="236" x2="444" y1="63" y2="63" class="net_61,62,63,64,65,66,67,68,69,70,71,72"/>
  <line x1="444" x2="444" y1="63" y2="108.5" class="net_61,62,63,64,65,66,67,68,69,70,71,72"/>
  <line x1="444" x2="469" y1="108.5" y2="108.5" class="net_61,62,63,64,65,66,67,68,69,70,71,72"/>
  <line x1="237" x2="469" y1="128.5" y2="128.5" class="net_24,25,26,27,28,29,30,31,32,33,34,35"/>
  <line x1="133" x2="444" y1="214" y2="214" class="net_22"/>
  <line x1="444" x2="444" y1="214" y2="204" class="net_22"/>
  <line x1="444" x2="479" y1="204" y2="204" class="net_22"/>
  <circle cx="444" cy="214" r="2" style="fill:#000" class="net_22"/>
  <line x1="479" x2="479" y1="204" y2="133.5" class="net_22"/>
  <line x1="133" x2="714" y1="214" y2="214" class="net_22"/>
  <line x1="489" x2="499" y1="118.5" y2="118.5" class="net_36,37,38,39,40,41,42,43,44,45,46,47"/>
  <line x1="499" x2="499" y1="118.5" y2="316.5" class="net_36,37,38,39,40,41,42,43,44,45,46,47"/>
  <line x1="499" x2="527" y1="316.5" y2="316.5" class="net_36,37,38,39,40,41,42,43,44,45,46,47"/>
  <line x1="40" x2="527" y1="331.5" y2="331.5" class="net_2,3,4,5,6,7,8,9,10,11,12,13"/>
  <line x1="40" x2="52" y1="331.5" y2="331.5" class="net_2,3,4,5,6,7,8,9,10,11,12,13"/>
  <line x1="52" x2="52" y1="331.5" y2="194" class="net_2,3,4,5,6,7,8,9,10,11,12,13"/>
  <circle cx="52" cy="331.5" r="2" style="fill:#000" class="net_2,3,4,5,6,7,8,9,10,11,12,13"/>
  <line x1="52" x2="102" y1="194" y2="194" class="net_2,3,4,5,6,7,8,9,10,11,12,13"/>
  <line x1="557" x2="617" y1="324" y2="324" class="net_48,49,50,51,52,53,54,55,56,57,58,59"/>
  <line x1="648" x2="689" y1="324" y2="324" class="net_18,19,20,21"/>
  <line x1="689" x2="689" y1="324" y2="279" class="net_18,19,20,21"/>
  <line x1="689" x2="714" y1="279" y2="279" class="net_18,19,20,21"/>
  <line x1="648" x2="714" y1="344" y2="344" class="net_23"/>
</svg>
