<svg style="background:white" xmlns="http://www.w3.org/2000/svg" xmlns:xlink="http://www.w3.org/1999/xlink" xmlns:s="https://github.com/nturley/netlistsvg" width="442" height="310.5">
  <style>svg {
    stroke:#000;
    fill:none;
  }
  text {
    fill:#000;
    stroke:none;
    font-size:10px;
    font-weight: bold;
    font-family: "Courier New", monospace;
  }
  .nodelabel {
    text-anchor: middle;
  }
  .inputPortLabel {
    text-anchor: end;
  }
  .splitjoinBody {
    fill:#000;
  }</style>
  <g s:type="and" transform="translate(215,185)" s:width="30" s:height="25" id="cell_$and$rtl/floating_point_greater.v:10$48">
    <s:alias val="$and"/>
    <s:alias val="$logic_and"/>
    <s:alias val="$_AND_"/>
    <path d="M0,0 L0,25 L15,25 A15 12.5 0 0 0 15,0 Z" class="cell_$and$rtl/floating_point_greater.v:10$48"/>
    <g s:x="0" s:y="5" s:pid="A"/>
    <g s:x="0" s:y="20" s:pid="B"/>
    <g s:x="30" s:y="12.5" s:pid="Y"/>
  </g>
  <g s:type="and" transform="translate(280,272.5)" s:width="30" s:height="25" id="cell_$and$rtl/floating_point_greater.v:9$46">
    <s:alias val="$and"/>
    <s:alias val="$logic_and"/>
    <s:alias val="$_AND_"/>
    <path d="M0,0 L0,25 L15,25 A15 12.5 0 0 0 15,0 Z" class="cell_$and$rtl/floating_point_greater.v:9$46"/>
    <g s:x="0" s:y="5" s:pid="A"/>
    <g s:x="0" s:y="20" s:pid="B"/>
    <g s:x="30" s:y="12.5" s:pid="Y"/>
  </g>
  <g s:type="gt" transform="translate(146.66666666666666,73)" s:width="25" s:height="25" id="cell_$gt$rtl/floating_point_greater.v:12$50">
    <s:alias val="$gt"/>
    <circle r="12.5" cx="12.5" cy="12.5" class="cell_$gt$rtl/floating_point_greater.v:12$50"/>
    <line x1="7.5" x2="17.5" y1="7.5" y2="12.5" class="cell_$gt$rtl/floating_point_greater.v:12$50"/>
    <line x1="7.5" x2="17.5" y1="17.5" y2="12.5" class="cell_$gt$rtl/floating_point_greater.v:12$50"/>
    <g s:x="3" s:y="5" s:pid="A"/>
    <g s:x="3" s:y="20" s:pid="B"/>
    <g s:x="25" s:y="12.5" s:pid="Y"/>
  </g>
  <g s:type="lt" transform="translate(146.66666666666666,135)" s:width="25" s:height="25" id="cell_$lt$rtl/floating_point_greater.v:11$49">
    <s:alias val="$lt"/>
    <circle r="12.5" cx="12.5" cy="12.5" class="cell_$lt$rtl/floating_point_greater.v:11$49"/>
    <line x1="7.5" x2="17.5" y1="12.5" y2="7.5" class="cell_$lt$rtl/floating_point_greater.v:11$49"/>
    <line x1="7.5" x2="17.5" y1="12.5" y2="17.5" class="cell_$lt$rtl/floating_point_greater.v:11$49"/>
    <g s:x="3" s:y="5" s:pid="A"/>
    <g s:x="3" s:y="20" s:pid="B"/>
    <g s:x="25" s:y="12.5" s:pid="Y"/>
  </g>
  <g s:type="not" transform="translate(145,195)" s:width="30" s:height="20" id="cell_$not$rtl/floating_point_greater.v:10$47">
    <s:alias val="$_NOT_"/>
    <s:alias val="$not"/>
    <s:alias val="$logic_not"/>
    <path d="M0,0 L0,20 L20,10 Z" class="cell_$not$rtl/floating_point_greater.v:10$47"/>
    <circle cx="23" cy="10" r="3" class="cell_$not$rtl/floating_point_greater.v:10$47"/>
    <g s:x="0" s:y="10" s:pid="A"/>
    <g s:x="25" s:y="10" s:pid="Y"/>
  </g>
  <g s:type="not" transform="translate(215,267.5)" s:width="30" s:height="20" id="cell_$not$rtl/floating_point_greater.v:9$45">
    <s:alias val="$_NOT_"/>
    <s:alias val="$not"/>
    <s:alias val="$logic_not"/>
    <path d="M0,0 L0,20 L20,10 Z" class="cell_$not$rtl/floating_point_greater.v:9$45"/>
    <circle cx="23" cy="10" r="3" class="cell_$not$rtl/floating_point_greater.v:9$45"/>
    <g s:x="0" s:y="10" s:pid="A"/>
    <g s:x="25" s:y="10" s:pid="Y"/>
  </g>
  <g s:type="mux" transform="translate(283.3333333333333,22)" s:width="20" s:height="40" id="cell_$ternary$rtl/floating_point_greater.v:10$52">
    <s:alias val="$pmux"/>
    <s:alias val="$mux"/>
    <s:alias val="$_MUX_"/>
    <path d="M0,0 L20,10 L20,30 L0,40 Z" class="cell_$ternary$rtl/floating_point_greater.v:10$52"/>
    <g s:x="0" s:y="10" s:pid="A"/>
    <g s:x="0" s:y="30" s:pid="B"/>
    <g s:x="10" s:y="35" s:pid="S"/>
    <g s:x="20" s:y="20" s:pid="Y"/>
  </g>
  <g s:type="mux" transform="translate(218.33333333333334,12)" s:width="20" s:height="40" id="cell_$ternary$rtl/floating_point_greater.v:11$51">
    <s:alias val="$pmux"/>
    <s:alias val="$mux"/>
    <s:alias val="$_MUX_"/>
    <path d="M0,0 L20,10 L20,30 L0,40 Z" class="cell_$ternary$rtl/floating_point_greater.v:11$51"/>
    <g s:x="0" s:y="10" s:pid="A"/>
    <g s:x="0" s:y="30" s:pid="B"/>
    <g s:x="10" s:y="35" s:pid="S"/>
    <g s:x="20" s:y="20" s:pid="Y"/>
  </g>
  <g s:type="mux" transform="translate(345,32)" s:width="20" s:height="40" id="cell_$ternary$rtl/floating_point_greater.v:9$53">
    <s:alias val="$pmux"/>
    <s:alias val="$mux"/>
    <s:alias val="$_MUX_"/>
    <path d="M0,0 L20,10 L20,30 L0,40 Z" class="cell_$ternary$rtl/floating_point_greater.v:9$53"/>
    <g s:x="0" s:y="10" s:pid="A"/>
    <g s:x="0" s:y="30" s:pid="B"/>
    <g s:x="10" s:y="35" s:pid="S"/>
    <g s:x="20" s:y="20" s:pid="Y"/>
  </g>
  <g s:type="inputExt" transform="translate(12,58)" s:width="30" s:height="20" id="cell_a">
    <text x="15" y="-4" class="nodelabel cell_a" s:attribute="ref">a</text>
    <s:alias val="$_inputExt_"/>
    <path d="M0,0 L0,20 L15,20 L30,10 L15,0 Z" class="cell_a"/>
    <g s:x="28" s:y="10" s:pid="Y"/>
  </g>
  <g s:type="inputExt" transform="translate(12,135)" s:width="30" s:height="20" id="cell_b">
    <text x="15" y="-4" class="nodelabel cell_b" s:attribute="ref">b</text>
    <s:alias val="$_inputExt_"/>
    <path d="M0,0 L0,20 L15,20 L30,10 L15,0 Z" class="cell_b"/>
    <g s:x="28" s:y="10" s:pid="Y"/>
  </g>
  <g s:type="outputExt" transform="translate(400,42)" s:width="30" s:height="20" id="cell_agtb">
    <text x="15" y="-4" class="nodelabel cell_agtb" s:attribute="ref">agtb</text>
    <s:alias val="$_outputExt_"/>
    <path d="M30,0 L30,20 L15,20 L0,10 L15,0 Z" class="cell_agtb"/>
    <g s:x="0" s:y="10" s:pid="A"/>
  </g>
  <g s:type="constant" transform="translate(215,82)" s:width="30" s:height="20" id="cell_0">
    <text x="15" y="-4" class="nodelabel cell_0" s:attribute="ref">0</text>
    <s:alias val="$_constant_"/>
    <rect width="30" height="20" class="cell_0"/>
    <g s:x="30" s:y="10" s:pid="Y"/>
  </g>
  <g s:type="constant" transform="translate(280,217.5)" s:width="30" s:height="20" id="cell_1">
    <text x="15" y="-4" class="nodelabel cell_1" s:attribute="ref">1</text>
    <s:alias val="$_constant_"/>
    <rect width="30" height="20" class="cell_1"/>
    <g s:x="30" s:y="10" s:pid="Y"/>
  </g>
  <g s:type="split" transform="translate(77,47.5)" s:width="5" s:height="40" id="cell_$split$,2,3,4,5,6,7,8,9,10,11,12,13,14,">
    <rect width="5" height="40" class="splitjoinBody" s:generic="body"/>
    <s:alias val="$_split_"/>
    <g s:x="0" s:y="20" s:pid="in"/>
    <g transform="translate(4,10)" s:x="4" s:y="10" s:pid="out0">
      <text x="5" y="-4">12</text>
    </g>
    <g transform="translate(4,30)" s:x="4" s:y="10" s:pid="out0">
      <text x="5" y="-4">0:11</text>
    </g>
  </g>
  <g s:type="split" transform="translate(77,124.5)" s:width="5" s:height="40" id="cell_$split$,15,16,17,18,19,20,21,22,23,24,25,26,27,">
    <rect width="5" height="40" class="splitjoinBody" s:generic="body"/>
    <s:alias val="$_split_"/>
    <g s:x="0" s:y="20" s:pid="in"/>
    <g transform="translate(4,10)" s:x="4" s:y="10" s:pid="out0">
      <text x="5" y="-4">12</text>
    </g>
    <g transform="translate(4,30)" s:x="4" s:y="10" s:pid="out0">
      <text x="5" y="-4">0:11</text>
    </g>
  </g>
  <line x1="82" x2="115" y1="58" y2="58" class="net_14"/>
  <line x1="115" x2="115" y1="58" y2="62" class="net_14"/>
  <line x1="115" x2="205" y1="62" y2="62" class="net_14"/>
  <line x1="205" x2="205" y1="62" y2="190" class="net_14"/>
  <circle cx="115" cy="62" r="2" style="fill:#000" class="net_14"/>
  <circle cx="205" cy="62" r="2" style="fill:#000" class="net_14"/>
  <line x1="205" x2="215" y1="190" y2="190" class="net_14"/>
  <line x1="82" x2="115" y1="58" y2="58" class="net_14"/>
  <line x1="115" x2="115" y1="58" y2="277.5" class="net_14"/>
  <line x1="115" x2="215" y1="277.5" y2="277.5" class="net_14"/>
  <line x1="82" x2="115" y1="58" y2="58" class="net_14"/>
  <line x1="115" x2="115" y1="58" y2="62" class="net_14"/>
  <line x1="115" x2="228.33333333333334" y1="62" y2="62" class="net_14"/>
  <line x1="228.33333333333334" x2="228.33333333333334" y1="62" y2="47" class="net_14"/>
  <line x1="170" x2="215" y1="205" y2="205" class="net_29"/>
  <line x1="240" x2="280" y1="277.5" y2="277.5" class="net_31"/>
  <line x1="82" x2="105" y1="135" y2="135" class="net_27"/>
  <line x1="105" x2="105" y1="135" y2="297.5" class="net_27"/>
  <line x1="105" x2="255" y1="297.5" y2="297.5" class="net_27"/>
  <line x1="255" x2="255" y1="297.5" y2="292.5" class="net_27"/>
  <line x1="255" x2="280" y1="292.5" y2="292.5" class="net_27"/>
  <line x1="82" x2="105" y1="135" y2="135" class="net_27"/>
  <line x1="105" x2="105" y1="135" y2="205" class="net_27"/>
  <circle cx="105" cy="205" r="2" style="fill:#000" class="net_27"/>
  <line x1="105" x2="145" y1="205" y2="205" class="net_27"/>
  <line x1="82" x2="149.66666666666666" y1="78" y2="78" class="net_2,3,4,5,6,7,8,9,10,11,12,13"/>
  <line x1="82" x2="135" y1="78" y2="78" class="net_2,3,4,5,6,7,8,9,10,11,12,13"/>
  <line x1="135" x2="135" y1="78" y2="140" class="net_2,3,4,5,6,7,8,9,10,11,12,13"/>
  <circle cx="135" cy="78" r="2" style="fill:#000" class="net_2,3,4,5,6,7,8,9,10,11,12,13"/>
  <line x1="135" x2="149.66666666666666" y1="140" y2="140" class="net_2,3,4,5,6,7,8,9,10,11,12,13"/>
  <line x1="82" x2="125" y1="155" y2="155" class="net_15,16,17,18,19,20,21,22,23,24,25,26"/>
  <line x1="125" x2="125" y1="155" y2="93" class="net_15,16,17,18,19,20,21,22,23,24,25,26"/>
  <circle cx="125" cy="155" r="2" style="fill:#000" class="net_15,16,17,18,19,20,21,22,23,24,25,26"/>
  <line x1="125" x2="149.66666666666666" y1="93" y2="93" class="net_15,16,17,18,19,20,21,22,23,24,25,26"/>
  <line x1="82" x2="149.66666666666666" y1="155" y2="155" class="net_15,16,17,18,19,20,21,22,23,24,25,26"/>
  <line x1="238.33333333333334" x2="283.3333333333333" y1="32" y2="32" class="net_35"/>
  <line x1="245" x2="255" y1="92" y2="92" class="net_37"/>
  <line x1="255" x2="255" y1="92" y2="52" class="net_37"/>
  <line x1="255" x2="283.3333333333333" y1="52" y2="52" class="net_37"/>
  <line x1="245" x2="293.3333333333333" y1="197.5" y2="197.5" class="net_30"/>
  <line x1="293.3333333333333" x2="293.3333333333333" y1="197.5" y2="57" class="net_30"/>
  <line x1="171.66666666666666" x2="185" y1="85.5" y2="85.5" class="net_33"/>
  <line x1="185" x2="185" y1="85.5" y2="22" class="net_33"/>
  <line x1="185" x2="218.33333333333334" y1="22" y2="22" class="net_33"/>
  <line x1="171.66666666666666" x2="195" y1="147.5" y2="147.5" class="net_34"/>
  <line x1="195" x2="195" y1="147.5" y2="42" class="net_34"/>
  <line x1="195" x2="218.33333333333334" y1="42" y2="42" class="net_34"/>
  <line x1="303.3333333333333" x2="345" y1="42" y2="42" class="net_36"/>
  <line x1="310" x2="320" y1="227.5" y2="227.5" class="net_38"/>
  <line x1="320" x2="320" y1="227.5" y2="62" class="net_38"/>
  <line x1="320" x2="345" y1="62" y2="62" class="net_38"/>
  <line x1="310" x2="355" y1="285" y2="285" class="net_32"/>
  <line x1="355" x2="355" y1="285" y2="67" class="net_32"/>
  <line x1="365" x2="400" y1="52" y2="52" class="net_28"/>
  <line x1="40" x2="77" y1="68" y2="68" class="net_2,3,4,5,6,7,8,9,10,11,12,13,14"/>
  <line x1="40" x2="77" y1="145" y2="145" class="net_15,16,17,18,19,20,21,22,23,24,25,26,27"/>
</svg>
