<svg style="background:white" xmlns="http://www.w3.org/2000/svg" xmlns:xlink="http://www.w3.org/1999/xlink" xmlns:s="https://github.com/nturley/netlistsvg" width="1038" height="887">
  <style>svg {
    stroke:#000;
    fill:none;
  }
  text {
    fill:#000;
    stroke:none;
    font-size:10px;
    font-weight: bold;
    font-family: "Courier New", monospace;
  }
  .nodelabel {
    text-anchor: middle;
  }
  .inputPortLabel {
    text-anchor: end;
  }
  .splitjoinBody {
    fill:#000;
  }</style>
  <g s:type="add" transform="translate(725.3333333333334,803)" s:width="25" s:height="25" id="cell_$add$rtl/int_to_fp.v:14$59">
    <s:alias val="$add"/>
    <circle r="12.5" cx="12.5" cy="12.5" class="cell_$add$rtl/int_to_fp.v:14$59"/>
    <line x1="7.5" x2="17.5" y1="12.5" y2="12.5" class="cell_$add$rtl/int_to_fp.v:14$59"/>
    <line x1="12.5" x2="12.5" y1="7.5" y2="17.5" class="cell_$add$rtl/int_to_fp.v:14$59"/>
    <g s:x="3" s:y="5" s:pid="A"/>
    <g s:x="3" s:y="20" s:pid="B"/>
    <g s:x="25" s:y="12.5" s:pid="Y"/>
  </g>
  <g s:type="generic" transform="translate(149,822.5)" s:width="30" s:height="40" id="cell_$neg$rtl/int_to_fp.v:7$54">
    <text x="15" y="-4" class="nodelabel cell_$neg$rtl/int_to_fp.v:7$54" s:attribute="ref">$neg</text>
    <rect width="30" height="20" s:generic="body" class="cell_$neg$rtl/int_to_fp.v:7$54"/>
    <g transform="translate(0,10)" s:x="0" s:y="10" s:pid="in0" id="port_$neg$rtl/int_to_fp.v:7$54~A">
      <text x="-3" y="-4" class="inputPortLabel cell_$neg$rtl/int_to_fp.v:7$54">A</text>
    </g>
    <g transform="translate(30,10)" s:x="30" s:y="10" s:pid="out0" id="port_$neg$rtl/int_to_fp.v:7$54~Y">
      <text x="5" y="-4" style="fill:#000; stroke:none" class="cell_$neg$rtl/int_to_fp.v:7$54">Y</text>
    </g>
  </g>
  <g s:type="generic" transform="translate(684,87)" s:width="30" s:height="40" id="cell_$shl$rtl/int_to_fp.v:13$57">
    <text x="15" y="-4" class="nodelabel cell_$shl$rtl/int_to_fp.v:13$57" s:attribute="ref">$shl</text>
    <rect width="30" height="40" s:generic="body" class="cell_$shl$rtl/int_to_fp.v:13$57"/>
    <g transform="translate(0,10)" s:x="0" s:y="10" s:pid="in0" id="port_$shl$rtl/int_to_fp.v:13$57~A">
      <text x="-3" y="-4" class="inputPortLabel cell_$shl$rtl/int_to_fp.v:13$57">A</text>
    </g>
    <g transform="translate(0,30)" s:x="0" s:y="10" s:pid="in0" id="port_$shl$rtl/int_to_fp.v:13$57~B">
      <text x="-3" y="-4" class="inputPortLabel cell_$shl$rtl/int_to_fp.v:13$57">B</text>
    </g>
    <g transform="translate(30,10)" s:x="30" s:y="10" s:pid="out0" id="port_$shl$rtl/int_to_fp.v:13$57~Y">
      <text x="5" y="-4" style="fill:#000; stroke:none" class="cell_$shl$rtl/int_to_fp.v:13$57">Y</text>
    </g>
  </g>
  <g s:type="sub" transform="translate(505,692)" s:width="25" s:height="25" id="cell_$sub$rtl/int_to_fp.v:13$56">
    <s:alias val="$sub"/>
    <circle r="12.5" cx="12.5" cy="12.5" class="cell_$sub$rtl/int_to_fp.v:13$56"/>
    <line x1="7.5" x2="17.5" y1="12.5" y2="12.5" class="cell_$sub$rtl/int_to_fp.v:13$56"/>
    <g s:x="3" s:y="5" s:pid="A"/>
    <g s:x="3" s:y="20" s:pid="B"/>
    <g s:x="25" s:y="12.5" s:pid="Y"/>
  </g>
  <g s:type="mux" transform="translate(875,67.5)" s:width="20" s:height="40" id="cell_$ternary$rtl/int_to_fp.v:13$58">
    <s:alias val="$pmux"/>
    <s:alias val="$mux"/>
    <s:alias val="$_MUX_"/>
    <path d="M0,0 L20,10 L20,30 L0,40 Z" class="cell_$ternary$rtl/int_to_fp.v:13$58"/>
    <g s:x="0" s:y="10" s:pid="A"/>
    <g s:x="0" s:y="30" s:pid="B"/>
    <g s:x="10" s:y="35" s:pid="S"/>
    <g s:x="20" s:y="20" s:pid="Y"/>
  </g>
  <g s:type="mux" transform="translate(875,785.5)" s:width="20" s:height="40" id="cell_$ternary$rtl/int_to_fp.v:14$60">
    <s:alias val="$pmux"/>
    <s:alias val="$mux"/>
    <s:alias val="$_MUX_"/>
    <path d="M0,0 L20,10 L20,30 L0,40 Z" class="cell_$ternary$rtl/int_to_fp.v:14$60"/>
    <g s:x="0" s:y="10" s:pid="A"/>
    <g s:x="0" s:y="30" s:pid="B"/>
    <g s:x="10" s:y="35" s:pid="S"/>
    <g s:x="20" s:y="20" s:pid="Y"/>
  </g>
  <g s:type="mux" transform="translate(334,803)" s:width="20" s:height="40" id="cell_$ternary$rtl/int_to_fp.v:7$55">
    <s:alias val="$pmux"/>
    <s:alias val="$mux"/>
    <s:alias val="$_MUX_"/>
    <path d="M0,0 L20,10 L20,30 L0,40 Z" class="cell_$ternary$rtl/int_to_fp.v:7$55"/>
    <g s:x="0" s:y="10" s:pid="A"/>
    <g s:x="0" s:y="30" s:pid="B"/>
    <g s:x="10" s:y="35" s:pid="S"/>
    <g s:x="20" s:y="20" s:pid="Y"/>
  </g>
  <g s:type="generic" transform="translate(408,812.5)" s:width="30" s:height="40" id="cell_uut0">
    <text x="15" y="-4" class="nodelabel cell_uut0" s:attribute="ref">prio_encoder_723</text>
    <rect width="30" height="40" s:generic="body" class="cell_uut0"/>
    <g transform="translate(0,10)" s:x="0" s:y="10" s:pid="in0" id="port_uut0~val">
      <text x="-3" y="-4" class="inputPortLabel cell_uut0">val</text>
    </g>
    <g transform="translate(30,10)" s:x="30" s:y="10" s:pid="out0" id="port_uut0~index">
      <text x="5" y="-4" style="fill:#000; stroke:none" class="cell_uut0">index</text>
    </g>
    <g transform="translate(30,30)" s:x="30" s:y="10" s:pid="out0" id="port_uut0~valid">
      <text x="5" y="-4" style="fill:#000; stroke:none" class="cell_uut0">valid</text>
    </g>
  </g>
  <g s:type="inputExt" transform="translate(12,845.5)" s:width="30" s:height="20" id="cell_int_in">
    <text x="15" y="-4" class="nodelabel cell_int_in" s:attribute="ref">int_in</text>
    <s:alias val="$_inputExt_"/>
    <path d="M0,0 L0,20 L15,20 L30,10 L15,0 Z" class="cell_int_in"/>
    <g s:x="28" s:y="10" s:pid="Y"/>
  </g>
  <g s:type="outputExt" transform="translate(990,825.5)" s:width="30" s:height="20" id="cell_fp_out">
    <text x="15" y="-4" class="nodelabel cell_fp_out" s:attribute="ref">fp_out</text>
    <s:alias val="$_outputExt_"/>
    <path d="M30,0 L30,20 L15,20 L0,10 L15,0 Z" class="cell_fp_out"/>
    <g s:x="0" s:y="10" s:pid="A"/>
  </g>
  <g s:type="constant" transform="translate(612,793)" s:width="30" s:height="20" id="cell_1000">
    <text x="15" y="-4" class="nodelabel cell_1000" s:attribute="ref">0x8</text>
    <s:alias val="$_constant_"/>
    <rect width="30" height="20" class="cell_1000"/>
    <g s:x="30" s:y="10" s:pid="Y"/>
  </g>
  <g s:type="constant" transform="translate(408,687)" s:width="30" s:height="20" id="cell_111">
    <text x="15" y="-4" class="nodelabel cell_111" s:attribute="ref">111</text>
    <s:alias val="$_constant_"/>
    <rect width="30" height="20" class="cell_111"/>
    <g s:x="30" s:y="10" s:pid="Y"/>
  </g>
  <g s:type="constant" transform="translate(684,22)" s:width="30" s:height="20" id="cell_00000000">
    <text x="15" y="-4" class="nodelabel cell_00000000" s:attribute="ref">0x0</text>
    <s:alias val="$_constant_"/>
    <rect width="30" height="20" class="cell_00000000"/>
    <g s:x="30" s:y="10" s:pid="Y"/>
  </g>
  <g s:type="constant" transform="translate(684,748)" s:width="30" s:height="20" id="cell_0000">
    <text x="15" y="-4" class="nodelabel cell_0000" s:attribute="ref">0x0</text>
    <s:alias val="$_constant_"/>
    <rect width="30" height="20" class="cell_0000"/>
    <g s:x="30" s:y="10" s:pid="Y"/>
  </g>
  <g s:type="join" transform="translate(613.1818181818181,97)" s:width="4" s:height="40" id="cell_$join$,43,44,45,46,46,46,46,46,46,46,46,46,46,46,46,46,46,46,46,46,46,46,46,46,46,46,46,46,46,46,46,46,">
    <rect width="5" height="580" class="splitjoinBody" s:generic="body"/>
    <s:alias val="$_join_"/>
    <g s:x="5" s:y="20" s:pid="out"/>
    <g transform="translate(0,10)" s:x="0" s:y="10" s:pid="in0">
      <text x="-3" y="-4" class="inputPortLabel">0:3</text>
    </g>
    <g transform="translate(0,30)" s:x="0" s:y="10" s:pid="in0">
      <text x="-3" y="-4" class="inputPortLabel">4</text>
    </g>
    <g transform="translate(0,50)" s:x="0" s:y="10" s:pid="in0">
      <text x="-3" y="-4" class="inputPortLabel">5</text>
    </g>
    <g transform="translate(0,70)" s:x="0" s:y="10" s:pid="in0">
      <text x="-3" y="-4" class="inputPortLabel">6</text>
    </g>
    <g transform="translate(0,90)" s:x="0" s:y="10" s:pid="in0">
      <text x="-3" y="-4" class="inputPortLabel">7</text>
    </g>
    <g transform="translate(0,110)" s:x="0" s:y="10" s:pid="in0">
      <text x="-3" y="-4" class="inputPortLabel">8</text>
    </g>
    <g transform="translate(0,130)" s:x="0" s:y="10" s:pid="in0">
      <text x="-3" y="-4" class="inputPortLabel">9</text>
    </g>
    <g transform="translate(0,150)" s:x="0" s:y="10" s:pid="in0">
      <text x="-3" y="-4" class="inputPortLabel">10</text>
    </g>
    <g transform="translate(0,170)" s:x="0" s:y="10" s:pid="in0">
      <text x="-3" y="-4" class="inputPortLabel">11</text>
    </g>
    <g transform="translate(0,190)" s:x="0" s:y="10" s:pid="in0">
      <text x="-3" y="-4" class="inputPortLabel">12</text>
    </g>
    <g transform="translate(0,210)" s:x="0" s:y="10" s:pid="in0">
      <text x="-3" y="-4" class="inputPortLabel">13</text>
    </g>
    <g transform="translate(0,230)" s:x="0" s:y="10" s:pid="in0">
      <text x="-3" y="-4" class="inputPortLabel">14</text>
    </g>
    <g transform="translate(0,250)" s:x="0" s:y="10" s:pid="in0">
      <text x="-3" y="-4" class="inputPortLabel">15</text>
    </g>
    <g transform="translate(0,270)" s:x="0" s:y="10" s:pid="in0">
      <text x="-3" y="-4" class="inputPortLabel">16</text>
    </g>
    <g transform="translate(0,290)" s:x="0" s:y="10" s:pid="in0">
      <text x="-3" y="-4" class="inputPortLabel">17</text>
    </g>
    <g transform="translate(0,310)" s:x="0" s:y="10" s:pid="in0">
      <text x="-3" y="-4" class="inputPortLabel">18</text>
    </g>
    <g transform="translate(0,330)" s:x="0" s:y="10" s:pid="in0">
      <text x="-3" y="-4" class="inputPortLabel">19</text>
    </g>
    <g transform="translate(0,350)" s:x="0" s:y="10" s:pid="in0">
      <text x="-3" y="-4" class="inputPortLabel">20</text>
    </g>
    <g transform="translate(0,370)" s:x="0" s:y="10" s:pid="in0">
      <text x="-3" y="-4" class="inputPortLabel">21</text>
    </g>
    <g transform="translate(0,390)" s:x="0" s:y="10" s:pid="in0">
      <text x="-3" y="-4" class="inputPortLabel">22</text>
    </g>
    <g transform="translate(0,410)" s:x="0" s:y="10" s:pid="in0">
      <text x="-3" y="-4" class="inputPortLabel">23</text>
    </g>
    <g transform="translate(0,430)" s:x="0" s:y="10" s:pid="in0">
      <text x="-3" y="-4" class="inputPortLabel">24</text>
    </g>
    <g transform="translate(0,450)" s:x="0" s:y="10" s:pid="in0">
      <text x="-3" y="-4" class="inputPortLabel">25</text>
    </g>
    <g transform="translate(0,470)" s:x="0" s:y="10" s:pid="in0">
      <text x="-3" y="-4" class="inputPortLabel">26</text>
    </g>
    <g transform="translate(0,490)" s:x="0" s:y="10" s:pid="in0">
      <text x="-3" y="-4" class="inputPortLabel">27</text>
    </g>
    <g transform="translate(0,510)" s:x="0" s:y="10" s:pid="in0">
      <text x="-3" y="-4" class="inputPortLabel">28</text>
    </g>
    <g transform="translate(0,530)" s:x="0" s:y="10" s:pid="in0">
      <text x="-3" y="-4" class="inputPortLabel">29</text>
    </g>
    <g transform="translate(0,550)" s:x="0" s:y="10" s:pid="in0">
      <text x="-3" y="-4" class="inputPortLabel">30</text>
    </g>
    <g transform="translate(0,570)" s:x="0" s:y="10" s:pid="in0">
      <text x="-3" y="-4" class="inputPortLabel">31</text>
    </g>
  </g>
  <g s:type="join" transform="translate(949,815)" s:width="4" s:height="40" id="cell_$join$,10,11,12,13,14,15,16,17,18,19,20,21,9,">
    <rect width="5" height="60" class="splitjoinBody" s:generic="body"/>
    <s:alias val="$_join_"/>
    <g s:x="5" s:y="20" s:pid="out"/>
    <g transform="translate(0,10)" s:x="0" s:y="10" s:pid="in0">
      <text x="-3" y="-4" class="inputPortLabel">0:7</text>
    </g>
    <g transform="translate(0,30)" s:x="0" s:y="10" s:pid="in0">
      <text x="-3" y="-4" class="inputPortLabel">8:11</text>
    </g>
    <g transform="translate(0,50)" s:x="0" s:y="10" s:pid="in0">
      <text x="-3" y="-4" class="inputPortLabel">12</text>
    </g>
  </g>
  <g s:type="split" transform="translate(83,835)" s:width="5" s:height="40" id="cell_$split$,2,3,4,5,6,7,8,9,">
    <rect width="5" height="40" class="splitjoinBody" s:generic="body"/>
    <s:alias val="$_split_"/>
    <g s:x="0" s:y="20" s:pid="in"/>
    <g transform="translate(4,10)" s:x="4" s:y="10" s:pid="out0">
      <text x="5" y="-4">0:6</text>
    </g>
    <g transform="translate(4,30)" s:x="4" s:y="10" s:pid="out0">
      <text x="5" y="-4">7</text>
    </g>
  </g>
  <g s:type="split" transform="translate(565,577)" s:width="5" s:height="40" id="cell_$split$,43,44,45,46,">
    <rect width="5" height="20" class="splitjoinBody" s:generic="body"/>
    <s:alias val="$_split_"/>
    <g s:x="0" s:y="20" s:pid="in"/>
    <g transform="translate(4,10)" s:x="4" s:y="10" s:pid="out0">
      <text x="5" y="-4">3</text>
    </g>
  </g>
  <line x1="642" x2="652" y1="803" y2="803" class="net_56,57,58,59"/>
  <line x1="652" x2="652" y1="803" y2="808" class="net_56,57,58,59"/>
  <line x1="652" x2="728.3333333333334" y1="808" y2="808" class="net_56,57,58,59"/>
  <line x1="439" x2="728.3333333333334" y1="823" y2="823" class="net_22,23,24"/>
  <line x1="439" x2="480" y1="823" y2="823" class="net_22,23,24"/>
  <line x1="480" x2="480" y1="823" y2="712" class="net_22,23,24"/>
  <circle cx="480" cy="823" r="2" style="fill:#000" class="net_22,23,24"/>
  <line x1="480" x2="508" y1="712" y2="712" class="net_22,23,24"/>
  <line x1="88" x2="117" y1="845.5" y2="845.5" class="net_2,3,4,5,6,7,8"/>
  <line x1="117" x2="117" y1="845.5" y2="833" class="net_2,3,4,5,6,7,8"/>
  <circle cx="117" cy="833" r="2" style="fill:#000" class="net_2,3,4,5,6,7,8"/>
  <line x1="117" x2="149" y1="833" y2="833" class="net_2,3,4,5,6,7,8"/>
  <line x1="88" x2="117" y1="845.5" y2="845.5" class="net_2,3,4,5,6,7,8"/>
  <line x1="117" x2="117" y1="845.5" y2="801.5" class="net_2,3,4,5,6,7,8"/>
  <line x1="117" x2="309" y1="801.5" y2="801.5" class="net_2,3,4,5,6,7,8"/>
  <line x1="309" x2="309" y1="801.5" y2="813" class="net_2,3,4,5,6,7,8"/>
  <line x1="309" x2="334" y1="813" y2="813" class="net_2,3,4,5,6,7,8"/>
  <line x1="354" x2="364" y1="823" y2="823" class="net_36,37,38,39,40,41,42"/>
  <line x1="364" x2="364" y1="823" y2="44" class="net_36,37,38,39,40,41,42"/>
  <line x1="364" x2="652" y1="44" y2="44" class="net_36,37,38,39,40,41,42"/>
  <line x1="652" x2="652" y1="44" y2="97.5" class="net_36,37,38,39,40,41,42"/>
  <circle cx="364" cy="823" r="2" style="fill:#000" class="net_36,37,38,39,40,41,42"/>
  <line x1="652" x2="684" y1="97.5" y2="97.5" class="net_36,37,38,39,40,41,42"/>
  <line x1="354" x2="408" y1="823" y2="823" class="net_36,37,38,39,40,41,42"/>
  <line x1="619.1818181818181" x2="684" y1="117.5" y2="117.5" class="net_43,44,45,46,46,46,46,46,46,46,46,46,46,46,46,46,46,46,46,46,46,46,46,46,46,46,46,46,46,46,46,46"/>
  <line x1="438" x2="508" y1="697" y2="697" class="net_60,61,62"/>
  <line x1="714" x2="850" y1="32" y2="32" class="net_63,64,65,66,67,68,69,70"/>
  <line x1="850" x2="850" y1="32" y2="77.5" class="net_63,64,65,66,67,68,69,70"/>
  <line x1="850" x2="875" y1="77.5" y2="77.5" class="net_63,64,65,66,67,68,69,70"/>
  <line x1="715" x2="875" y1="97.5" y2="97.5" class="net_47,48,49,50,51,52,53,54"/>
  <line x1="439" x2="490" y1="843" y2="843" class="net_55"/>
  <line x1="490" x2="490" y1="843" y2="727" class="net_55"/>
  <line x1="490" x2="885" y1="727" y2="727" class="net_55"/>
  <circle cx="490" cy="843" r="2" style="fill:#000" class="net_55"/>
  <line x1="885" x2="885" y1="727" y2="102.5" class="net_55"/>
  <line x1="439" x2="885" y1="843" y2="843" class="net_55"/>
  <line x1="885" x2="885" y1="843" y2="820.5" class="net_55"/>
  <line x1="714" x2="850" y1="758" y2="758" class="net_71,72,73,74"/>
  <line x1="850" x2="850" y1="758" y2="795.5" class="net_71,72,73,74"/>
  <line x1="850" x2="875" y1="795.5" y2="795.5" class="net_71,72,73,74"/>
  <line x1="750.3333333333334" x2="875" y1="815.5" y2="815.5" class="net_25,26,27,28"/>
  <line x1="180" x2="334" y1="833" y2="833" class="net_29,30,31,32,33,34,35"/>
  <line x1="88" x2="309" y1="865.5" y2="865.5" class="net_9"/>
  <line x1="309" x2="309" y1="865.5" y2="855.5" class="net_9"/>
  <line x1="309" x2="344" y1="855.5" y2="855.5" class="net_9"/>
  <circle cx="309" cy="865.5" r="2" style="fill:#000" class="net_9"/>
  <line x1="344" x2="344" y1="855.5" y2="838" class="net_9"/>
  <line x1="88" x2="949" y1="865.5" y2="865.5" class="net_9"/>
  <line x1="955" x2="990" y1="835.5" y2="835.5" class="net_10,11,12,13,14,15,16,17,18,19,20,21,9"/>
  <line x1="530" x2="540" y1="704.5" y2="704.5" class="net_43,44,45,46"/>
  <line x1="540" x2="540" y1="704.5" y2="55" class="net_43,44,45,46"/>
  <line x1="540" x2="613.6818181818181" y1="55" y2="55" class="net_43,44,45,46"/>
  <circle cx="540" cy="704.5" r="2" style="fill:#000" class="net_43,44,45,46"/>
  <line x1="613.6818181818181" x2="613.6818181818181" y1="55" y2="107" class="net_43,44,45,46"/>
  <line x1="530" x2="565.5" y1="704.5" y2="704.5" class="net_43,44,45,46"/>
  <line x1="565.5" x2="565.5" y1="704.5" y2="598" class="net_43,44,45,46"/>
  <line x1="570" x2="587" y1="587.5" y2="587.5" class="net_46"/>
  <line x1="587" x2="587" y1="587.5" y2="85" class="net_46"/>
  <line x1="587" x2="613.6818181818181" y1="85" y2="85" class="net_46"/>
  <circle cx="587" cy="587.5" r="2" style="fill:#000" class="net_46"/>
  <circle cx="587" cy="85" r="2" style="fill:#000" class="net_46"/>
  <line x1="613.6818181818181" x2="613.6818181818181" y1="85" y2="127" class="net_46"/>
  <line x1="570" x2="587" y1="587.5" y2="587.5" class="net_46"/>
  <line x1="587" x2="587" y1="587.5" y2="75" class="net_46"/>
  <line x1="587" x2="613.6818181818181" y1="75" y2="75" class="net_46"/>
  <circle cx="587" cy="75" r="2" style="fill:#000" class="net_46"/>
  <line x1="613.6818181818181" x2="613.6818181818181" y1="75" y2="147" class="net_46"/>
  <line x1="570" x2="587" y1="587.5" y2="587.5" class="net_46"/>
  <line x1="587" x2="587" y1="587.5" y2="65" class="net_46"/>
  <line x1="587" x2="613.6818181818181" y1="65" y2="65" class="net_46"/>
  <line x1="613.6818181818181" x2="613.6818181818181" y1="65" y2="167" class="net_46"/>
  <line x1="570" x2="587" y1="587.5" y2="587.5" class="net_46"/>
  <line x1="587" x2="587" y1="587.5" y2="187.5" class="net_46"/>
  <circle cx="587" cy="187.5" r="2" style="fill:#000" class="net_46"/>
  <line x1="587" x2="613.1818181818181" y1="187.5" y2="187.5" class="net_46"/>
  <line x1="570" x2="587" y1="587.5" y2="587.5" class="net_46"/>
  <line x1="587" x2="587" y1="587.5" y2="207.5" class="net_46"/>
  <circle cx="587" cy="207.5" r="2" style="fill:#000" class="net_46"/>
  <line x1="587" x2="613.1818181818181" y1="207.5" y2="207.5" class="net_46"/>
  <line x1="570" x2="587" y1="587.5" y2="587.5" class="net_46"/>
  <line x1="587" x2="587" y1="587.5" y2="227.5" class="net_46"/>
  <circle cx="587" cy="227.5" r="2" style="fill:#000" class="net_46"/>
  <line x1="587" x2="613.1818181818181" y1="227.5" y2="227.5" class="net_46"/>
  <line x1="570" x2="587" y1="587.5" y2="587.5" class="net_46"/>
  <line x1="587" x2="587" y1="587.5" y2="247.5" class="net_46"/>
  <circle cx="587" cy="247.5" r="2" style="fill:#000" class="net_46"/>
  <line x1="587" x2="613.1818181818181" y1="247.5" y2="247.5" class="net_46"/>
  <line x1="570" x2="587" y1="587.5" y2="587.5" class="net_46"/>
  <line x1="587" x2="587" y1="587.5" y2="267.5" class="net_46"/>
  <circle cx="587" cy="267.5" r="2" style="fill:#000" class="net_46"/>
  <line x1="587" x2="613.1818181818181" y1="267.5" y2="267.5" class="net_46"/>
  <line x1="570" x2="587" y1="587.5" y2="587.5" class="net_46"/>
  <line x1="587" x2="587" y1="587.5" y2="287.5" class="net_46"/>
  <circle cx="587" cy="287.5" r="2" style="fill:#000" class="net_46"/>
  <line x1="587" x2="613.1818181818181" y1="287.5" y2="287.5" class="net_46"/>
  <line x1="570" x2="587" y1="587.5" y2="587.5" class="net_46"/>
  <line x1="587" x2="587" y1="587.5" y2="307.5" class="net_46"/>
  <circle cx="587" cy="307.5" r="2" style="fill:#000" class="net_46"/>
  <line x1="587" x2="613.1818181818181" y1="307.5" y2="307.5" class="net_46"/>
  <line x1="570" x2="587" y1="587.5" y2="587.5" class="net_46"/>
  <line x1="587" x2="587" y1="587.5" y2="327.5" class="net_46"/>
  <circle cx="587" cy="327.5" r="2" style="fill:#000" class="net_46"/>
  <line x1="587" x2="613.1818181818181" y1="327.5" y2="327.5" class="net_46"/>
  <line x1="570" x2="587" y1="587.5" y2="587.5" class="net_46"/>
  <line x1="587" x2="587" y1="587.5" y2="347.5" class="net_46"/>
  <circle cx="587" cy="347.5" r="2" style="fill:#000" class="net_46"/>
  <line x1="587" x2="613.1818181818181" y1="347.5" y2="347.5" class="net_46"/>
  <line x1="570" x2="587" y1="587.5" y2="587.5" class="net_46"/>
  <line x1="587" x2="587" y1="587.5" y2="367.5" class="net_46"/>
  <circle cx="587" cy="367.5" r="2" style="fill:#000" class="net_46"/>
  <line x1="587" x2="613.1818181818181" y1="367.5" y2="367.5" class="net_46"/>
  <line x1="570" x2="587" y1="587.5" y2="587.5" class="net_46"/>
  <line x1="587" x2="587" y1="587.5" y2="387.5" class="net_46"/>
  <circle cx="587" cy="387.5" r="2" style="fill:#000" class="net_46"/>
  <line x1="587" x2="613.1818181818181" y1="387.5" y2="387.5" class="net_46"/>
  <line x1="570" x2="587" y1="587.5" y2="587.5" class="net_46"/>
  <line x1="587" x2="587" y1="587.5" y2="407.5" class="net_46"/>
  <circle cx="587" cy="407.5" r="2" style="fill:#000" class="net_46"/>
  <line x1="587" x2="613.1818181818181" y1="407.5" y2="407.5" class="net_46"/>
  <line x1="570" x2="587" y1="587.5" y2="587.5" class="net_46"/>
  <line x1="587" x2="587" y1="587.5" y2="427.5" class="net_46"/>
  <circle cx="587" cy="427.5" r="2" style="fill:#000" class="net_46"/>
  <line x1="587" x2="613.1818181818181" y1="427.5" y2="427.5" class="net_46"/>
  <line x1="570" x2="587" y1="587.5" y2="587.5" class="net_46"/>
  <line x1="587" x2="587" y1="587.5" y2="447.5" class="net_46"/>
  <circle cx="587" cy="447.5" r="2" style="fill:#000" class="net_46"/>
  <line x1="587" x2="613.1818181818181" y1="447.5" y2="447.5" class="net_46"/>
  <line x1="570" x2="587" y1="587.5" y2="587.5" class="net_46"/>
  <line x1="587" x2="587" y1="587.5" y2="467.5" class="net_46"/>
  <circle cx="587" cy="467.5" r="2" style="fill:#000" class="net_46"/>
  <line x1="587" x2="613.1818181818181" y1="467.5" y2="467.5" class="net_46"/>
  <line x1="570" x2="587" y1="587.5" y2="587.5" class="net_46"/>
  <line x1="587" x2="587" y1="587.5" y2="487.5" class="net_46"/>
  <circle cx="587" cy="487.5" r="2" style="fill:#000" class="net_46"/>
  <line x1="587" x2="613.1818181818181" y1="487.5" y2="487.5" class="net_46"/>
  <line x1="570" x2="587" y1="587.5" y2="587.5" class="net_46"/>
  <line x1="587" x2="587" y1="587.5" y2="507.5" class="net_46"/>
  <circle cx="587" cy="507.5" r="2" style="fill:#000" class="net_46"/>
  <line x1="587" x2="613.1818181818181" y1="507.5" y2="507.5" class="net_46"/>
  <line x1="570" x2="587" y1="587.5" y2="587.5" class="net_46"/>
  <line x1="587" x2="587" y1="587.5" y2="527.5" class="net_46"/>
  <circle cx="587" cy="527.5" r="2" style="fill:#000" class="net_46"/>
  <line x1="587" x2="613.1818181818181" y1="527.5" y2="527.5" class="net_46"/>
  <line x1="570" x2="587" y1="587.5" y2="587.5" class="net_46"/>
  <line x1="587" x2="587" y1="587.5" y2="547.5" class="net_46"/>
  <circle cx="587" cy="547.5" r="2" style="fill:#000" class="net_46"/>
  <line x1="587" x2="613.1818181818181" y1="547.5" y2="547.5" class="net_46"/>
  <line x1="570" x2="587" y1="587.5" y2="587.5" class="net_46"/>
  <line x1="587" x2="587" y1="587.5" y2="567.5" class="net_46"/>
  <circle cx="587" cy="567.5" r="2" style="fill:#000" class="net_46"/>
  <line x1="587" x2="613.1818181818181" y1="567.5" y2="567.5" class="net_46"/>
  <line x1="570" x2="613.1818181818181" y1="587.5" y2="587.5" class="net_46"/>
  <line x1="570" x2="587" y1="587.5" y2="587.5" class="net_46"/>
  <line x1="587" x2="587" y1="587.5" y2="717" class="net_46"/>
  <line x1="587" x2="613.6818181818181" y1="717" y2="717" class="net_46"/>
  <line x1="613.6818181818181" x2="613.6818181818181" y1="717" y2="608" class="net_46"/>
  <line x1="570" x2="587" y1="587.5" y2="587.5" class="net_46"/>
  <line x1="587" x2="587" y1="587.5" y2="707" class="net_46"/>
  <line x1="587" x2="613.6818181818181" y1="707" y2="707" class="net_46"/>
  <circle cx="587" cy="707" r="2" style="fill:#000" class="net_46"/>
  <line x1="613.6818181818181" x2="613.6818181818181" y1="707" y2="628" class="net_46"/>
  <line x1="570" x2="587" y1="587.5" y2="587.5" class="net_46"/>
  <line x1="587" x2="587" y1="587.5" y2="697" class="net_46"/>
  <line x1="587" x2="613.6818181818181" y1="697" y2="697" class="net_46"/>
  <circle cx="587" cy="697" r="2" style="fill:#000" class="net_46"/>
  <line x1="613.6818181818181" x2="613.6818181818181" y1="697" y2="648" class="net_46"/>
  <line x1="570" x2="587" y1="587.5" y2="587.5" class="net_46"/>
  <line x1="587" x2="587" y1="587.5" y2="687" class="net_46"/>
  <line x1="587" x2="613.6818181818181" y1="687" y2="687" class="net_46"/>
  <circle cx="587" cy="687" r="2" style="fill:#000" class="net_46"/>
  <line x1="613.6818181818181" x2="613.6818181818181" y1="687" y2="668" class="net_46"/>
  <line x1="895" x2="915" y1="87.5" y2="87.5" class="net_10,11,12,13,14,15,16,17"/>
  <line x1="915" x2="915" y1="87.5" y2="825.5" class="net_10,11,12,13,14,15,16,17"/>
  <line x1="915" x2="949" y1="825.5" y2="825.5" class="net_10,11,12,13,14,15,16,17"/>
  <line x1="895" x2="905" y1="805.5" y2="805.5" class="net_18,19,20,21"/>
  <line x1="905" x2="905" y1="805.5" y2="845.5" class="net_18,19,20,21"/>
  <line x1="905" x2="949" y1="845.5" y2="845.5" class="net_18,19,20,21"/>
  <line x1="40" x2="83" y1="855.5" y2="855.5" class="net_2,3,4,5,6,7,8,9"/>
</svg>
