<svg style="background:white" xmlns="http://www.w3.org/2000/svg" xmlns:xlink="http://www.w3.org/1999/xlink" xmlns:s="https://github.com/nturley/netlistsvg" width="544" height="307.5">
  <style>svg {
    stroke:#000;
    fill:none;
  }
  text {
    fill:#000;
    stroke:none;
    font-size:10px;
    font-weight: bold;
    font-family: "Courier New", monospace;
  }
  .nodelabel {
    text-anchor: middle;
  }
  .inputPortLabel {
    text-anchor: end;
  }
  .splitjoinBody {
    fill:#000;
  }</style>
  <g s:type="mux" transform="translate(265.33333333333337,130.5)" s:width="20" s:height="40" id="cell_$procmux$19">
    <s:alias val="$pmux"/>
    <s:alias val="$mux"/>
    <s:alias val="$_MUX_"/>
    <path d="M0,0 L20,10 L20,30 L0,40 Z" class="cell_$procmux$19"/>
    <g s:x="0" s:y="10" s:pid="A"/>
    <g s:x="0" s:y="30" s:pid="B"/>
    <g s:x="10" s:y="35" s:pid="S"/>
    <g s:x="20" s:y="20" s:pid="Y"/>
  </g>
  <g s:type="mux" transform="translate(327,55.5)" s:width="20" s:height="40" id="cell_$procmux$28">
    <s:alias val="$pmux"/>
    <s:alias val="$mux"/>
    <s:alias val="$_MUX_"/>
    <path d="M0,0 L20,10 L20,30 L0,40 Z" class="cell_$procmux$28"/>
    <g s:x="0" s:y="10" s:pid="A"/>
    <g s:x="0" s:y="30" s:pid="B"/>
    <g s:x="10" s:y="35" s:pid="S"/>
    <g s:x="20" s:y="20" s:pid="Y"/>
  </g>
  <g s:type="mux" transform="translate(447,24.5)" s:width="20" s:height="40" id="cell_$procmux$34">
    <s:alias val="$pmux"/>
    <s:alias val="$mux"/>
    <s:alias val="$_MUX_"/>
    <path d="M0,0 L20,10 L20,30 L0,40 Z" class="cell_$procmux$34"/>
    <g s:x="0" s:y="10" s:pid="A"/>
    <g s:x="0" s:y="30" s:pid="B"/>
    <g s:x="10" s:y="35" s:pid="S"/>
    <g s:x="20" s:y="20" s:pid="Y"/>
  </g>
  <g s:type="mux" transform="translate(142,110.5)" s:width="20" s:height="40" id="cell_$procmux$7">
    <s:alias val="$pmux"/>
    <s:alias val="$mux"/>
    <s:alias val="$_MUX_"/>
    <path d="M0,0 L20,10 L20,30 L0,40 Z" class="cell_$procmux$7"/>
    <g s:x="0" s:y="10" s:pid="A"/>
    <g s:x="0" s:y="30" s:pid="B"/>
    <g s:x="10" s:y="35" s:pid="S"/>
    <g s:x="20" s:y="20" s:pid="Y"/>
  </g>
  <g s:type="inputExt" transform="translate(12,226)" s:width="30" s:height="20" id="cell_r">
    <text x="15" y="-4" class="nodelabel cell_r" s:attribute="ref">r</text>
    <s:alias val="$_inputExt_"/>
    <path d="M0,0 L0,20 L15,20 L30,10 L15,0 Z" class="cell_r"/>
    <g s:x="28" s:y="10" s:pid="Y"/>
  </g>
  <g s:type="outputExt" transform="translate(502,34.5)" s:width="30" s:height="20" id="cell_y">
    <text x="15" y="-4" class="nodelabel cell_y" s:attribute="ref">y</text>
    <s:alias val="$_outputExt_"/>
    <path d="M30,0 L30,20 L15,20 L0,10 L15,0 Z" class="cell_y"/>
    <g s:x="0" s:y="10" s:pid="A"/>
  </g>
  <g s:type="constant" transform="translate(77,34.5)" s:width="30" s:height="20" id="cell_0">
    <text x="15" y="-4" class="nodelabel cell_0" s:attribute="ref">0</text>
    <s:alias val="$_constant_"/>
    <rect width="30" height="20" class="cell_0"/>
    <g s:x="30" s:y="10" s:pid="Y"/>
  </g>
  <g s:type="constant" transform="translate(197,205)" s:width="30" s:height="20" id="cell_10">
    <text x="15" y="-4" class="nodelabel cell_10" s:attribute="ref">10</text>
    <s:alias val="$_constant_"/>
    <rect width="30" height="20" class="cell_10"/>
    <g s:x="30" s:y="10" s:pid="Y"/>
  </g>
  <g s:type="constant" transform="translate(262,75.5)" s:width="30" s:height="20" id="cell_11">
    <text x="15" y="-4" class="nodelabel cell_11" s:attribute="ref">11</text>
    <s:alias val="$_constant_"/>
    <rect width="30" height="20" class="cell_11"/>
    <g s:x="30" s:y="10" s:pid="Y"/>
  </g>
  <g s:type="constant" transform="translate(382,99)" s:width="30" s:height="20" id="cell_100">
    <text x="15" y="-4" class="nodelabel cell_100" s:attribute="ref">100</text>
    <s:alias val="$_constant_"/>
    <rect width="30" height="20" class="cell_100"/>
    <g s:x="30" s:y="10" s:pid="Y"/>
  </g>
  <g s:type="constant" transform="translate(77,130.5)" s:width="30" s:height="20" id="cell_1">
    <text x="15" y="-4" class="nodelabel cell_1" s:attribute="ref">1</text>
    <s:alias val="$_constant_"/>
    <rect width="30" height="20" class="cell_1"/>
    <g s:x="30" s:y="10" s:pid="Y"/>
  </g>
  <g s:type="join" transform="translate(208,120)" s:width="4" s:height="40" id="cell_$join$,9,14,">
    <rect width="5" height="40" class="splitjoinBody" s:generic="body"/>
    <s:alias val="$_join_"/>
    <g s:x="5" s:y="20" s:pid="out"/>
    <g transform="translate(0,10)" s:x="0" s:y="10" s:pid="in0">
      <text x="-3" y="-4" class="inputPortLabel">0</text>
    </g>
    <g transform="translate(0,30)" s:x="0" s:y="10" s:pid="in0">
      <text x="-3" y="-4" class="inputPortLabel">1</text>
    </g>
  </g>
  <g s:type="join" transform="translate(401,14)" s:width="4" s:height="40" id="cell_$join$,12,13,14,">
    <rect width="5" height="40" class="splitjoinBody" s:generic="body"/>
    <s:alias val="$_join_"/>
    <g s:x="5" s:y="20" s:pid="out"/>
    <g transform="translate(0,10)" s:x="0" s:y="10" s:pid="in0">
      <text x="-3" y="-4" class="inputPortLabel">0:1</text>
    </g>
    <g transform="translate(0,30)" s:x="0" s:y="10" s:pid="in0">
      <text x="-3" y="-4" class="inputPortLabel">2</text>
    </g>
  </g>
  <g s:type="split" transform="translate(92.8,215.5)" s:width="5" s:height="40" id="cell_$split$,2,3,4,5,">
    <rect width="5" height="80" class="splitjoinBody" s:generic="body"/>
    <s:alias val="$_split_"/>
    <g s:x="0" s:y="20" s:pid="in"/>
    <g transform="translate(4,10)" s:x="4" s:y="10" s:pid="out0">
      <text x="5" y="-4">1</text>
    </g>
    <g transform="translate(4,30)" s:x="4" s:y="10" s:pid="out0">
      <text x="5" y="-4">2</text>
    </g>
    <g transform="translate(4,50)" s:x="4" s:y="10" s:pid="out0">
      <text x="5" y="-4">3</text>
    </g>
    <g transform="translate(4,70)" s:x="4" s:y="10" s:pid="out0">
      <text x="5" y="-4">0</text>
    </g>
  </g>
  <line x1="214" x2="265.33333333333337" y1="140.5" y2="140.5" class="net_9,14"/>
  <line x1="227" x2="237" y1="215" y2="215" class="net_15,16"/>
  <line x1="237" x2="237" y1="215" y2="160.5" class="net_15,16"/>
  <line x1="237" x2="265.33333333333337" y1="160.5" y2="160.5" class="net_15,16"/>
  <line x1="97.8" x2="117" y1="226" y2="226" class="net_3"/>
  <line x1="117" x2="117" y1="226" y2="235" class="net_3"/>
  <line x1="117" x2="275.33333333333337" y1="235" y2="235" class="net_3"/>
  <line x1="275.33333333333337" x2="275.33333333333337" y1="235" y2="165.5" class="net_3"/>
  <line x1="285.33333333333337" x2="302" y1="150.5" y2="150.5" class="net_10,11"/>
  <line x1="302" x2="302" y1="150.5" y2="65.5" class="net_10,11"/>
  <line x1="302" x2="327" y1="65.5" y2="65.5" class="net_10,11"/>
  <line x1="292" x2="327" y1="85.5" y2="85.5" class="net_17,18"/>
  <line x1="97.8" x2="337" y1="246" y2="246" class="net_4"/>
  <line x1="337" x2="337" y1="246" y2="90.5" class="net_4"/>
  <line x1="407" x2="447" y1="34.5" y2="34.5" class="net_12,13,14"/>
  <line x1="412" x2="422" y1="109" y2="109" class="net_20,21,22"/>
  <line x1="422" x2="422" y1="109" y2="54.5" class="net_20,21,22"/>
  <line x1="422" x2="447" y1="54.5" y2="54.5" class="net_20,21,22"/>
  <line x1="97.8" x2="457" y1="266" y2="266" class="net_5"/>
  <line x1="457" x2="457" y1="266" y2="59.5" class="net_5"/>
  <line x1="107" x2="117" y1="44.5" y2="44.5" class="net_14"/>
  <line x1="117" x2="117" y1="44.5" y2="120.5" class="net_14"/>
  <circle cx="117" cy="44.5" r="2" style="fill:#000" class="net_14"/>
  <line x1="117" x2="142" y1="120.5" y2="120.5" class="net_14"/>
  <line x1="107" x2="172" y1="44.5" y2="44.5" class="net_14"/>
  <line x1="172" x2="172" y1="44.5" y2="150.5" class="net_14"/>
  <circle cx="172" cy="44.5" r="2" style="fill:#000" class="net_14"/>
  <line x1="172" x2="208" y1="150.5" y2="150.5" class="net_14"/>
  <line x1="107" x2="401" y1="44.5" y2="44.5" class="net_14"/>
  <line x1="107" x2="142" y1="140.5" y2="140.5" class="net_24"/>
  <line x1="97.8" x2="152" y1="286" y2="286" class="net_2"/>
  <line x1="152" x2="152" y1="286" y2="145.5" class="net_2"/>
  <line x1="467" x2="502" y1="44.5" y2="44.5" class="net_6,7,8"/>
  <line x1="162" x2="208" y1="130.5" y2="130.5" class="net_9"/>
  <line x1="347" x2="357" y1="75.5" y2="75.5" class="net_12,13"/>
  <line x1="357" x2="357" y1="75.5" y2="24.5" class="net_12,13"/>
  <line x1="357" x2="401" y1="24.5" y2="24.5" class="net_12,13"/>
  <line x1="40" x2="92.8" y1="236" y2="236" class="net_2,3,4,5"/>
</svg>
