<svg style="background:white" xmlns="http://www.w3.org/2000/svg" xmlns:xlink="http://www.w3.org/1999/xlink" xmlns:s="https://github.com/nturley/netlistsvg" width="763" height="444">
  <style>svg {
    stroke:#000;
    fill:none;
  }
  text {
    fill:#000;
    stroke:none;
    font-size:10px;
    font-weight: bold;
    font-family: "Courier New", monospace;
  }
  .nodelabel {
    text-anchor: middle;
  }
  .inputPortLabel {
    text-anchor: end;
  }
  .splitjoinBody {
    fill:#000;
  }</style>
  <g s:type="generic" transform="translate(234,265.5)" s:width="30" s:height="40" id="cell_$auto$opt_reduce.cc:131:opt_pmux$19">
    <text x="15" y="-4" class="nodelabel cell_$auto$opt_reduce.cc:131:opt_pmux$19" s:attribute="ref">$reduce_or</text>
    <rect width="30" height="20" s:generic="body" class="cell_$auto$opt_reduce.cc:131:opt_pmux$19"/>
    <g transform="translate(0,10)" s:x="0" s:y="10" s:pid="in0" id="port_$auto$opt_reduce.cc:131:opt_pmux$19~A">
      <text x="-3" y="-4" class="inputPortLabel cell_$auto$opt_reduce.cc:131:opt_pmux$19">A</text>
    </g>
    <g transform="translate(30,10)" s:x="30" s:y="10" s:pid="out0" id="port_$auto$opt_reduce.cc:131:opt_pmux$19~Y">
      <text x="5" y="-4" style="fill:#000; stroke:none" class="cell_$auto$opt_reduce.cc:131:opt_pmux$19">Y</text>
    </g>
  </g>
  <g s:type="generic" transform="translate(234,345.5)" s:width="30" s:height="40" id="cell_$auto$opt_reduce.cc:131:opt_pmux$21">
    <text x="15" y="-4" class="nodelabel cell_$auto$opt_reduce.cc:131:opt_pmux$21" s:attribute="ref">$reduce_or</text>
    <rect width="30" height="20" s:generic="body" class="cell_$auto$opt_reduce.cc:131:opt_pmux$21"/>
    <g transform="translate(0,10)" s:x="0" s:y="10" s:pid="in0" id="port_$auto$opt_reduce.cc:131:opt_pmux$21~A">
      <text x="-3" y="-4" class="inputPortLabel cell_$auto$opt_reduce.cc:131:opt_pmux$21">A</text>
    </g>
    <g transform="translate(30,10)" s:x="30" s:y="10" s:pid="out0" id="port_$auto$opt_reduce.cc:131:opt_pmux$21~Y">
      <text x="5" y="-4" style="fill:#000; stroke:none" class="cell_$auto$opt_reduce.cc:131:opt_pmux$21">Y</text>
    </g>
  </g>
  <g s:type="or" transform="translate(592,29.5)" s:width="30" s:height="25" id="cell_$logic_or$rtl/dual_edge_detector.v:23$9">
    <s:alias val="$or"/>
    <s:alias val="$logic_or"/>
    <s:alias val="$_OR_"/>
    <path d="M0,25 L0,25 L15,25 A15 12.5 0 0 0 15,0 L0,0" class="cell_$logic_or$rtl/dual_edge_detector.v:23$9"/>
    <path d="M0,0 A30 25 0 0 1 0,25" class="cell_$logic_or$rtl/dual_edge_detector.v:23$9"/>
    <g s:x="3" s:y="5" s:pid="A"/>
    <g s:x="3" s:y="20" s:pid="B"/>
    <g s:x="30" s:y="12.5" s:pid="Y"/>
  </g>
  <g s:type="dff" transform="translate(657,101.5)" s:width="30" s:height="40" id="cell_$procdff$18">
    <s:alias val="$dff"/>
    <s:alias val="$_DFF_"/>
    <s:alias val="$_DFF_P_"/>
    <rect width="30" height="40" x="0" y="0" class="cell_$procdff$18"/>
    <path d="M0,35 L5,30 L0,25" class="cell_$procdff$18"/>
    <g s:x="30" s:y="10" s:pid="Q"/>
    <g s:x="0" s:y="30" s:pid="CLK"/>
    <g s:x="0" s:y="30" s:pid="C"/>
    <g s:x="0" s:y="10" s:pid="D"/>
  </g>
  <g s:type="mux" transform="translate(532,81.5)" s:width="20" s:height="40" id="cell_$procmux$10">
    <s:alias val="$pmux"/>
    <s:alias val="$mux"/>
    <s:alias val="$_MUX_"/>
    <path d="M0,0 L20,10 L20,30 L0,40 Z" class="cell_$procmux$10"/>
    <g s:x="0" s:y="10" s:pid="A"/>
    <g s:x="0" s:y="30" s:pid="B"/>
    <g s:x="10" s:y="35" s:pid="S"/>
    <g s:x="20" s:y="20" s:pid="Y"/>
  </g>
  <g s:type="eq" transform="translate(80.33333333333333,253.5)" s:width="25" s:height="25" id="cell_$procmux$11_CMP0">
    <s:alias val="$eq"/>
    <circle r="12.5" cx="12.5" cy="12.5" class="cell_$procmux$11_CMP0"/>
    <line x1="7.5" x2="17.5" y1="10" y2="10" class="cell_$procmux$11_CMP0"/>
    <line x1="7.5" x2="17.5" y1="15" y2="15" class="cell_$procmux$11_CMP0"/>
    <g s:x="3" s:y="5" s:pid="A"/>
    <g s:x="3" s:y="20" s:pid="B"/>
    <g s:x="25" s:y="12.5" s:pid="Y"/>
  </g>
  <g s:type="eq" transform="translate(80.33333333333333,353.5)" s:width="25" s:height="25" id="cell_$procmux$12_CMP0">
    <s:alias val="$eq"/>
    <circle r="12.5" cx="12.5" cy="12.5" class="cell_$procmux$12_CMP0"/>
    <line x1="7.5" x2="17.5" y1="10" y2="10" class="cell_$procmux$12_CMP0"/>
    <line x1="7.5" x2="17.5" y1="15" y2="15" class="cell_$procmux$12_CMP0"/>
    <g s:x="3" s:y="5" s:pid="A"/>
    <g s:x="3" s:y="20" s:pid="B"/>
    <g s:x="25" s:y="12.5" s:pid="Y"/>
  </g>
  <g s:type="eq" transform="translate(80.33333333333333,22)" s:width="25" s:height="25" id="cell_$procmux$13_CMP0">
    <s:alias val="$eq"/>
    <circle r="12.5" cx="12.5" cy="12.5" class="cell_$procmux$13_CMP0"/>
    <line x1="7.5" x2="17.5" y1="10" y2="10" class="cell_$procmux$13_CMP0"/>
    <line x1="7.5" x2="17.5" y1="15" y2="15" class="cell_$procmux$13_CMP0"/>
    <g s:x="3" s:y="5" s:pid="A"/>
    <g s:x="3" s:y="20" s:pid="B"/>
    <g s:x="25" s:y="12.5" s:pid="Y"/>
  </g>
  <g s:type="not" transform="translate(77,313.5)" s:width="30" s:height="20" id="cell_$procmux$14_CMP0">
    <s:alias val="$_NOT_"/>
    <s:alias val="$not"/>
    <s:alias val="$logic_not"/>
    <path d="M0,0 L0,20 L20,10 Z" class="cell_$procmux$14_CMP0"/>
    <circle cx="23" cy="10" r="3" class="cell_$procmux$14_CMP0"/>
    <g s:x="0" s:y="10" s:pid="A"/>
    <g s:x="25" s:y="10" s:pid="Y"/>
  </g>
  <g s:type="mux" transform="translate(595.3333333333334,91.5)" s:width="20" s:height="40" id="cell_$procmux$16">
    <s:alias val="$pmux"/>
    <s:alias val="$mux"/>
    <s:alias val="$_MUX_"/>
    <path d="M0,0 L20,10 L20,30 L0,40 Z" class="cell_$procmux$16"/>
    <g s:x="0" s:y="10" s:pid="A"/>
    <g s:x="0" s:y="30" s:pid="B"/>
    <g s:x="10" s:y="35" s:pid="S"/>
    <g s:x="20" s:y="20" s:pid="Y"/>
  </g>
  <g s:type="mux" transform="translate(295,182.5)" s:width="20" s:height="40" id="cell_$ternary$rtl/dual_edge_detector.v:18$5">
    <s:alias val="$pmux"/>
    <s:alias val="$mux"/>
    <s:alias val="$_MUX_"/>
    <path d="M0,0 L20,10 L20,30 L0,40 Z" class="cell_$ternary$rtl/dual_edge_detector.v:18$5"/>
    <g s:x="0" s:y="10" s:pid="A"/>
    <g s:x="0" s:y="30" s:pid="B"/>
    <g s:x="10" s:y="35" s:pid="S"/>
    <g s:x="20" s:y="20" s:pid="Y"/>
  </g>
  <g s:type="mux" transform="translate(295,60.5)" s:width="20" s:height="40" id="cell_$ternary$rtl/dual_edge_detector.v:19$6">
    <s:alias val="$pmux"/>
    <s:alias val="$mux"/>
    <s:alias val="$_MUX_"/>
    <path d="M0,0 L20,10 L20,30 L0,40 Z" class="cell_$ternary$rtl/dual_edge_detector.v:19$6"/>
    <g s:x="0" s:y="10" s:pid="A"/>
    <g s:x="0" s:y="30" s:pid="B"/>
    <g s:x="10" s:y="35" s:pid="S"/>
    <g s:x="20" s:y="20" s:pid="Y"/>
  </g>
  <g s:type="inputExt" transform="translate(157,162.5)" s:width="30" s:height="20" id="cell_in">
    <text x="15" y="-4" class="nodelabel cell_in" s:attribute="ref">in</text>
    <s:alias val="$_inputExt_"/>
    <path d="M0,0 L0,20 L15,20 L30,10 L15,0 Z" class="cell_in"/>
    <g s:x="28" s:y="10" s:pid="Y"/>
  </g>
  <g s:type="inputExt" transform="translate(592,401)" s:width="30" s:height="20" id="cell_clk">
    <text x="15" y="-4" class="nodelabel cell_clk" s:attribute="ref">clk</text>
    <s:alias val="$_inputExt_"/>
    <path d="M0,0 L0,20 L15,20 L30,10 L15,0 Z" class="cell_clk"/>
    <g s:x="28" s:y="10" s:pid="Y"/>
  </g>
  <g s:type="inputExt" transform="translate(527,371)" s:width="30" s:height="20" id="cell_reset">
    <text x="15" y="-4" class="nodelabel cell_reset" s:attribute="ref">reset</text>
    <s:alias val="$_inputExt_"/>
    <path d="M0,0 L0,20 L15,20 L30,10 L15,0 Z" class="cell_reset"/>
    <g s:x="28" s:y="10" s:pid="Y"/>
  </g>
  <g s:type="outputExt" transform="translate(657,32)" s:width="30" s:height="20" id="cell_edge_detection">
    <text x="15" y="-4" class="nodelabel cell_edge_detection" s:attribute="ref">edge_detection</text>
    <s:alias val="$_outputExt_"/>
    <path d="M30,0 L30,20 L15,20 L0,10 L15,0 Z" class="cell_edge_detection"/>
    <g s:x="0" s:y="10" s:pid="A"/>
  </g>
  <g s:type="constant" transform="translate(157,111.5)" s:width="30" s:height="20" id="cell_0">
    <text x="15" y="-4" class="nodelabel cell_0" s:attribute="ref">0</text>
    <s:alias val="$_constant_"/>
    <rect width="30" height="20" class="cell_0"/>
    <g s:x="30" s:y="10" s:pid="Y"/>
  </g>
  <g s:type="constant" transform="translate(12,32)" s:width="30" s:height="20" id="cell_1">
    <text x="15" y="-4" class="nodelabel cell_1" s:attribute="ref">1</text>
    <s:alias val="$_constant_"/>
    <rect width="30" height="20" class="cell_1"/>
    <g s:x="30" s:y="10" s:pid="Y"/>
  </g>
  <g s:type="constant" transform="translate(12,263.5)" s:width="30" s:height="20" id="cell_11">
    <text x="15" y="-4" class="nodelabel cell_11" s:attribute="ref">11</text>
    <s:alias val="$_constant_"/>
    <rect width="30" height="20" class="cell_11"/>
    <g s:x="30" s:y="10" s:pid="Y"/>
  </g>
  <g s:type="constant" transform="translate(12,363.5)" s:width="30" s:height="20" id="cell_10">
    <text x="15" y="-4" class="nodelabel cell_10" s:attribute="ref">10</text>
    <s:alias val="$_constant_"/>
    <rect width="30" height="20" class="cell_10"/>
    <g s:x="30" s:y="10" s:pid="Y"/>
  </g>
  <g s:type="constant" transform="translate(527,306)" s:width="30" s:height="20" id="cell_00">
    <text x="15" y="-4" class="nodelabel cell_00" s:attribute="ref">00</text>
    <s:alias val="$_constant_"/>
    <rect width="30" height="20" class="cell_00"/>
    <g s:x="30" s:y="10" s:pid="Y"/>
  </g>
  <g s:type="join" transform="translate(168,255.5)" s:width="4" s:height="40" id="cell_$join$,6,7,">
    <rect width="5" height="40" class="splitjoinBody" s:generic="body"/>
    <s:alias val="$_join_"/>
    <g s:x="5" s:y="20" s:pid="out"/>
    <g transform="translate(0,10)" s:x="0" s:y="10" s:pid="in0">
      <text x="-3" y="-4" class="inputPortLabel">0</text>
    </g>
    <g transform="translate(0,30)" s:x="0" s:y="10" s:pid="in0">
      <text x="-3" y="-4" class="inputPortLabel">1</text>
    </g>
  </g>
  <g s:type="join" transform="translate(168,335.5)" s:width="4" s:height="40" id="cell_$join$,9,10,">
    <rect width="5" height="40" class="splitjoinBody" s:generic="body"/>
    <s:alias val="$_join_"/>
    <g s:x="5" s:y="20" s:pid="out"/>
    <g transform="translate(0,10)" s:x="0" s:y="10" s:pid="in0">
      <text x="-3" y="-4" class="inputPortLabel">0</text>
    </g>
    <g transform="translate(0,30)" s:x="0" s:y="10" s:pid="in0">
      <text x="-3" y="-4" class="inputPortLabel">1</text>
    </g>
  </g>
  <g s:type="join" transform="translate(486,91)" s:width="4" s:height="40" id="cell_$join$,16,20,17,21,">
    <rect width="5" height="80" class="splitjoinBody" s:generic="body"/>
    <s:alias val="$_join_"/>
    <g s:x="5" s:y="20" s:pid="out"/>
    <g transform="translate(0,10)" s:x="0" s:y="10" s:pid="in0">
      <text x="-3" y="-4" class="inputPortLabel">0</text>
    </g>
    <g transform="translate(0,30)" s:x="0" s:y="10" s:pid="in0">
      <text x="-3" y="-4" class="inputPortLabel">1</text>
    </g>
    <g transform="translate(0,50)" s:x="0" s:y="10" s:pid="in0">
      <text x="-3" y="-4" class="inputPortLabel">2</text>
    </g>
    <g transform="translate(0,70)" s:x="0" s:y="10" s:pid="in0">
      <text x="-3" y="-4" class="inputPortLabel">3</text>
    </g>
  </g>
  <g s:type="join" transform="translate(486,265.5)" s:width="4" s:height="40" id="cell_$join$,8,11,">
    <rect width="5" height="40" class="splitjoinBody" s:generic="body"/>
    <s:alias val="$_join_"/>
    <g s:x="5" s:y="20" s:pid="out"/>
    <g transform="translate(0,10)" s:x="0" s:y="10" s:pid="in0">
      <text x="-3" y="-4" class="inputPortLabel">0</text>
    </g>
    <g transform="translate(0,30)" s:x="0" s:y="10" s:pid="in0">
      <text x="-3" y="-4" class="inputPortLabel">1</text>
    </g>
  </g>
  <line x1="174" x2="234" y1="276" y2="276" class="net_6,7"/>
  <line x1="174" x2="234" y1="356" y2="356" class="net_9,10"/>
  <line x1="105.33333333333333" x2="595" y1="34.5" y2="34.5" class="net_9"/>
  <line x1="105.33333333333333" x2="127" y1="34.5" y2="34.5" class="net_9"/>
  <line x1="127" x2="127" y1="34.5" y2="346" class="net_9"/>
  <circle cx="127" cy="34.5" r="2" style="fill:#000" class="net_9"/>
  <line x1="127" x2="168" y1="346" y2="346" class="net_9"/>
  <line x1="105.33333333333333" x2="137" y1="266" y2="266" class="net_6"/>
  <line x1="137" x2="137" y1="266" y2="49.5" class="net_6"/>
  <circle cx="137" cy="266" r="2" style="fill:#000" class="net_6"/>
  <line x1="137" x2="595" y1="49.5" y2="49.5" class="net_6"/>
  <line x1="105.33333333333333" x2="168" y1="266" y2="266" class="net_6"/>
  <line x1="620" x2="632" y1="411" y2="411" class="net_3"/>
  <line x1="632" x2="632" y1="411" y2="131.5" class="net_3"/>
  <line x1="632" x2="657" y1="131.5" y2="131.5" class="net_3"/>
  <line x1="615.3333333333334" x2="657" y1="111.5" y2="111.5" class="net_12,13"/>
  <line x1="492" x2="532" y1="111.5" y2="111.5" class="net_16,20,17,21"/>
  <line x1="492" x2="542" y1="286" y2="286" class="net_8,11"/>
  <line x1="542" x2="542" y1="286" y2="116.5" class="net_8,11"/>
  <line x1="687" x2="751" y1="111.5" y2="111.5" class="net_14,15"/>
  <line x1="751" x2="751" y1="111.5" y2="431" class="net_14,15"/>
  <line x1="751" x2="117" y1="431" y2="431" class="net_14,15"/>
  <line x1="117" x2="117" y1="431" y2="343.5" class="net_14,15"/>
  <line x1="117" x2="62" y1="343.5" y2="343.5" class="net_14,15"/>
  <line x1="62" x2="62" y1="343.5" y2="258.5" class="net_14,15"/>
  <circle cx="117" cy="431" r="2" style="fill:#000" class="net_14,15"/>
  <line x1="62" x2="83.33333333333333" y1="258.5" y2="258.5" class="net_14,15"/>
  <line x1="687" x2="751" y1="111.5" y2="111.5" class="net_14,15"/>
  <line x1="751" x2="751" y1="111.5" y2="431" class="net_14,15"/>
  <line x1="751" x2="52" y1="431" y2="431" class="net_14,15"/>
  <line x1="52" x2="52" y1="431" y2="358.5" class="net_14,15"/>
  <circle cx="52" cy="358.5" r="2" style="fill:#000" class="net_14,15"/>
  <line x1="52" x2="83.33333333333333" y1="358.5" y2="358.5" class="net_14,15"/>
  <line x1="687" x2="751" y1="111.5" y2="111.5" class="net_14,15"/>
  <line x1="751" x2="751" y1="111.5" y2="12" class="net_14,15"/>
  <line x1="751" x2="62" y1="12" y2="12" class="net_14,15"/>
  <line x1="62" x2="62" y1="12" y2="27" class="net_14,15"/>
  <circle cx="751" cy="111.5" r="2" style="fill:#000" class="net_14,15"/>
  <line x1="62" x2="83.33333333333333" y1="27" y2="27" class="net_14,15"/>
  <line x1="687" x2="751" y1="111.5" y2="111.5" class="net_14,15"/>
  <line x1="751" x2="751" y1="111.5" y2="431" class="net_14,15"/>
  <line x1="751" x2="52" y1="431" y2="431" class="net_14,15"/>
  <line x1="52" x2="52" y1="431" y2="323.5" class="net_14,15"/>
  <line x1="52" x2="77" y1="323.5" y2="323.5" class="net_14,15"/>
  <line x1="42" x2="83.33333333333333" y1="273.5" y2="273.5" class="net_22,23"/>
  <line x1="42" x2="83.33333333333333" y1="373.5" y2="373.5" class="net_24,25"/>
  <line x1="42" x2="83.33333333333333" y1="42" y2="42" class="net_21"/>
  <line x1="42" x2="52" y1="42" y2="42" class="net_21"/>
  <line x1="52" x2="52" y1="42" y2="90.5" class="net_21"/>
  <line x1="52" x2="147" y1="90.5" y2="90.5" class="net_21"/>
  <line x1="147" x2="147" y1="90.5" y2="141.5" class="net_21"/>
  <line x1="147" x2="207" y1="141.5" y2="141.5" class="net_21"/>
  <line x1="207" x2="207" y1="141.5" y2="192.5" class="net_21"/>
  <circle cx="52" cy="42" r="2" style="fill:#000" class="net_21"/>
  <circle cx="147" cy="90.5" r="2" style="fill:#000" class="net_21"/>
  <circle cx="147" cy="141.5" r="2" style="fill:#000" class="net_21"/>
  <line x1="207" x2="295" y1="192.5" y2="192.5" class="net_21"/>
  <line x1="42" x2="52" y1="42" y2="42" class="net_21"/>
  <line x1="52" x2="52" y1="42" y2="90.5" class="net_21"/>
  <line x1="52" x2="295" y1="90.5" y2="90.5" class="net_21"/>
  <line x1="42" x2="52" y1="42" y2="42" class="net_21"/>
  <line x1="52" x2="52" y1="42" y2="90.5" class="net_21"/>
  <line x1="52" x2="147" y1="90.5" y2="90.5" class="net_21"/>
  <line x1="147" x2="147" y1="90.5" y2="242.5" class="net_21"/>
  <line x1="147" x2="486.5" y1="242.5" y2="242.5" class="net_21"/>
  <line x1="486.5" x2="486.5" y1="242.5" y2="162" class="net_21"/>
  <line x1="552" x2="595.3333333333334" y1="101.5" y2="101.5" class="net_18,19"/>
  <line x1="557" x2="567" y1="316" y2="316" class="net_27,28"/>
  <line x1="567" x2="567" y1="316" y2="121.5" class="net_27,28"/>
  <line x1="567" x2="595.3333333333334" y1="121.5" y2="121.5" class="net_27,28"/>
  <line x1="555" x2="605.3333333333334" y1="381" y2="381" class="net_4"/>
  <line x1="605.3333333333334" x2="605.3333333333334" y1="381" y2="126.5" class="net_4"/>
  <line x1="187" x2="217" y1="121.5" y2="121.5" class="net_20"/>
  <line x1="217" x2="217" y1="121.5" y2="212.5" class="net_20"/>
  <circle cx="217" cy="121.5" r="2" style="fill:#000" class="net_20"/>
  <line x1="217" x2="295" y1="212.5" y2="212.5" class="net_20"/>
  <line x1="187" x2="217" y1="121.5" y2="121.5" class="net_20"/>
  <line x1="217" x2="217" y1="121.5" y2="70.5" class="net_20"/>
  <line x1="217" x2="295" y1="70.5" y2="70.5" class="net_20"/>
  <line x1="187" x2="486" y1="121.5" y2="121.5" class="net_20"/>
  <line x1="185" x2="197" y1="172.5" y2="172.5" class="net_2"/>
  <line x1="197" x2="197" y1="172.5" y2="232.5" class="net_2"/>
  <line x1="197" x2="305" y1="232.5" y2="232.5" class="net_2"/>
  <circle cx="197" cy="172.5" r="2" style="fill:#000" class="net_2"/>
  <line x1="305" x2="305" y1="232.5" y2="217.5" class="net_2"/>
  <line x1="185" x2="305" y1="172.5" y2="172.5" class="net_2"/>
  <line x1="305" x2="305" y1="172.5" y2="95.5" class="net_2"/>
  <line x1="622" x2="657" y1="42" y2="42" class="net_5"/>
  <line x1="102" x2="137" y1="323.5" y2="323.5" class="net_7"/>
  <line x1="137" x2="137" y1="323.5" y2="286" class="net_7"/>
  <line x1="137" x2="168" y1="286" y2="286" class="net_7"/>
  <line x1="105.33333333333333" x2="168" y1="366" y2="366" class="net_10"/>
  <line x1="315" x2="454" y1="80.5" y2="80.5" class="net_16"/>
  <line x1="454" x2="454" y1="80.5" y2="101.5" class="net_16"/>
  <line x1="454" x2="486" y1="101.5" y2="101.5" class="net_16"/>
  <line x1="315" x2="454" y1="202.5" y2="202.5" class="net_17"/>
  <line x1="454" x2="454" y1="202.5" y2="141.5" class="net_17"/>
  <line x1="454" x2="486" y1="141.5" y2="141.5" class="net_17"/>
  <line x1="265" x2="486" y1="276" y2="276" class="net_8"/>
  <line x1="265" x2="454" y1="356" y2="356" class="net_11"/>
  <line x1="454" x2="454" y1="356" y2="296" class="net_11"/>
  <line x1="454" x2="486" y1="296" y2="296" class="net_11"/>
</svg>
