<svg style="background:white" xmlns="http://www.w3.org/2000/svg" xmlns:xlink="http://www.w3.org/1999/xlink" xmlns:s="https://github.com/nturley/netlistsvg" width="382" height="214">
  <style>svg {
    stroke:#000;
    fill:none;
  }
  text {
    fill:#000;
    stroke:none;
    font-size:10px;
    font-weight: bold;
    font-family: "Courier New", monospace;
  }
  .nodelabel {
    text-anchor: middle;
  }
  .inputPortLabel {
    text-anchor: end;
  }
  .splitjoinBody {
    fill:#000;
  }</style>
  <g s:type="not" transform="translate(275,39.5)" s:width="30" s:height="20" id="cell_$not$rtl/parking_lot_occupancy.v:16$12">
    <s:alias val="$_NOT_"/>
    <s:alias val="$not"/>
    <s:alias val="$logic_not"/>
    <path d="M0,0 L0,20 L20,10 Z" class="cell_$not$rtl/parking_lot_occupancy.v:16$12"/>
    <circle cx="23" cy="10" r="3" class="cell_$not$rtl/parking_lot_occupancy.v:16$12"/>
    <g s:x="0" s:y="10" s:pid="A"/>
    <g s:x="25" s:y="10" s:pid="Y"/>
  </g>
  <g s:type="dff" transform="translate(142,32)" s:width="30" s:height="40" id="cell_$procdff$17">
    <s:alias val="$dff"/>
    <s:alias val="$_DFF_"/>
    <s:alias val="$_DFF_P_"/>
    <rect width="30" height="40" x="0" y="0" class="cell_$procdff$17"/>
    <path d="M0,35 L5,30 L0,25" class="cell_$procdff$17"/>
    <g s:x="30" s:y="10" s:pid="Q"/>
    <g s:x="0" s:y="30" s:pid="CLK"/>
    <g s:x="0" s:y="30" s:pid="C"/>
    <g s:x="0" s:y="10" s:pid="D"/>
  </g>
  <g s:type="mux" transform="translate(80.33333333333333,22)" s:width="20" s:height="40" id="cell_$procmux$15">
    <s:alias val="$pmux"/>
    <s:alias val="$mux"/>
    <s:alias val="$_MUX_"/>
    <path d="M0,0 L20,10 L20,30 L0,40 Z" class="cell_$procmux$15"/>
    <g s:x="0" s:y="10" s:pid="A"/>
    <g s:x="0" s:y="30" s:pid="B"/>
    <g s:x="10" s:y="35" s:pid="S"/>
    <g s:x="20" s:y="20" s:pid="Y"/>
  </g>
  <g s:type="reduce_xor" transform="translate(207,37)" s:width="33" s:height="25" id="cell_$xor$rtl/parking_lot_occupancy.v:17$13">
    <s:alias val="$xor"/>
    <s:alias val="$reduce_xor"/>
    <s:alias val="$_XOR_"/>
    <path d="M3,0 A30 25 0 0 1 3,25 A30 25 0 0 0 33,12.5 A30 25 0 0 0 3,0" class="cell_$xor$rtl/parking_lot_occupancy.v:17$13"/>
    <path d="M0,0 A30 25 0 0 1 0,25" class="cell_$xor$rtl/parking_lot_occupancy.v:17$13"/>
    <g s:x="3" s:y="5" s:pid="A"/>
    <g s:x="3" s:y="20" s:pid="B"/>
    <g s:x="33" s:y="12.5" s:pid="Y"/>
  </g>
  <g s:type="inputExt" transform="translate(12,22)" s:width="30" s:height="20" id="cell_a">
    <text x="15" y="-4" class="nodelabel cell_a" s:attribute="ref">a</text>
    <s:alias val="$_inputExt_"/>
    <path d="M0,0 L0,20 L15,20 L30,10 L15,0 Z" class="cell_a"/>
    <g s:x="28" s:y="10" s:pid="Y"/>
  </g>
  <g s:type="inputExt" transform="translate(142,117)" s:width="30" s:height="20" id="cell_b">
    <text x="15" y="-4" class="nodelabel cell_b" s:attribute="ref">b</text>
    <s:alias val="$_inputExt_"/>
    <path d="M0,0 L0,20 L15,20 L30,10 L15,0 Z" class="cell_b"/>
    <g s:x="28" s:y="10" s:pid="Y"/>
  </g>
  <g s:type="inputExt" transform="translate(77,182)" s:width="30" s:height="20" id="cell_clk">
    <text x="15" y="-4" class="nodelabel cell_clk" s:attribute="ref">clk</text>
    <s:alias val="$_inputExt_"/>
    <path d="M0,0 L0,20 L15,20 L30,10 L15,0 Z" class="cell_clk"/>
    <g s:x="28" s:y="10" s:pid="Y"/>
  </g>
  <g s:type="inputExt" transform="translate(12,152)" s:width="30" s:height="20" id="cell_reset">
    <text x="15" y="-4" class="nodelabel cell_reset" s:attribute="ref">reset</text>
    <s:alias val="$_inputExt_"/>
    <path d="M0,0 L0,20 L15,20 L30,10 L15,0 Z" class="cell_reset"/>
    <g s:x="28" s:y="10" s:pid="Y"/>
  </g>
  <g s:type="outputExt" transform="translate(340,39.5)" s:width="30" s:height="20" id="cell_enter">
    <text x="15" y="-4" class="nodelabel cell_enter" s:attribute="ref">enter</text>
    <s:alias val="$_outputExt_"/>
    <path d="M30,0 L30,20 L15,20 L0,10 L15,0 Z" class="cell_enter"/>
    <g s:x="0" s:y="10" s:pid="A"/>
  </g>
  <g s:type="outputExt" transform="translate(340,104.5)" s:width="30" s:height="20" id="cell_exit">
    <text x="15" y="-4" class="nodelabel cell_exit" s:attribute="ref">exit</text>
    <s:alias val="$_outputExt_"/>
    <path d="M30,0 L30,20 L15,20 L0,10 L15,0 Z" class="cell_exit"/>
    <g s:x="0" s:y="10" s:pid="A"/>
  </g>
  <g s:type="constant" transform="translate(12,87)" s:width="30" s:height="20" id="cell_0">
    <text x="15" y="-4" class="nodelabel cell_0" s:attribute="ref">0</text>
    <s:alias val="$_constant_"/>
    <rect width="30" height="20" class="cell_0"/>
    <g s:x="30" s:y="10" s:pid="Y"/>
  </g>
  <line x1="240" x2="275" y1="49.5" y2="49.5" class="net_7"/>
  <line x1="240" x2="250" y1="49.5" y2="49.5" class="net_7"/>
  <line x1="250" x2="250" y1="49.5" y2="114.5" class="net_7"/>
  <circle cx="250" cy="49.5" r="2" style="fill:#000" class="net_7"/>
  <line x1="250" x2="340" y1="114.5" y2="114.5" class="net_7"/>
  <line x1="105" x2="117" y1="192" y2="192" class="net_4"/>
  <line x1="117" x2="117" y1="192" y2="62" class="net_4"/>
  <line x1="117" x2="142" y1="62" y2="62" class="net_4"/>
  <line x1="100.33333333333333" x2="142" y1="42" y2="42" class="net_8"/>
  <line x1="40" x2="80.33333333333333" y1="32" y2="32" class="net_2"/>
  <line x1="42" x2="52" y1="97" y2="97" class="net_10"/>
  <line x1="52" x2="52" y1="97" y2="52" class="net_10"/>
  <line x1="52" x2="80.33333333333333" y1="52" y2="52" class="net_10"/>
  <line x1="40" x2="90.33333333333333" y1="162" y2="162" class="net_5"/>
  <line x1="90.33333333333333" x2="90.33333333333333" y1="162" y2="57" class="net_5"/>
  <line x1="172" x2="210" y1="42" y2="42" class="net_9"/>
  <line x1="170" x2="182" y1="127" y2="127" class="net_3"/>
  <line x1="182" x2="182" y1="127" y2="57" class="net_3"/>
  <line x1="182" x2="210" y1="57" y2="57" class="net_3"/>
  <line x1="300" x2="340" y1="49.5" y2="49.5" class="net_6"/>
</svg>
